%TF.GenerationSoftware,KiCad,Pcbnew,9.0.0*%
%TF.CreationDate,2025-04-22T03:50:59+03:00*%
%TF.ProjectId,Inverter,496e7665-7274-4657-922e-6b696361645f,rev?*%
%TF.SameCoordinates,Original*%
%TF.FileFunction,Copper,L2,Bot*%
%TF.FilePolarity,Positive*%
%FSLAX46Y46*%
G04 Gerber Fmt 4.6, Leading zero omitted, Abs format (unit mm)*
G04 Created by KiCad (PCBNEW 9.0.0) date 2025-04-22 03:50:59*
%MOMM*%
%LPD*%
G01*
G04 APERTURE LIST*
G04 Aperture macros list*
%AMRoundRect*
0 Rectangle with rounded corners*
0 $1 Rounding radius*
0 $2 $3 $4 $5 $6 $7 $8 $9 X,Y pos of 4 corners*
0 Add a 4 corners polygon primitive as box body*
4,1,4,$2,$3,$4,$5,$6,$7,$8,$9,$2,$3,0*
0 Add four circle primitives for the rounded corners*
1,1,$1+$1,$2,$3*
1,1,$1+$1,$4,$5*
1,1,$1+$1,$6,$7*
1,1,$1+$1,$8,$9*
0 Add four rect primitives between the rounded corners*
20,1,$1+$1,$2,$3,$4,$5,0*
20,1,$1+$1,$4,$5,$6,$7,0*
20,1,$1+$1,$6,$7,$8,$9,0*
20,1,$1+$1,$8,$9,$2,$3,0*%
G04 Aperture macros list end*
%TA.AperFunction,ComponentPad*%
%ADD10RoundRect,0.250000X0.600000X0.725000X-0.600000X0.725000X-0.600000X-0.725000X0.600000X-0.725000X0*%
%TD*%
%TA.AperFunction,ComponentPad*%
%ADD11O,1.700000X1.950000*%
%TD*%
%TA.AperFunction,ComponentPad*%
%ADD12R,2.400000X2.400000*%
%TD*%
%TA.AperFunction,ComponentPad*%
%ADD13C,2.400000*%
%TD*%
%TA.AperFunction,ComponentPad*%
%ADD14C,3.500000*%
%TD*%
%TA.AperFunction,ComponentPad*%
%ADD15R,1.600000X1.600000*%
%TD*%
%TA.AperFunction,ComponentPad*%
%ADD16O,1.600000X1.600000*%
%TD*%
%TA.AperFunction,ComponentPad*%
%ADD17C,4.400000*%
%TD*%
%TA.AperFunction,ComponentPad*%
%ADD18RoundRect,1.500000X1.500000X1.500000X-1.500000X1.500000X-1.500000X-1.500000X1.500000X-1.500000X0*%
%TD*%
%TA.AperFunction,ComponentPad*%
%ADD19C,6.000000*%
%TD*%
%TA.AperFunction,ComponentPad*%
%ADD20RoundRect,0.250000X0.725000X-0.600000X0.725000X0.600000X-0.725000X0.600000X-0.725000X-0.600000X0*%
%TD*%
%TA.AperFunction,ComponentPad*%
%ADD21O,1.950000X1.700000*%
%TD*%
%TA.AperFunction,ComponentPad*%
%ADD22R,1.905000X2.000000*%
%TD*%
%TA.AperFunction,ComponentPad*%
%ADD23O,1.905000X2.000000*%
%TD*%
%TA.AperFunction,ViaPad*%
%ADD24C,0.600000*%
%TD*%
%TA.AperFunction,Conductor*%
%ADD25C,0.300000*%
%TD*%
%TA.AperFunction,Conductor*%
%ADD26C,0.400000*%
%TD*%
%TA.AperFunction,Conductor*%
%ADD27C,0.700000*%
%TD*%
%TA.AperFunction,Conductor*%
%ADD28C,0.500000*%
%TD*%
G04 APERTURE END LIST*
D10*
%TO.P,J3,1,Pin_1*%
%TO.N,GND*%
X152800000Y-90950000D03*
D11*
%TO.P,J3,2,Pin_2*%
%TO.N,Net-(J3-Pin_2)*%
X150300000Y-90950000D03*
%TO.P,J3,3,Pin_3*%
%TO.N,Net-(J3-Pin_3)*%
X147800000Y-90950000D03*
%TO.P,J3,4,Pin_4*%
%TO.N,Net-(J3-Pin_4)*%
X145300000Y-90950000D03*
%TO.P,J3,5,Pin_5*%
%TO.N,+5V_Fuse*%
X142800000Y-90950000D03*
%TD*%
D12*
%TO.P,C6,1*%
%TO.N,+33V*%
X117262755Y-112700000D03*
D13*
%TO.P,C6,2*%
%TO.N,GND*%
X109762755Y-112700000D03*
%TD*%
D14*
%TO.P,F2,1*%
%TO.N,+33V*%
X118875000Y-124275000D03*
X118875000Y-129355000D03*
%TO.P,F2,2*%
%TO.N,/Vin*%
X118875000Y-133415000D03*
X118875000Y-138495000D03*
%TD*%
D15*
%TO.P,A1,1,D1/TX*%
%TO.N,unconnected-(A1-D1{slash}TX-Pad1)*%
X131600000Y-110860000D03*
D16*
%TO.P,A1,2,D0/RX*%
%TO.N,unconnected-(A1-D0{slash}RX-Pad2)*%
X134140000Y-110860000D03*
%TO.P,A1,3,~{RESET}*%
%TO.N,unconnected-(A1-~{RESET}-Pad3)*%
X136680000Y-110860000D03*
%TO.P,A1,4,GND*%
%TO.N,GND*%
X139220000Y-110860000D03*
%TO.P,A1,5,D2*%
%TO.N,unconnected-(A1-D2-Pad5)*%
X141760000Y-110860000D03*
%TO.P,A1,6,D3*%
%TO.N,unconnected-(A1-D3-Pad6)*%
X144300000Y-110860000D03*
%TO.P,A1,7,D4*%
%TO.N,/CWR*%
X146840000Y-110860000D03*
%TO.P,A1,8,D5*%
%TO.N,/PWM_W*%
X149380000Y-110860000D03*
%TO.P,A1,9,D6*%
%TO.N,/IN_W*%
X151920000Y-110860000D03*
%TO.P,A1,10,D7*%
%TO.N,/IN_V*%
X154460000Y-110860000D03*
%TO.P,A1,11,D8*%
%TO.N,/IN_U*%
X157000000Y-110860000D03*
%TO.P,A1,12,D9*%
%TO.N,/PWM_V*%
X159540000Y-110860000D03*
%TO.P,A1,13,D10*%
%TO.N,/PWM_U*%
X162080000Y-110860000D03*
%TO.P,A1,14,D11*%
%TO.N,/HAL_W*%
X164620000Y-110860000D03*
%TO.P,A1,15,D12*%
%TO.N,/HAL_V*%
X167160000Y-110860000D03*
%TO.P,A1,16,D13*%
%TO.N,/HAL_U*%
X167160000Y-95620000D03*
%TO.P,A1,17,3V3*%
%TO.N,unconnected-(A1-3V3-Pad17)*%
X164620000Y-95620000D03*
%TO.P,A1,18,AREF*%
%TO.N,unconnected-(A1-AREF-Pad18)*%
X162080000Y-95620000D03*
%TO.P,A1,19,A0*%
%TO.N,/Vbatt*%
X159540000Y-95620000D03*
%TO.P,A1,20,A1*%
%TO.N,/Cur_U*%
X157000000Y-95620000D03*
%TO.P,A1,21,A2*%
%TO.N,/Cur_V*%
X154460000Y-95620000D03*
%TO.P,A1,22,A3*%
%TO.N,/Cur_W*%
X151920000Y-95620000D03*
%TO.P,A1,23,A4*%
%TO.N,unconnected-(A1-A4-Pad23)*%
X149380000Y-95620000D03*
%TO.P,A1,24,A5*%
%TO.N,unconnected-(A1-A5-Pad24)*%
X146840000Y-95620000D03*
%TO.P,A1,25,A6*%
%TO.N,/POT*%
X144300000Y-95620000D03*
%TO.P,A1,26,A7*%
%TO.N,unconnected-(A1-A7-Pad26)*%
X141760000Y-95620000D03*
%TO.P,A1,27,+5V*%
%TO.N,+5V*%
X139220000Y-95620000D03*
%TO.P,A1,28,~{RESET}*%
%TO.N,unconnected-(A1-~{RESET}-Pad28)*%
X136680000Y-95620000D03*
%TO.P,A1,29,GND*%
%TO.N,GND*%
X134140000Y-95620000D03*
%TO.P,A1,30,VIN*%
%TO.N,Net-(A1-VIN)*%
X131600000Y-95620000D03*
%TD*%
D17*
%TO.P,V1,1,1*%
%TO.N,/V_OUT*%
X139800000Y-47875000D03*
%TD*%
%TO.P,W1,1,1*%
%TO.N,/W_OUT*%
X131800000Y-47875000D03*
%TD*%
D18*
%TO.P,J1,1,Pin_1*%
%TO.N,GND*%
X134750000Y-135625000D03*
D19*
%TO.P,J1,2,Pin_2*%
%TO.N,/Vin*%
X127550000Y-135625000D03*
%TD*%
D12*
%TO.P,C5,1*%
%TO.N,+33V*%
X117212755Y-96200000D03*
D13*
%TO.P,C5,2*%
%TO.N,GND*%
X109712755Y-96200000D03*
%TD*%
D20*
%TO.P,J2,1,Pin_1*%
%TO.N,/ON*%
X171275000Y-127825000D03*
D21*
%TO.P,J2,2,Pin_2*%
%TO.N,GND*%
X171275000Y-125325000D03*
%TO.P,J2,3,Pin_3*%
%TO.N,/CWR*%
X171275000Y-122825000D03*
%TO.P,J2,4,Pin_4*%
%TO.N,/POT*%
X171275000Y-120325000D03*
%TO.P,J2,5,Pin_5*%
%TO.N,+5V_Fuse*%
X171275000Y-117825000D03*
%TD*%
D17*
%TO.P,U2,1,1*%
%TO.N,/U_OUT*%
X147800000Y-47875000D03*
%TD*%
D22*
%TO.P,Q1,1,G*%
%TO.N,Net-(D9-A)*%
X171340000Y-60070000D03*
D23*
%TO.P,Q1,2,D*%
%TO.N,+33V*%
X168800000Y-60070000D03*
%TO.P,Q1,3,S*%
%TO.N,/U_IN*%
X166260000Y-60070000D03*
%TD*%
D22*
%TO.P,Q5,1,G*%
%TO.N,Net-(D13-A)*%
X125140000Y-60070000D03*
D23*
%TO.P,Q5,2,D*%
%TO.N,+33V*%
X122600000Y-60070000D03*
%TO.P,Q5,3,S*%
%TO.N,/W_IN*%
X120060000Y-60070000D03*
%TD*%
D22*
%TO.P,Q3,1,G*%
%TO.N,Net-(D11-A)*%
X148240000Y-60070000D03*
D23*
%TO.P,Q3,2,D*%
%TO.N,+33V*%
X145700000Y-60070000D03*
%TO.P,Q3,3,S*%
%TO.N,/V_IN*%
X143160000Y-60070000D03*
%TD*%
D22*
%TO.P,Q4,1,G*%
%TO.N,Net-(D12-A)*%
X136690000Y-60070000D03*
D23*
%TO.P,Q4,2,D*%
%TO.N,/V_IN*%
X134150000Y-60070000D03*
%TO.P,Q4,3,S*%
%TO.N,GND*%
X131610000Y-60070000D03*
%TD*%
D22*
%TO.P,Q2,1,G*%
%TO.N,Net-(D10-A)*%
X159790000Y-60070000D03*
D23*
%TO.P,Q2,2,D*%
%TO.N,/U_IN*%
X157250000Y-60070000D03*
%TO.P,Q2,3,S*%
%TO.N,GND*%
X154710000Y-60070000D03*
%TD*%
D22*
%TO.P,Q6,1,G*%
%TO.N,Net-(D14-A)*%
X113590000Y-60070000D03*
D23*
%TO.P,Q6,2,D*%
%TO.N,/W_IN*%
X111050000Y-60070000D03*
%TO.P,Q6,3,S*%
%TO.N,GND*%
X108510000Y-60070000D03*
%TD*%
D24*
%TO.N,/IN_U*%
X167400000Y-81210000D03*
%TO.N,/IN_W*%
X133650000Y-88475000D03*
%TO.N,/PWM_U*%
X167480000Y-80230000D03*
%TO.N,/IN_V*%
X145825000Y-79975000D03*
%TO.N,/PWM_V*%
X160325000Y-107500000D03*
X144762500Y-80462500D03*
X155300000Y-107525000D03*
%TO.N,+5V*%
X152125000Y-87375000D03*
X172320000Y-86900000D03*
X134450000Y-86700000D03*
X133137500Y-83662500D03*
X150475000Y-87375000D03*
X173890000Y-86875000D03*
%TO.N,GND*%
X110000000Y-129425000D03*
X127525000Y-55000000D03*
X137450000Y-105025000D03*
X152800000Y-92950000D03*
X157425000Y-90000000D03*
X169950000Y-105050000D03*
X124950000Y-109925000D03*
X167500000Y-87475000D03*
X155000000Y-120050000D03*
X170100000Y-57550000D03*
X162550000Y-140800000D03*
X107475000Y-87500000D03*
X155000000Y-77500000D03*
X137550000Y-108375000D03*
X106200000Y-101350000D03*
X149975000Y-69975000D03*
X147525000Y-137275000D03*
X110025000Y-82525000D03*
X142475000Y-132525000D03*
X115025000Y-135000000D03*
X153400000Y-75950000D03*
X131350000Y-87175000D03*
X172050000Y-80300000D03*
X171550000Y-56775000D03*
X162525000Y-137475000D03*
X137525000Y-129975000D03*
X134500000Y-106375000D03*
X132100000Y-57500000D03*
X169925000Y-73825000D03*
X134975000Y-97500000D03*
X167100000Y-56300000D03*
X172650000Y-107725000D03*
X160000000Y-119975000D03*
X143950000Y-56250000D03*
X106175000Y-102475000D03*
X147500000Y-72475000D03*
X157475000Y-112450000D03*
X135025000Y-100075000D03*
X149975000Y-72500000D03*
X135150000Y-79325000D03*
X110000000Y-84975000D03*
X172525000Y-110050000D03*
X168850000Y-95000000D03*
X130000000Y-57500000D03*
X144925000Y-117975000D03*
X140000000Y-139975000D03*
X150000000Y-114950000D03*
X150100000Y-79150000D03*
X124975000Y-112375000D03*
X147500000Y-132525000D03*
X107450000Y-103675000D03*
X107500000Y-70075000D03*
X167600000Y-85025000D03*
X154950000Y-57525000D03*
X172525000Y-105025000D03*
X170025000Y-135000000D03*
X110025000Y-80000000D03*
X168750000Y-97425000D03*
X172500000Y-97500000D03*
X147500000Y-79125000D03*
X134525000Y-108375000D03*
X165745000Y-132055000D03*
X132325000Y-105050000D03*
X147500000Y-74950000D03*
X166300000Y-140775000D03*
X127075000Y-60000000D03*
X106225000Y-107375000D03*
X164925000Y-87500000D03*
X124975000Y-122450000D03*
X165025000Y-127450000D03*
X109975000Y-132525000D03*
X172450000Y-100000000D03*
X153400000Y-71000000D03*
X172200000Y-82500000D03*
X127525000Y-130025000D03*
X110025000Y-87500000D03*
X107450000Y-102500000D03*
X124925000Y-102475000D03*
X112350000Y-137625000D03*
X108900000Y-104400000D03*
X142475000Y-130000000D03*
X165000000Y-115000000D03*
X125000000Y-57500000D03*
X132350000Y-120050000D03*
X172025000Y-72425000D03*
X162395000Y-135105000D03*
X167525000Y-127450000D03*
X152450000Y-135000000D03*
X137450000Y-139975000D03*
X169975000Y-79275000D03*
X126875000Y-95000000D03*
X172500000Y-52500000D03*
X112550000Y-135050000D03*
X129825000Y-122550000D03*
X112500000Y-87500000D03*
X147400000Y-114950000D03*
X107475000Y-57500000D03*
X160000000Y-137475000D03*
X162375000Y-100075000D03*
X166950000Y-105025000D03*
X150000000Y-54925000D03*
X154975000Y-134975000D03*
X154950000Y-52500000D03*
X107500000Y-72450000D03*
X162500000Y-112475000D03*
X172450000Y-92500000D03*
X153125000Y-83950000D03*
X124950000Y-107500000D03*
X142575000Y-108375000D03*
X160000000Y-127500000D03*
X169975000Y-107725000D03*
X107475000Y-52500000D03*
X165050000Y-112500000D03*
X159975000Y-92500000D03*
X107450000Y-104975000D03*
X157500000Y-79250000D03*
X152500000Y-127500000D03*
X142400000Y-74950000D03*
X107475000Y-55000000D03*
X106175000Y-103675000D03*
X169300000Y-140775000D03*
X147450000Y-139975000D03*
X160950000Y-109450000D03*
X172575000Y-132500000D03*
X152500000Y-52525000D03*
X135225000Y-93500000D03*
X137525000Y-114950000D03*
X155000000Y-112450000D03*
X112400000Y-139975000D03*
X137525000Y-120000000D03*
X139975000Y-114950000D03*
X172075000Y-77100000D03*
X133050000Y-79325000D03*
X172050000Y-74950000D03*
X107475000Y-80025000D03*
X165000000Y-119975000D03*
X168750000Y-99975000D03*
X134300000Y-52475000D03*
X124975000Y-120025000D03*
X142600000Y-135025000D03*
X172500000Y-95000000D03*
X167450000Y-92550000D03*
X165000000Y-74975000D03*
X127500000Y-122500000D03*
X152475000Y-54925000D03*
X107475000Y-135050000D03*
X150000000Y-52500000D03*
X127525000Y-120050000D03*
X152500000Y-112450000D03*
X172450000Y-89975000D03*
X147500000Y-69975000D03*
X152500000Y-129950000D03*
X135000000Y-102500000D03*
X150100000Y-75000000D03*
X114975000Y-137600000D03*
X165000000Y-77900000D03*
X155000000Y-75025000D03*
X135000000Y-139950000D03*
X173475000Y-114450000D03*
X120000000Y-72500000D03*
X124975000Y-100100000D03*
X134950000Y-125000000D03*
X125625000Y-130000000D03*
X174500000Y-51325000D03*
X147500000Y-135000000D03*
X142525000Y-114950000D03*
X117475000Y-82500000D03*
X172050000Y-70000000D03*
X158150000Y-84350000D03*
X169375000Y-102600000D03*
X142500000Y-140000000D03*
X153425000Y-79000000D03*
X148925000Y-83950000D03*
X153175000Y-109375000D03*
X144925000Y-120000000D03*
X164975000Y-92525000D03*
X168450000Y-86175000D03*
X130025000Y-60025000D03*
X120950000Y-56250000D03*
X165745000Y-135105000D03*
X140000000Y-129925000D03*
X174500000Y-55000000D03*
X135000000Y-130000000D03*
X132100000Y-54975000D03*
X165025000Y-97425000D03*
X137475000Y-125000000D03*
X152550000Y-114950000D03*
X139975000Y-108350000D03*
X107500000Y-82500000D03*
X170000000Y-132475000D03*
X107475000Y-62500000D03*
X127525000Y-117500000D03*
X157160000Y-140805000D03*
X154975000Y-54925000D03*
X130000000Y-125050000D03*
X106200000Y-106275000D03*
X139975000Y-137425000D03*
X124925000Y-105025000D03*
X147475000Y-129950000D03*
X157850000Y-102975000D03*
X145450000Y-127500000D03*
X132100000Y-52475000D03*
X107475000Y-75000000D03*
X147425000Y-117950000D03*
X123650000Y-72500000D03*
X142475000Y-127525000D03*
X172225000Y-84950000D03*
X107500000Y-77475000D03*
X114900000Y-87500000D03*
X150050000Y-117950000D03*
X107450000Y-85025000D03*
X154825000Y-128875000D03*
X130000000Y-52500000D03*
X152475000Y-57525000D03*
X142500000Y-77500000D03*
X172050000Y-78525000D03*
X167500000Y-137500000D03*
X129975000Y-54975000D03*
X155000000Y-122500000D03*
X135625000Y-74550000D03*
X162395000Y-132055000D03*
X124950000Y-97525000D03*
X106175000Y-104975000D03*
X132400000Y-125050000D03*
X130575000Y-93600000D03*
X133250000Y-73675000D03*
X107475000Y-120000000D03*
X141575000Y-100800000D03*
X140000000Y-132550000D03*
X173475000Y-126800000D03*
X157650000Y-72525000D03*
X144925000Y-122500000D03*
X154975000Y-114950000D03*
X167350000Y-73825000D03*
X124950000Y-125025000D03*
X159975000Y-112475000D03*
X172550000Y-135000000D03*
X127900000Y-92050000D03*
X140050000Y-125025000D03*
X120000000Y-75025000D03*
X110000000Y-122500000D03*
X150100000Y-77575000D03*
X107450000Y-90000000D03*
X142500000Y-137450000D03*
X152150000Y-98625000D03*
X107450000Y-106275000D03*
X131600000Y-86250000D03*
X129800000Y-120050000D03*
X158450000Y-74000000D03*
X130325000Y-107550000D03*
X144950000Y-139950000D03*
X150075000Y-59975000D03*
X150000000Y-112425000D03*
X140000000Y-105025000D03*
X127500000Y-52500000D03*
X127525000Y-125050000D03*
X153600000Y-133775000D03*
X165000000Y-100050000D03*
X147500000Y-57550000D03*
X162475000Y-122450000D03*
X172500000Y-49975000D03*
X124975000Y-117450000D03*
X145025000Y-114950000D03*
X153375000Y-73225000D03*
X164070000Y-133580000D03*
X140000000Y-134950000D03*
X130000000Y-130000000D03*
X169600000Y-92550000D03*
X165000000Y-137475000D03*
X120000000Y-77500000D03*
X152500000Y-117925000D03*
X115000000Y-139975000D03*
X157475000Y-117525000D03*
X154750000Y-80900000D03*
X123725000Y-79300000D03*
X173475000Y-119975000D03*
X152500000Y-120000000D03*
X150000000Y-82475000D03*
X110050000Y-135050000D03*
X169975000Y-70000000D03*
%TO.N,/PWM_W*%
X133590965Y-86968448D03*
%TO.N,+10V*%
X133775000Y-92275000D03*
X150250000Y-85125000D03*
X143525000Y-85725000D03*
X154025000Y-85125000D03*
%TO.N,+33V*%
X117350000Y-109175000D03*
X118050000Y-109175000D03*
X119800000Y-109825000D03*
X117700000Y-109825000D03*
X115250000Y-109175000D03*
X136020000Y-114850000D03*
X116300000Y-109825000D03*
X120825000Y-109175000D03*
X119450000Y-109175000D03*
X117000000Y-109825000D03*
X118750000Y-109175000D03*
X116650000Y-109175000D03*
X115950000Y-109175000D03*
X120125000Y-109175000D03*
X119100000Y-109825000D03*
X120475000Y-109825000D03*
X118400000Y-109825000D03*
X121175000Y-109825000D03*
X115600000Y-109825000D03*
%TO.N,/Vbatt*%
X137450000Y-97720000D03*
X158150000Y-98100000D03*
%TO.N,/POT*%
X153050000Y-106725000D03*
X156450000Y-103200000D03*
%TO.N,/ON*%
X156360000Y-137555000D03*
%TO.N,+5V_Fuse*%
X164000000Y-103950000D03*
X140580331Y-103419669D03*
X153575000Y-103425000D03*
X161800000Y-103950000D03*
X148129000Y-103425000D03*
%TD*%
D25*
%TO.N,/IN_U*%
X159750000Y-106700000D02*
X164075000Y-106700000D01*
X169400000Y-81210000D02*
X167400000Y-81210000D01*
X157000000Y-109450000D02*
X159750000Y-106700000D01*
X157000000Y-110330000D02*
X157000000Y-109450000D01*
X170430000Y-82240000D02*
X169400000Y-81210000D01*
X170430000Y-100345000D02*
X170430000Y-82240000D01*
X164075000Y-106700000D02*
X170430000Y-100345000D01*
%TO.N,/IN_W*%
X132851000Y-91774000D02*
X132851000Y-104274000D01*
X132851000Y-104274000D02*
X134774000Y-104274000D01*
X134774000Y-104274000D02*
X137075000Y-106575000D01*
X133650000Y-88475000D02*
X133650000Y-90975000D01*
X137075000Y-106575000D02*
X147635000Y-106575000D01*
X133650000Y-90975000D02*
X132851000Y-91774000D01*
X147635000Y-106575000D02*
X151920000Y-110860000D01*
%TO.N,/PWM_U*%
X169720000Y-80230000D02*
X167480000Y-80230000D01*
X162080000Y-110860000D02*
X162240000Y-110860000D01*
X171210000Y-101890000D02*
X171210000Y-81720000D01*
X162240000Y-110860000D02*
X171210000Y-101890000D01*
X171210000Y-81720000D02*
X169720000Y-80230000D01*
%TO.N,/IN_V*%
X163375000Y-96144182D02*
X163375000Y-101312925D01*
X163369000Y-95101818D02*
X163369000Y-96138182D01*
X154460000Y-110227925D02*
X154460000Y-110860000D01*
X145850000Y-79950000D02*
X151660000Y-79950000D01*
X151660000Y-79950000D02*
X163375000Y-91665000D01*
X163369000Y-96138182D02*
X163375000Y-96144182D01*
X163375000Y-91665000D02*
X163375000Y-95095818D01*
X145825000Y-79975000D02*
X145850000Y-79950000D01*
X163375000Y-95095818D02*
X163369000Y-95101818D01*
X163375000Y-101312925D02*
X154460000Y-110227925D01*
%TO.N,/PWM_V*%
X145631000Y-81331000D02*
X144762500Y-80462500D01*
X155325000Y-107525000D02*
X160829000Y-102021000D01*
X152031000Y-81331000D02*
X145631000Y-81331000D01*
X160829000Y-102021000D02*
X160829000Y-90129000D01*
X160325000Y-107500000D02*
X160325000Y-108050000D01*
X160829000Y-90129000D02*
X152031000Y-81331000D01*
X160325000Y-108050000D02*
X159540000Y-108835000D01*
X159540000Y-108835000D02*
X159540000Y-110860000D01*
D26*
%TO.N,+5V*%
X133137500Y-83662500D02*
X134450000Y-84975000D01*
D25*
X173865000Y-86900000D02*
X172320000Y-86900000D01*
D26*
X150475000Y-87375000D02*
X152125000Y-87375000D01*
D25*
X173890000Y-86875000D02*
X173865000Y-86900000D01*
D26*
X134450000Y-84975000D02*
X134450000Y-86700000D01*
D25*
%TO.N,/PWM_W*%
X132175000Y-90550058D02*
X132175000Y-93075000D01*
X146850000Y-107350000D02*
X149380000Y-109880000D01*
X130100000Y-105320000D02*
X132130000Y-107350000D01*
X130100000Y-95150000D02*
X130100000Y-105320000D01*
X132130000Y-107350000D02*
X146850000Y-107350000D01*
X133590965Y-86968448D02*
X132899000Y-87660413D01*
X132175000Y-93075000D02*
X130100000Y-95150000D01*
X132899000Y-89826058D02*
X132175000Y-90550058D01*
X149380000Y-109880000D02*
X149380000Y-110860000D01*
X132899000Y-87660413D02*
X132899000Y-89826058D01*
D27*
%TO.N,+10V*%
X150250000Y-85125000D02*
X154025000Y-85125000D01*
X133775000Y-92275000D02*
X140425000Y-85625000D01*
X140425000Y-85625000D02*
X143425000Y-85625000D01*
X143425000Y-85625000D02*
X143525000Y-85725000D01*
D28*
%TO.N,+33V*%
X136020000Y-114850000D02*
X134695000Y-113525000D01*
D25*
X117312755Y-96300000D02*
X117212755Y-96200000D01*
D28*
X121995000Y-113525000D02*
X121170000Y-112700000D01*
D25*
X168850000Y-60120000D02*
X168800000Y-60070000D01*
X117212755Y-95512755D02*
X117212755Y-96200000D01*
D28*
X121170000Y-112700000D02*
X117262755Y-112700000D01*
X134695000Y-113525000D02*
X121995000Y-113525000D01*
D25*
%TO.N,/Vbatt*%
X158100000Y-98150000D02*
X158150000Y-98100000D01*
X157770000Y-97720000D02*
X158100000Y-98050000D01*
X137450000Y-97720000D02*
X157770000Y-97720000D01*
%TO.N,/POT*%
X153320000Y-106455000D02*
X153320000Y-106400000D01*
X153050000Y-106725000D02*
X153320000Y-106455000D01*
X156450000Y-103270000D02*
X156450000Y-103200000D01*
X153320000Y-106400000D02*
X156450000Y-103270000D01*
%TO.N,/ON*%
X171200000Y-135560000D02*
X171200000Y-127825000D01*
X156360000Y-137555000D02*
X156385000Y-137530000D01*
X158320000Y-137530000D02*
X160470000Y-139680000D01*
X167060000Y-139700000D02*
X171200000Y-135560000D01*
X160470000Y-139680000D02*
X167040000Y-139680000D01*
X167040000Y-139680000D02*
X167060000Y-139700000D01*
X156385000Y-137530000D02*
X158320000Y-137530000D01*
%TO.N,+5V_Fuse*%
X140580331Y-103419669D02*
X140585662Y-103425000D01*
X164000000Y-103950000D02*
X161800000Y-103950000D01*
X148129000Y-103425000D02*
X153575000Y-103425000D01*
X140585662Y-103425000D02*
X148129000Y-103425000D01*
%TD*%
%TA.AperFunction,Conductor*%
%TO.N,GND*%
G36*
X138550000Y-139125000D02*
G01*
X131300000Y-139125000D01*
X131300000Y-132125000D01*
X138550000Y-132125000D01*
X138550000Y-139125000D01*
G37*
%TD.AperFunction*%
%TD*%
%TA.AperFunction,Conductor*%
%TO.N,GND*%
G36*
X130718448Y-96342636D02*
G01*
X130738064Y-96342636D01*
X130755051Y-96352443D01*
X130774000Y-96357521D01*
X130804854Y-96381196D01*
X130883072Y-96459414D01*
X130883075Y-96459416D01*
X131022461Y-96560687D01*
X131023212Y-96561232D01*
X131177555Y-96639873D01*
X131342299Y-96693402D01*
X131513389Y-96720500D01*
X131513393Y-96720500D01*
X131686607Y-96720500D01*
X131686611Y-96720500D01*
X131857701Y-96693402D01*
X132022445Y-96639873D01*
X132176788Y-96561232D01*
X132176794Y-96561228D01*
X132182003Y-96558574D01*
X132182935Y-96560404D01*
X132247594Y-96541250D01*
X132322592Y-96559253D01*
X132378541Y-96612342D01*
X132400449Y-96686293D01*
X132400500Y-96690199D01*
X132400500Y-104214691D01*
X132400500Y-104333309D01*
X132426547Y-104430519D01*
X132431202Y-104447889D01*
X132490506Y-104550606D01*
X132490509Y-104550610D01*
X132490511Y-104550613D01*
X132574387Y-104634489D01*
X132574389Y-104634490D01*
X132574393Y-104634493D01*
X132677110Y-104693797D01*
X132677111Y-104693797D01*
X132677114Y-104693799D01*
X132791691Y-104724500D01*
X134525679Y-104724500D01*
X134600179Y-104744462D01*
X134631038Y-104768141D01*
X136508038Y-106645141D01*
X136546602Y-106711936D01*
X136546602Y-106789064D01*
X136508038Y-106855859D01*
X136441243Y-106894423D01*
X136402679Y-106899500D01*
X132378321Y-106899500D01*
X132303821Y-106879538D01*
X132272962Y-106855859D01*
X130594141Y-105177038D01*
X130555577Y-105110243D01*
X130550500Y-105071679D01*
X130550500Y-96486559D01*
X130555577Y-96467611D01*
X130555577Y-96447995D01*
X130565384Y-96431007D01*
X130570462Y-96412059D01*
X130584333Y-96398187D01*
X130594141Y-96381200D01*
X130611128Y-96371392D01*
X130625000Y-96357521D01*
X130643948Y-96352443D01*
X130660936Y-96342636D01*
X130680552Y-96342636D01*
X130699500Y-96337559D01*
X130718448Y-96342636D01*
G37*
%TD.AperFunction*%
%TA.AperFunction,Conductor*%
G36*
X162836103Y-96523038D02*
G01*
X162896043Y-96571576D01*
X162923684Y-96643581D01*
X162924500Y-96659157D01*
X162924500Y-101064603D01*
X162904538Y-101139103D01*
X162880859Y-101169962D01*
X156066374Y-107984446D01*
X155999579Y-108023010D01*
X155922451Y-108023010D01*
X155855656Y-107984446D01*
X155817092Y-107917651D01*
X155817092Y-107840523D01*
X155820749Y-107828822D01*
X155825269Y-107816206D01*
X155859577Y-107756784D01*
X155898146Y-107612842D01*
X155900212Y-107607077D01*
X155918799Y-107580248D01*
X155935117Y-107551985D01*
X161189489Y-102297614D01*
X161248798Y-102194887D01*
X161248799Y-102194886D01*
X161279500Y-102080309D01*
X161279500Y-96690199D01*
X161299462Y-96615699D01*
X161354000Y-96561161D01*
X161428500Y-96541199D01*
X161497438Y-96559670D01*
X161497997Y-96558574D01*
X161503206Y-96561228D01*
X161503212Y-96561232D01*
X161657555Y-96639873D01*
X161822299Y-96693402D01*
X161993389Y-96720500D01*
X161993393Y-96720500D01*
X162166607Y-96720500D01*
X162166611Y-96720500D01*
X162337701Y-96693402D01*
X162502445Y-96639873D01*
X162656788Y-96561232D01*
X162687919Y-96538614D01*
X162759924Y-96510973D01*
X162836103Y-96523038D01*
G37*
%TD.AperFunction*%
%TA.AperFunction,Conductor*%
G36*
X171504143Y-43895462D02*
G01*
X171558681Y-43950000D01*
X171578643Y-44024500D01*
X171558681Y-44099000D01*
X171508915Y-44150662D01*
X171297506Y-44283498D01*
X171297500Y-44283502D01*
X171077425Y-44459006D01*
X170878389Y-44658042D01*
X170702885Y-44878116D01*
X170553131Y-45116450D01*
X170431003Y-45370050D01*
X170431001Y-45370056D01*
X170338034Y-45635742D01*
X170338032Y-45635750D01*
X170338030Y-45635757D01*
X170275399Y-45910159D01*
X170243883Y-46189876D01*
X170243883Y-46471357D01*
X170275399Y-46751074D01*
X170338030Y-47025476D01*
X170338034Y-47025492D01*
X170392689Y-47181687D01*
X170431000Y-47291174D01*
X170431003Y-47291183D01*
X170553131Y-47544783D01*
X170702885Y-47783117D01*
X170878389Y-48003191D01*
X171077425Y-48202227D01*
X171297499Y-48377731D01*
X171456388Y-48477567D01*
X171535834Y-48527486D01*
X171789439Y-48649616D01*
X172055125Y-48742583D01*
X172201714Y-48776040D01*
X172329542Y-48805217D01*
X172329545Y-48805217D01*
X172329548Y-48805218D01*
X172609259Y-48836734D01*
X172890741Y-48836734D01*
X173170452Y-48805218D01*
X173170455Y-48805217D01*
X173170457Y-48805217D01*
X173219315Y-48794065D01*
X173444875Y-48742583D01*
X173710561Y-48649616D01*
X173964166Y-48527486D01*
X174202503Y-48377729D01*
X174422574Y-48202228D01*
X174621611Y-48003191D01*
X174797112Y-47783120D01*
X174918275Y-47590290D01*
X174924338Y-47580641D01*
X174980877Y-47528180D01*
X175056071Y-47511017D01*
X175129772Y-47533751D01*
X175182233Y-47590290D01*
X175199500Y-47659913D01*
X175199500Y-138192258D01*
X175179538Y-138266758D01*
X175125000Y-138321296D01*
X175050500Y-138341258D01*
X174976000Y-138321296D01*
X174921462Y-138266758D01*
X174907327Y-138233519D01*
X174906351Y-138230135D01*
X174906349Y-138230125D01*
X174813382Y-137964439D01*
X174691252Y-137710834D01*
X174580425Y-137534453D01*
X174541497Y-137472499D01*
X174365993Y-137252425D01*
X174166957Y-137053389D01*
X173946883Y-136877885D01*
X173708549Y-136728131D01*
X173454949Y-136606003D01*
X173454946Y-136606002D01*
X173454944Y-136606001D01*
X173189258Y-136513034D01*
X173189246Y-136513031D01*
X173189242Y-136513030D01*
X172914840Y-136450399D01*
X172635124Y-136418883D01*
X172353642Y-136418883D01*
X172073925Y-136450399D01*
X171799523Y-136513030D01*
X171799516Y-136513032D01*
X171799508Y-136513034D01*
X171549875Y-136600384D01*
X171533825Y-136606000D01*
X171533816Y-136606003D01*
X171280216Y-136728131D01*
X171041882Y-136877885D01*
X170821808Y-137053389D01*
X170622772Y-137252425D01*
X170447268Y-137472499D01*
X170297514Y-137710833D01*
X170175386Y-137964433D01*
X170175384Y-137964439D01*
X170082417Y-138230125D01*
X170082415Y-138230133D01*
X170082413Y-138230140D01*
X170019782Y-138504542D01*
X169988266Y-138784259D01*
X169988266Y-139065740D01*
X170019782Y-139345457D01*
X170067467Y-139554376D01*
X170082417Y-139619875D01*
X170175383Y-139885557D01*
X170175386Y-139885566D01*
X170297514Y-140139166D01*
X170447268Y-140377500D01*
X170622772Y-140597574D01*
X170821808Y-140796610D01*
X171041882Y-140972114D01*
X171200771Y-141071950D01*
X171280217Y-141121869D01*
X171496447Y-141226000D01*
X171528126Y-141241256D01*
X171586587Y-141291566D01*
X171612060Y-141364366D01*
X171597721Y-141440149D01*
X171547411Y-141498610D01*
X171474611Y-141524083D01*
X171463477Y-141524500D01*
X131480475Y-141524500D01*
X131405975Y-141504538D01*
X131351437Y-141450000D01*
X131331475Y-141375500D01*
X131336551Y-141336938D01*
X131345091Y-141305068D01*
X131346869Y-141291566D01*
X131355499Y-141226007D01*
X131355500Y-141226000D01*
X131355500Y-139342183D01*
X131354920Y-139323391D01*
X131353790Y-139305066D01*
X131332002Y-139209134D01*
X131326111Y-139194601D01*
X131320892Y-139179417D01*
X131305688Y-139125979D01*
X131305551Y-139125000D01*
X138550000Y-139125000D01*
X138550000Y-137475941D01*
X155759500Y-137475941D01*
X155759500Y-137634058D01*
X155761542Y-137641677D01*
X155800423Y-137786784D01*
X155879480Y-137923716D01*
X155991284Y-138035520D01*
X156128216Y-138114577D01*
X156280943Y-138155500D01*
X156439057Y-138155500D01*
X156591784Y-138114577D01*
X156728716Y-138035520D01*
X156740095Y-138024141D01*
X156806890Y-137985577D01*
X156845454Y-137980500D01*
X158071679Y-137980500D01*
X158146179Y-138000462D01*
X158177038Y-138024141D01*
X160193386Y-140040489D01*
X160193388Y-140040490D01*
X160193389Y-140040491D01*
X160296115Y-140099800D01*
X160310424Y-140103633D01*
X160320317Y-140106283D01*
X160320324Y-140106287D01*
X160320325Y-140106286D01*
X160344539Y-140112774D01*
X160410691Y-140130500D01*
X166906436Y-140130500D01*
X166944998Y-140135576D01*
X167000691Y-140150499D01*
X167000693Y-140150499D01*
X167119307Y-140150499D01*
X167119309Y-140150499D01*
X167119311Y-140150498D01*
X167119314Y-140150498D01*
X167233884Y-140119800D01*
X167233884Y-140119799D01*
X167233887Y-140119799D01*
X167336614Y-140060489D01*
X171560489Y-135836614D01*
X171619799Y-135733887D01*
X171620483Y-135731330D01*
X171626285Y-135709679D01*
X171626286Y-135709675D01*
X171634734Y-135678144D01*
X171650500Y-135619309D01*
X171650500Y-129124500D01*
X171670462Y-129050000D01*
X171725000Y-128995462D01*
X171799500Y-128975500D01*
X172043101Y-128975500D01*
X172043102Y-128975500D01*
X172131564Y-128964877D01*
X172272342Y-128909361D01*
X172392922Y-128817922D01*
X172484361Y-128697342D01*
X172539877Y-128556564D01*
X172550500Y-128468102D01*
X172550500Y-127181898D01*
X172539877Y-127093436D01*
X172484361Y-126952658D01*
X172392922Y-126832078D01*
X172392920Y-126832076D01*
X172345982Y-126796482D01*
X172272342Y-126740639D01*
X172272341Y-126740638D01*
X172131563Y-126685122D01*
X172043105Y-126674500D01*
X172043102Y-126674500D01*
X170506898Y-126674500D01*
X170506894Y-126674500D01*
X170418436Y-126685122D01*
X170277658Y-126740638D01*
X170277658Y-126740639D01*
X170157079Y-126832076D01*
X170157076Y-126832079D01*
X170065639Y-126952658D01*
X170065638Y-126952658D01*
X170010122Y-127093436D01*
X169999500Y-127181894D01*
X169999500Y-128468105D01*
X170010122Y-128556563D01*
X170065638Y-128697341D01*
X170065639Y-128697342D01*
X170157078Y-128817922D01*
X170277658Y-128909361D01*
X170418436Y-128964877D01*
X170506898Y-128975500D01*
X170600500Y-128975500D01*
X170675000Y-128995462D01*
X170729538Y-129050000D01*
X170749500Y-129124500D01*
X170749500Y-135311679D01*
X170729538Y-135386179D01*
X170705859Y-135417038D01*
X166937038Y-139185859D01*
X166870243Y-139224423D01*
X166831679Y-139229500D01*
X160718321Y-139229500D01*
X160643821Y-139209538D01*
X160612962Y-139185859D01*
X159619361Y-138192258D01*
X158596614Y-137169511D01*
X158596611Y-137169509D01*
X158596607Y-137169506D01*
X158493888Y-137110201D01*
X158493887Y-137110200D01*
X158472130Y-137104371D01*
X158467861Y-137103227D01*
X158467858Y-137103225D01*
X158467858Y-137103226D01*
X158379309Y-137079500D01*
X156777335Y-137079500D01*
X156702835Y-137059538D01*
X156591784Y-136995423D01*
X156439057Y-136954500D01*
X156280943Y-136954500D01*
X156128216Y-136995423D01*
X156128214Y-136995423D01*
X156128214Y-136995424D01*
X155991283Y-137074480D01*
X155879480Y-137186283D01*
X155800424Y-137323214D01*
X155759500Y-137475941D01*
X138550000Y-137475941D01*
X138550000Y-132125000D01*
X131305334Y-132125000D01*
X131314471Y-132094674D01*
X131325128Y-132069499D01*
X131325127Y-132069499D01*
X131325129Y-132069497D01*
X131345091Y-131994997D01*
X131355500Y-131915929D01*
X131355500Y-131524000D01*
X131345091Y-131444932D01*
X131325129Y-131370432D01*
X131325128Y-131370430D01*
X131325123Y-131370412D01*
X131309509Y-131326106D01*
X131309508Y-131326102D01*
X131246059Y-131233479D01*
X131191521Y-131178941D01*
X131155828Y-131148361D01*
X131087185Y-131115490D01*
X131054569Y-131099871D01*
X130980075Y-131079910D01*
X130980055Y-131079906D01*
X130901007Y-131069500D01*
X130901000Y-131069500D01*
X120420064Y-131069500D01*
X120345564Y-131049538D01*
X120291026Y-130995000D01*
X120271064Y-130920500D01*
X120291026Y-130846000D01*
X120314705Y-130815141D01*
X120419956Y-130709890D01*
X120583587Y-130496641D01*
X120717984Y-130263859D01*
X120820847Y-130015526D01*
X120890416Y-129755891D01*
X120925500Y-129489397D01*
X120925500Y-129220603D01*
X120890416Y-128954109D01*
X120820847Y-128694474D01*
X120717984Y-128446141D01*
X120583587Y-128213359D01*
X120419956Y-128000110D01*
X120229890Y-127810044D01*
X120165227Y-127760427D01*
X120016643Y-127646414D01*
X119783863Y-127512018D01*
X119783861Y-127512017D01*
X119783859Y-127512016D01*
X119638392Y-127451761D01*
X119535529Y-127409154D01*
X119535527Y-127409153D01*
X119535526Y-127409153D01*
X119405708Y-127374368D01*
X119275888Y-127339583D01*
X119275875Y-127339581D01*
X119009402Y-127304500D01*
X119009397Y-127304500D01*
X118740603Y-127304500D01*
X118740597Y-127304500D01*
X118474124Y-127339581D01*
X118474111Y-127339583D01*
X118214470Y-127409154D01*
X117966136Y-127512018D01*
X117733356Y-127646414D01*
X117520108Y-127810045D01*
X117330045Y-128000108D01*
X117166414Y-128213356D01*
X117032018Y-128446136D01*
X116929154Y-128694470D01*
X116859583Y-128954111D01*
X116859581Y-128954124D01*
X116824500Y-129220597D01*
X116824500Y-129489402D01*
X116859581Y-129755875D01*
X116859583Y-129755888D01*
X116929154Y-130015529D01*
X117032018Y-130263863D01*
X117166414Y-130496643D01*
X117330045Y-130709891D01*
X117435295Y-130815141D01*
X117473859Y-130881936D01*
X117473859Y-130959064D01*
X117435295Y-131025859D01*
X117368500Y-131064423D01*
X117329936Y-131069500D01*
X116448992Y-131069500D01*
X116369944Y-131079906D01*
X116369924Y-131079910D01*
X116295432Y-131099870D01*
X116295412Y-131099876D01*
X116251106Y-131115490D01*
X116251099Y-131115493D01*
X116158476Y-131178943D01*
X116103942Y-131233477D01*
X116073361Y-131269172D01*
X116024871Y-131370430D01*
X116004910Y-131444924D01*
X116004906Y-131444944D01*
X115994500Y-131523992D01*
X115994500Y-141226007D01*
X116004906Y-141305055D01*
X116004908Y-141305067D01*
X116009521Y-141322283D01*
X116013448Y-141336936D01*
X116013448Y-141414063D01*
X115974885Y-141480858D01*
X115908091Y-141519423D01*
X115869525Y-141524500D01*
X108418884Y-141524500D01*
X108344384Y-141504538D01*
X108289846Y-141450000D01*
X108269884Y-141375500D01*
X108289846Y-141301000D01*
X108344384Y-141246462D01*
X108356850Y-141240313D01*
X108356794Y-141240196D01*
X108360561Y-141238382D01*
X108614166Y-141116252D01*
X108827923Y-140981939D01*
X108852500Y-140966497D01*
X108852503Y-140966495D01*
X109072574Y-140790994D01*
X109271611Y-140591957D01*
X109447112Y-140371886D01*
X109596869Y-140133549D01*
X109718999Y-139879944D01*
X109811966Y-139614258D01*
X109874601Y-139339835D01*
X109906117Y-139060124D01*
X109906117Y-138778642D01*
X109874601Y-138498931D01*
X109811966Y-138224508D01*
X109718999Y-137958822D01*
X109596869Y-137705217D01*
X109452807Y-137475943D01*
X109447114Y-137466882D01*
X109276090Y-137252426D01*
X109271611Y-137246809D01*
X109072574Y-137047772D01*
X108955615Y-136954500D01*
X108852500Y-136872268D01*
X108614166Y-136722514D01*
X108360566Y-136600386D01*
X108360563Y-136600385D01*
X108360561Y-136600384D01*
X108094875Y-136507417D01*
X108094863Y-136507414D01*
X108094859Y-136507413D01*
X107820457Y-136444782D01*
X107540741Y-136413266D01*
X107259259Y-136413266D01*
X106979542Y-136444782D01*
X106705140Y-136507413D01*
X106705133Y-136507415D01*
X106705125Y-136507417D01*
X106439442Y-136600383D01*
X106439433Y-136600386D01*
X106185833Y-136722514D01*
X105947499Y-136872268D01*
X105727425Y-137047772D01*
X105528389Y-137246808D01*
X105352885Y-137466882D01*
X105203131Y-137705216D01*
X105083744Y-137953126D01*
X105033434Y-138011587D01*
X104960634Y-138037060D01*
X104884851Y-138022721D01*
X104826390Y-137972411D01*
X104800917Y-137899611D01*
X104800500Y-137888477D01*
X104800500Y-124140597D01*
X116824500Y-124140597D01*
X116824500Y-124409402D01*
X116859581Y-124675875D01*
X116859583Y-124675888D01*
X116929154Y-124935529D01*
X117032018Y-125183863D01*
X117166414Y-125416643D01*
X117280427Y-125565227D01*
X117330044Y-125629890D01*
X117520110Y-125819956D01*
X117733359Y-125983587D01*
X117966141Y-126117984D01*
X118214474Y-126220847D01*
X118474109Y-126290416D01*
X118740603Y-126325500D01*
X119009397Y-126325500D01*
X119275891Y-126290416D01*
X119535526Y-126220847D01*
X119783859Y-126117984D01*
X120016641Y-125983587D01*
X120229890Y-125819956D01*
X120419956Y-125629890D01*
X120583587Y-125416641D01*
X120717984Y-125183859D01*
X120820847Y-124935526D01*
X120890416Y-124675891D01*
X120925500Y-124409397D01*
X120925500Y-124140603D01*
X120890416Y-123874109D01*
X120820847Y-123614474D01*
X120717984Y-123366141D01*
X120583587Y-123133359D01*
X120419956Y-122920110D01*
X120229890Y-122730044D01*
X120165227Y-122680427D01*
X120016643Y-122566414D01*
X119783863Y-122432018D01*
X119783861Y-122432017D01*
X119783859Y-122432016D01*
X119638392Y-122371761D01*
X119535529Y-122329154D01*
X119535527Y-122329153D01*
X119535526Y-122329153D01*
X119405708Y-122294368D01*
X119275888Y-122259583D01*
X119275875Y-122259581D01*
X119009402Y-122224500D01*
X119009397Y-122224500D01*
X118740603Y-122224500D01*
X118740597Y-122224500D01*
X118474124Y-122259581D01*
X118474111Y-122259583D01*
X118214470Y-122329154D01*
X117966136Y-122432018D01*
X117733356Y-122566414D01*
X117520108Y-122730045D01*
X117330045Y-122920108D01*
X117166414Y-123133356D01*
X117032018Y-123366136D01*
X116929154Y-123614470D01*
X116859583Y-123874111D01*
X116859581Y-123874124D01*
X116824500Y-124140597D01*
X104800500Y-124140597D01*
X104800500Y-117734454D01*
X169999500Y-117734454D01*
X169999500Y-117915546D01*
X170027829Y-118094409D01*
X170083789Y-118266639D01*
X170166004Y-118427994D01*
X170272447Y-118574501D01*
X170400499Y-118702553D01*
X170547006Y-118808996D01*
X170708361Y-118891211D01*
X170830332Y-118930841D01*
X170837875Y-118933292D01*
X170902560Y-118975299D01*
X170937576Y-119044020D01*
X170933540Y-119121043D01*
X170891533Y-119185728D01*
X170837875Y-119216708D01*
X170708360Y-119258789D01*
X170547004Y-119341005D01*
X170547003Y-119341005D01*
X170400500Y-119447446D01*
X170400497Y-119447448D01*
X170272448Y-119575497D01*
X170272446Y-119575500D01*
X170166005Y-119722003D01*
X170166005Y-119722004D01*
X170083789Y-119883360D01*
X170083789Y-119883361D01*
X170027829Y-120055591D01*
X169999500Y-120234454D01*
X169999500Y-120415546D01*
X170027829Y-120594409D01*
X170083789Y-120766639D01*
X170166004Y-120927994D01*
X170272447Y-121074501D01*
X170400499Y-121202553D01*
X170547006Y-121308996D01*
X170708361Y-121391211D01*
X170830332Y-121430841D01*
X170837875Y-121433292D01*
X170902560Y-121475299D01*
X170937576Y-121544020D01*
X170933540Y-121621043D01*
X170891533Y-121685728D01*
X170837875Y-121716708D01*
X170708360Y-121758789D01*
X170547004Y-121841005D01*
X170547003Y-121841005D01*
X170400500Y-121947446D01*
X170400497Y-121947448D01*
X170272448Y-122075497D01*
X170272446Y-122075500D01*
X170166005Y-122222003D01*
X170166005Y-122222004D01*
X170083789Y-122383360D01*
X170027829Y-122555591D01*
X169999500Y-122734454D01*
X169999500Y-122915546D01*
X170027829Y-123094409D01*
X170083789Y-123266639D01*
X170166004Y-123427994D01*
X170272447Y-123574501D01*
X170400499Y-123702553D01*
X170547006Y-123808996D01*
X170708361Y-123891211D01*
X170880591Y-123947171D01*
X171059454Y-123975500D01*
X171059458Y-123975500D01*
X171490542Y-123975500D01*
X171490546Y-123975500D01*
X171669409Y-123947171D01*
X171841639Y-123891211D01*
X172002994Y-123808996D01*
X172149501Y-123702553D01*
X172277553Y-123574501D01*
X172383996Y-123427994D01*
X172466211Y-123266639D01*
X172522171Y-123094409D01*
X172550500Y-122915546D01*
X172550500Y-122734454D01*
X172522171Y-122555591D01*
X172466211Y-122383361D01*
X172383996Y-122222006D01*
X172277553Y-122075499D01*
X172149501Y-121947447D01*
X172002994Y-121841004D01*
X171922316Y-121799896D01*
X171841638Y-121758788D01*
X171712125Y-121716708D01*
X171647439Y-121674701D01*
X171612423Y-121605980D01*
X171616459Y-121528958D01*
X171658466Y-121464272D01*
X171712125Y-121433292D01*
X171726870Y-121428500D01*
X171841639Y-121391211D01*
X172002994Y-121308996D01*
X172149501Y-121202553D01*
X172277553Y-121074501D01*
X172383996Y-120927994D01*
X172466211Y-120766639D01*
X172522171Y-120594409D01*
X172550500Y-120415546D01*
X172550500Y-120234454D01*
X172522171Y-120055591D01*
X172466211Y-119883361D01*
X172383996Y-119722006D01*
X172277553Y-119575499D01*
X172149501Y-119447447D01*
X172002994Y-119341004D01*
X171922316Y-119299896D01*
X171841638Y-119258788D01*
X171712125Y-119216708D01*
X171647439Y-119174701D01*
X171612423Y-119105980D01*
X171616459Y-119028958D01*
X171658466Y-118964272D01*
X171712125Y-118933292D01*
X171726870Y-118928500D01*
X171841639Y-118891211D01*
X172002994Y-118808996D01*
X172149501Y-118702553D01*
X172277553Y-118574501D01*
X172383996Y-118427994D01*
X172466211Y-118266639D01*
X172522171Y-118094409D01*
X172550500Y-117915546D01*
X172550500Y-117734454D01*
X172522171Y-117555591D01*
X172466211Y-117383361D01*
X172383996Y-117222006D01*
X172277553Y-117075499D01*
X172149501Y-116947447D01*
X172002994Y-116841004D01*
X171841639Y-116758789D01*
X171669409Y-116702829D01*
X171490546Y-116674500D01*
X171059454Y-116674500D01*
X170880591Y-116702829D01*
X170708360Y-116758789D01*
X170547004Y-116841005D01*
X170547003Y-116841005D01*
X170400500Y-116947446D01*
X170400497Y-116947448D01*
X170272448Y-117075497D01*
X170272446Y-117075500D01*
X170166005Y-117222003D01*
X170166005Y-117222004D01*
X170083789Y-117383360D01*
X170083789Y-117383361D01*
X170027829Y-117555591D01*
X169999500Y-117734454D01*
X104800500Y-117734454D01*
X104800500Y-96102225D01*
X113945070Y-96102225D01*
X113945107Y-96121576D01*
X113945107Y-96121580D01*
X113945180Y-96161226D01*
X113947564Y-97448409D01*
X113947670Y-97505500D01*
X113947670Y-97505501D01*
X113973384Y-111394500D01*
X113973492Y-111452721D01*
X113975656Y-112621575D01*
X113975656Y-112621577D01*
X113975729Y-112661226D01*
X113978112Y-113948408D01*
X113978218Y-114005500D01*
X113978218Y-114005501D01*
X113979865Y-114895245D01*
X113986882Y-114959778D01*
X113998054Y-115010993D01*
X114008893Y-115048798D01*
X114008895Y-115048804D01*
X114065503Y-115145759D01*
X114072242Y-115153548D01*
X114111221Y-115198600D01*
X114155921Y-115240809D01*
X114255964Y-115291771D01*
X114322984Y-115311503D01*
X114322985Y-115311503D01*
X114322988Y-115311504D01*
X114409048Y-115323942D01*
X123180013Y-115330393D01*
X123199383Y-115330408D01*
X123199383Y-115330407D01*
X123199386Y-115330408D01*
X123264676Y-115323399D01*
X123316456Y-115312112D01*
X123354990Y-115301019D01*
X123451814Y-115244187D01*
X123504546Y-115198349D01*
X123546655Y-115153548D01*
X123597383Y-115053391D01*
X123616962Y-114986321D01*
X123629202Y-114900232D01*
X123628139Y-114224734D01*
X123647984Y-114150203D01*
X123702436Y-114095580D01*
X123776905Y-114075500D01*
X134405257Y-114075500D01*
X134479757Y-114095462D01*
X134510616Y-114119141D01*
X135430390Y-115038915D01*
X135453985Y-115074225D01*
X135455541Y-115073328D01*
X135527717Y-115198343D01*
X135539480Y-115218716D01*
X135651284Y-115330520D01*
X135788216Y-115409577D01*
X135940943Y-115450500D01*
X136099057Y-115450500D01*
X136251784Y-115409577D01*
X136388716Y-115330520D01*
X136500520Y-115218716D01*
X136579577Y-115081784D01*
X136620500Y-114929057D01*
X136620500Y-114770943D01*
X136579577Y-114618216D01*
X136500520Y-114481284D01*
X136388716Y-114369480D01*
X136388715Y-114369479D01*
X136243328Y-114285541D01*
X136244225Y-114283985D01*
X136208915Y-114260390D01*
X135033015Y-113084490D01*
X134907485Y-113012016D01*
X134842115Y-112994500D01*
X134842113Y-112994499D01*
X134767475Y-112974500D01*
X123774937Y-112974500D01*
X123700437Y-112954538D01*
X123645899Y-112900000D01*
X123625937Y-112825735D01*
X123622361Y-110554338D01*
X123621512Y-110015135D01*
X130499500Y-110015135D01*
X130499500Y-110015136D01*
X130499500Y-110015140D01*
X130499500Y-111704866D01*
X130502414Y-111729989D01*
X130502415Y-111729992D01*
X130547793Y-111832764D01*
X130547794Y-111832765D01*
X130627235Y-111912206D01*
X130730009Y-111957585D01*
X130755135Y-111960500D01*
X132444864Y-111960499D01*
X132444866Y-111960499D01*
X132457427Y-111959042D01*
X132469991Y-111957585D01*
X132572765Y-111912206D01*
X132652206Y-111832765D01*
X132697585Y-111729991D01*
X132700500Y-111704865D01*
X132700499Y-110773389D01*
X133039500Y-110773389D01*
X133039500Y-110946611D01*
X133051137Y-111020086D01*
X133066597Y-111117700D01*
X133104653Y-111234821D01*
X133120127Y-111282445D01*
X133177222Y-111394500D01*
X133198771Y-111436793D01*
X133300583Y-111576924D01*
X133300586Y-111576928D01*
X133423072Y-111699414D01*
X133563212Y-111801232D01*
X133717555Y-111879873D01*
X133882299Y-111933402D01*
X134053389Y-111960500D01*
X134053393Y-111960500D01*
X134226607Y-111960500D01*
X134226611Y-111960500D01*
X134397701Y-111933402D01*
X134562445Y-111879873D01*
X134716788Y-111801232D01*
X134856928Y-111699414D01*
X134979414Y-111576928D01*
X135081232Y-111436788D01*
X135159873Y-111282445D01*
X135213402Y-111117701D01*
X135240500Y-110946611D01*
X135240500Y-110773389D01*
X135579500Y-110773389D01*
X135579500Y-110946611D01*
X135591137Y-111020086D01*
X135606597Y-111117700D01*
X135644653Y-111234821D01*
X135660127Y-111282445D01*
X135717222Y-111394500D01*
X135738771Y-111436793D01*
X135840583Y-111576924D01*
X135840586Y-111576928D01*
X135963072Y-111699414D01*
X136103212Y-111801232D01*
X136257555Y-111879873D01*
X136422299Y-111933402D01*
X136593389Y-111960500D01*
X136593393Y-111960500D01*
X136766607Y-111960500D01*
X136766611Y-111960500D01*
X136937701Y-111933402D01*
X137102445Y-111879873D01*
X137256788Y-111801232D01*
X137396928Y-111699414D01*
X137519414Y-111576928D01*
X137621232Y-111436788D01*
X137699873Y-111282445D01*
X137753402Y-111117701D01*
X137780500Y-110946611D01*
X137780500Y-110773389D01*
X140659500Y-110773389D01*
X140659500Y-110946611D01*
X140671137Y-111020086D01*
X140686597Y-111117700D01*
X140724653Y-111234821D01*
X140740127Y-111282445D01*
X140797222Y-111394500D01*
X140818771Y-111436793D01*
X140920583Y-111576924D01*
X140920586Y-111576928D01*
X141043072Y-111699414D01*
X141183212Y-111801232D01*
X141337555Y-111879873D01*
X141502299Y-111933402D01*
X141673389Y-111960500D01*
X141673393Y-111960500D01*
X141846607Y-111960500D01*
X141846611Y-111960500D01*
X142017701Y-111933402D01*
X142182445Y-111879873D01*
X142336788Y-111801232D01*
X142476928Y-111699414D01*
X142599414Y-111576928D01*
X142701232Y-111436788D01*
X142779873Y-111282445D01*
X142833402Y-111117701D01*
X142860500Y-110946611D01*
X142860500Y-110773389D01*
X143199500Y-110773389D01*
X143199500Y-110946611D01*
X143211137Y-111020086D01*
X143226597Y-111117700D01*
X143264653Y-111234821D01*
X143280127Y-111282445D01*
X143337222Y-111394500D01*
X143358771Y-111436793D01*
X143460583Y-111576924D01*
X143460586Y-111576928D01*
X143583072Y-111699414D01*
X143723212Y-111801232D01*
X143877555Y-111879873D01*
X144042299Y-111933402D01*
X144213389Y-111960500D01*
X144213393Y-111960500D01*
X144386607Y-111960500D01*
X144386611Y-111960500D01*
X144557701Y-111933402D01*
X144722445Y-111879873D01*
X144876788Y-111801232D01*
X145016928Y-111699414D01*
X145139414Y-111576928D01*
X145241232Y-111436788D01*
X145319873Y-111282445D01*
X145373402Y-111117701D01*
X145400500Y-110946611D01*
X145400500Y-110773389D01*
X145739500Y-110773389D01*
X145739500Y-110946611D01*
X145751137Y-111020086D01*
X145766597Y-111117700D01*
X145804653Y-111234821D01*
X145820127Y-111282445D01*
X145877222Y-111394500D01*
X145898771Y-111436793D01*
X146000583Y-111576924D01*
X146000586Y-111576928D01*
X146123072Y-111699414D01*
X146263212Y-111801232D01*
X146417555Y-111879873D01*
X146582299Y-111933402D01*
X146753389Y-111960500D01*
X146753393Y-111960500D01*
X146926607Y-111960500D01*
X146926611Y-111960500D01*
X147097701Y-111933402D01*
X147262445Y-111879873D01*
X147416788Y-111801232D01*
X147556928Y-111699414D01*
X147679414Y-111576928D01*
X147781232Y-111436788D01*
X147859873Y-111282445D01*
X147913402Y-111117701D01*
X147940500Y-110946611D01*
X147940500Y-110773389D01*
X147913402Y-110602299D01*
X147859873Y-110437555D01*
X147781232Y-110283212D01*
X147679414Y-110143072D01*
X147556928Y-110020586D01*
X147549427Y-110015136D01*
X147416793Y-109918771D01*
X147416790Y-109918769D01*
X147416788Y-109918768D01*
X147262445Y-109840127D01*
X147202628Y-109820691D01*
X147097700Y-109786597D01*
X147000086Y-109771137D01*
X146926611Y-109759500D01*
X146753389Y-109759500D01*
X146687037Y-109770009D01*
X146582299Y-109786597D01*
X146425292Y-109837613D01*
X146417555Y-109840127D01*
X146417549Y-109840129D01*
X146417549Y-109840130D01*
X146263206Y-109918771D01*
X146123075Y-110020583D01*
X146000583Y-110143075D01*
X145898771Y-110283206D01*
X145820130Y-110437549D01*
X145820125Y-110437561D01*
X145766597Y-110602299D01*
X145748228Y-110718282D01*
X145739500Y-110773389D01*
X145400500Y-110773389D01*
X145373402Y-110602299D01*
X145319873Y-110437555D01*
X145241232Y-110283212D01*
X145139414Y-110143072D01*
X145016928Y-110020586D01*
X145009427Y-110015136D01*
X144876793Y-109918771D01*
X144876790Y-109918769D01*
X144876788Y-109918768D01*
X144722445Y-109840127D01*
X144662628Y-109820691D01*
X144557700Y-109786597D01*
X144460086Y-109771137D01*
X144386611Y-109759500D01*
X144213389Y-109759500D01*
X144147037Y-109770009D01*
X144042299Y-109786597D01*
X143885292Y-109837613D01*
X143877555Y-109840127D01*
X143877549Y-109840129D01*
X143877549Y-109840130D01*
X143723206Y-109918771D01*
X143583075Y-110020583D01*
X143460583Y-110143075D01*
X143358771Y-110283206D01*
X143280130Y-110437549D01*
X143280125Y-110437561D01*
X143226597Y-110602299D01*
X143208228Y-110718282D01*
X143199500Y-110773389D01*
X142860500Y-110773389D01*
X142833402Y-110602299D01*
X142779873Y-110437555D01*
X142701232Y-110283212D01*
X142599414Y-110143072D01*
X142476928Y-110020586D01*
X142469427Y-110015136D01*
X142336793Y-109918771D01*
X142336790Y-109918769D01*
X142336788Y-109918768D01*
X142182445Y-109840127D01*
X142122628Y-109820691D01*
X142017700Y-109786597D01*
X141920086Y-109771137D01*
X141846611Y-109759500D01*
X141673389Y-109759500D01*
X141607037Y-109770009D01*
X141502299Y-109786597D01*
X141345292Y-109837613D01*
X141337555Y-109840127D01*
X141337549Y-109840129D01*
X141337549Y-109840130D01*
X141183206Y-109918771D01*
X141043075Y-110020583D01*
X140920583Y-110143075D01*
X140818771Y-110283206D01*
X140740130Y-110437549D01*
X140740125Y-110437561D01*
X140686597Y-110602299D01*
X140668228Y-110718282D01*
X140659500Y-110773389D01*
X137780500Y-110773389D01*
X137753402Y-110602299D01*
X137699873Y-110437555D01*
X137621232Y-110283212D01*
X137519414Y-110143072D01*
X137396928Y-110020586D01*
X137389427Y-110015136D01*
X137256793Y-109918771D01*
X137256790Y-109918769D01*
X137256788Y-109918768D01*
X137102445Y-109840127D01*
X137042628Y-109820691D01*
X136937700Y-109786597D01*
X136840086Y-109771137D01*
X136766611Y-109759500D01*
X136593389Y-109759500D01*
X136527037Y-109770009D01*
X136422299Y-109786597D01*
X136265292Y-109837613D01*
X136257555Y-109840127D01*
X136257549Y-109840129D01*
X136257549Y-109840130D01*
X136103206Y-109918771D01*
X135963075Y-110020583D01*
X135840583Y-110143075D01*
X135738771Y-110283206D01*
X135660130Y-110437549D01*
X135660125Y-110437561D01*
X135606597Y-110602299D01*
X135588228Y-110718282D01*
X135579500Y-110773389D01*
X135240500Y-110773389D01*
X135213402Y-110602299D01*
X135159873Y-110437555D01*
X135081232Y-110283212D01*
X134979414Y-110143072D01*
X134856928Y-110020586D01*
X134849427Y-110015136D01*
X134716793Y-109918771D01*
X134716790Y-109918769D01*
X134716788Y-109918768D01*
X134562445Y-109840127D01*
X134502628Y-109820691D01*
X134397700Y-109786597D01*
X134300086Y-109771137D01*
X134226611Y-109759500D01*
X134053389Y-109759500D01*
X133987037Y-109770009D01*
X133882299Y-109786597D01*
X133725292Y-109837613D01*
X133717555Y-109840127D01*
X133717549Y-109840129D01*
X133717549Y-109840130D01*
X133563206Y-109918771D01*
X133423075Y-110020583D01*
X133300583Y-110143075D01*
X133198771Y-110283206D01*
X133120130Y-110437549D01*
X133120125Y-110437561D01*
X133066597Y-110602299D01*
X133048228Y-110718282D01*
X133039500Y-110773389D01*
X132700499Y-110773389D01*
X132700499Y-110015136D01*
X132697585Y-109990009D01*
X132652206Y-109887235D01*
X132572765Y-109807794D01*
X132572764Y-109807793D01*
X132469994Y-109762416D01*
X132469991Y-109762415D01*
X132466672Y-109762030D01*
X132444865Y-109759500D01*
X132444859Y-109759500D01*
X130755133Y-109759500D01*
X130730010Y-109762414D01*
X130730007Y-109762415D01*
X130627235Y-109807793D01*
X130547793Y-109887235D01*
X130502416Y-109990005D01*
X130502415Y-109990008D01*
X130502415Y-109990009D01*
X130499500Y-110015135D01*
X123621512Y-110015135D01*
X123602149Y-97714401D01*
X123621994Y-97639872D01*
X123626094Y-97633161D01*
X132336436Y-84191823D01*
X132337020Y-84190919D01*
X132337274Y-84190524D01*
X132373439Y-84111362D01*
X132386599Y-84066541D01*
X132426739Y-84000687D01*
X132494432Y-83963723D01*
X132571538Y-83965557D01*
X132637397Y-84005699D01*
X132650823Y-84023633D01*
X132651036Y-84023470D01*
X132656977Y-84031213D01*
X132656980Y-84031216D01*
X132768784Y-84143020D01*
X132905716Y-84222077D01*
X132981278Y-84242323D01*
X133048073Y-84280887D01*
X133477517Y-84710331D01*
X133905859Y-85138672D01*
X133944423Y-85205467D01*
X133949500Y-85244031D01*
X133949500Y-86248653D01*
X133929538Y-86323153D01*
X133875000Y-86377691D01*
X133800500Y-86397653D01*
X133761936Y-86392576D01*
X133670025Y-86367948D01*
X133670022Y-86367948D01*
X133511908Y-86367948D01*
X133359181Y-86408871D01*
X133359179Y-86408871D01*
X133359179Y-86408872D01*
X133222248Y-86487928D01*
X133110445Y-86599731D01*
X133070906Y-86668216D01*
X133031388Y-86736664D01*
X133008806Y-86820943D01*
X132987937Y-86898825D01*
X132986376Y-86898406D01*
X132961108Y-86959400D01*
X132948263Y-86974046D01*
X132538509Y-87383801D01*
X132538508Y-87383802D01*
X132479201Y-87486524D01*
X132479202Y-87486524D01*
X132479201Y-87486528D01*
X132448500Y-87601102D01*
X132448500Y-89577736D01*
X132428538Y-89652236D01*
X132404859Y-89683095D01*
X131814509Y-90273446D01*
X131814508Y-90273447D01*
X131755201Y-90376169D01*
X131755202Y-90376169D01*
X131755201Y-90376173D01*
X131724500Y-90490747D01*
X131724500Y-92826679D01*
X131704538Y-92901179D01*
X131680859Y-92932038D01*
X129739508Y-94873389D01*
X129680201Y-94976111D01*
X129680202Y-94976111D01*
X129680201Y-94976115D01*
X129649500Y-95090689D01*
X129649500Y-105379310D01*
X129673713Y-105469672D01*
X129680202Y-105493891D01*
X129739506Y-105596607D01*
X129739509Y-105596611D01*
X129739511Y-105596614D01*
X131853387Y-107710490D01*
X131956114Y-107769799D01*
X132070691Y-107800500D01*
X146601679Y-107800500D01*
X146676179Y-107820462D01*
X146707038Y-107844141D01*
X148667974Y-109805077D01*
X148706538Y-109871872D01*
X148706538Y-109949000D01*
X148667974Y-110015795D01*
X148666503Y-110017155D01*
X148540583Y-110143075D01*
X148438771Y-110283206D01*
X148360130Y-110437549D01*
X148360125Y-110437561D01*
X148306597Y-110602299D01*
X148288228Y-110718282D01*
X148279500Y-110773389D01*
X148279500Y-110946611D01*
X148291137Y-111020086D01*
X148306597Y-111117700D01*
X148344653Y-111234821D01*
X148360127Y-111282445D01*
X148417222Y-111394500D01*
X148438771Y-111436793D01*
X148540583Y-111576924D01*
X148540586Y-111576928D01*
X148663072Y-111699414D01*
X148803212Y-111801232D01*
X148957555Y-111879873D01*
X149122299Y-111933402D01*
X149293389Y-111960500D01*
X149293393Y-111960500D01*
X149466607Y-111960500D01*
X149466611Y-111960500D01*
X149637701Y-111933402D01*
X149802445Y-111879873D01*
X149956788Y-111801232D01*
X150096928Y-111699414D01*
X150219414Y-111576928D01*
X150321232Y-111436788D01*
X150399873Y-111282445D01*
X150453402Y-111117701D01*
X150480500Y-110946611D01*
X150480500Y-110773389D01*
X150453402Y-110602299D01*
X150399873Y-110437555D01*
X150348494Y-110336717D01*
X150332459Y-110261278D01*
X150356293Y-110187925D01*
X150413610Y-110136316D01*
X150489053Y-110120280D01*
X150562406Y-110144114D01*
X150586614Y-110163717D01*
X150825833Y-110402936D01*
X150864397Y-110469731D01*
X150864397Y-110546859D01*
X150862186Y-110554321D01*
X150847555Y-110599355D01*
X150846598Y-110602302D01*
X150819500Y-110773389D01*
X150819500Y-110946611D01*
X150831137Y-111020086D01*
X150846597Y-111117700D01*
X150884653Y-111234821D01*
X150900127Y-111282445D01*
X150957222Y-111394500D01*
X150978771Y-111436793D01*
X151080583Y-111576924D01*
X151080586Y-111576928D01*
X151203072Y-111699414D01*
X151343212Y-111801232D01*
X151497555Y-111879873D01*
X151662299Y-111933402D01*
X151833389Y-111960500D01*
X151833393Y-111960500D01*
X152006607Y-111960500D01*
X152006611Y-111960500D01*
X152177701Y-111933402D01*
X152342445Y-111879873D01*
X152496788Y-111801232D01*
X152636928Y-111699414D01*
X152759414Y-111576928D01*
X152861232Y-111436788D01*
X152939873Y-111282445D01*
X152993402Y-111117701D01*
X153020500Y-110946611D01*
X153020500Y-110773389D01*
X152993402Y-110602299D01*
X152939873Y-110437555D01*
X152861232Y-110283212D01*
X152759414Y-110143072D01*
X152636928Y-110020586D01*
X152629427Y-110015136D01*
X152496793Y-109918771D01*
X152496790Y-109918769D01*
X152496788Y-109918768D01*
X152342445Y-109840127D01*
X152282628Y-109820691D01*
X152177700Y-109786597D01*
X152080086Y-109771137D01*
X152006611Y-109759500D01*
X151833389Y-109759500D01*
X151725001Y-109776666D01*
X151662303Y-109786597D01*
X151662300Y-109786597D01*
X151662299Y-109786598D01*
X151614336Y-109802182D01*
X151537315Y-109806218D01*
X151468594Y-109771202D01*
X151462936Y-109765833D01*
X149957617Y-108260514D01*
X148343044Y-106645941D01*
X152449500Y-106645941D01*
X152449500Y-106804058D01*
X152460465Y-106844981D01*
X152490423Y-106956784D01*
X152569480Y-107093716D01*
X152681284Y-107205520D01*
X152818216Y-107284577D01*
X152970943Y-107325500D01*
X153129057Y-107325500D01*
X153281784Y-107284577D01*
X153418716Y-107205520D01*
X153530520Y-107093716D01*
X153609577Y-106956784D01*
X153650500Y-106804057D01*
X153650500Y-106804051D01*
X153650588Y-106803386D01*
X153651005Y-106802172D01*
X153653028Y-106794623D01*
X153653551Y-106794763D01*
X153669856Y-106747325D01*
X153677092Y-106735011D01*
X153680490Y-106731614D01*
X153739799Y-106628887D01*
X153740082Y-106627828D01*
X153745848Y-106618018D01*
X153755056Y-106608950D01*
X153768945Y-106588156D01*
X156538455Y-103818646D01*
X156605247Y-103780084D01*
X156681784Y-103759577D01*
X156818716Y-103680520D01*
X156930520Y-103568716D01*
X157009577Y-103431784D01*
X157050500Y-103279057D01*
X157050500Y-103120943D01*
X157009577Y-102968216D01*
X156930520Y-102831284D01*
X156818716Y-102719480D01*
X156681784Y-102640423D01*
X156529057Y-102599500D01*
X156370943Y-102599500D01*
X156218216Y-102640423D01*
X156218214Y-102640423D01*
X156218214Y-102640424D01*
X156081283Y-102719480D01*
X155969480Y-102831283D01*
X155898320Y-102954538D01*
X155890423Y-102968216D01*
X155871431Y-103039095D01*
X155849500Y-103120941D01*
X155849500Y-103171679D01*
X155829538Y-103246179D01*
X155805859Y-103277038D01*
X152982036Y-106100860D01*
X152915243Y-106139423D01*
X152818217Y-106165422D01*
X152681283Y-106244480D01*
X152569480Y-106356283D01*
X152490424Y-106493214D01*
X152449500Y-106645941D01*
X148343044Y-106645941D01*
X147911614Y-106214511D01*
X147911611Y-106214509D01*
X147911607Y-106214506D01*
X147808890Y-106155202D01*
X147808887Y-106155201D01*
X147784673Y-106148713D01*
X147694309Y-106124500D01*
X137323321Y-106124500D01*
X137248821Y-106104538D01*
X137217962Y-106080859D01*
X136208782Y-105071679D01*
X135050614Y-103913511D01*
X135050611Y-103913509D01*
X135050607Y-103913506D01*
X134947890Y-103854202D01*
X134947888Y-103854201D01*
X134935045Y-103850760D01*
X134912797Y-103844799D01*
X134912796Y-103844798D01*
X134833309Y-103823500D01*
X133450500Y-103823500D01*
X133376000Y-103803538D01*
X133321462Y-103749000D01*
X133301500Y-103674500D01*
X133301500Y-103340610D01*
X139979831Y-103340610D01*
X139979831Y-103498727D01*
X139990796Y-103539650D01*
X140020754Y-103651453D01*
X140099811Y-103788385D01*
X140211615Y-103900189D01*
X140348547Y-103979246D01*
X140501274Y-104020169D01*
X140659388Y-104020169D01*
X140812115Y-103979246D01*
X140949047Y-103900189D01*
X140949047Y-103900188D01*
X140957234Y-103895462D01*
X141031734Y-103875500D01*
X147670583Y-103875500D01*
X147745083Y-103895462D01*
X147759182Y-103904883D01*
X147760282Y-103905518D01*
X147760284Y-103905520D01*
X147897216Y-103984577D01*
X148049943Y-104025500D01*
X148208057Y-104025500D01*
X148360784Y-103984577D01*
X148497716Y-103905520D01*
X148497717Y-103905518D01*
X148506173Y-103900637D01*
X148506981Y-103902037D01*
X148567967Y-103876775D01*
X148587417Y-103875500D01*
X153116583Y-103875500D01*
X153191083Y-103895462D01*
X153205182Y-103904883D01*
X153206282Y-103905518D01*
X153206284Y-103905520D01*
X153343216Y-103984577D01*
X153495943Y-104025500D01*
X153654057Y-104025500D01*
X153806784Y-103984577D01*
X153943716Y-103905520D01*
X154055520Y-103793716D01*
X154134577Y-103656784D01*
X154175500Y-103504057D01*
X154175500Y-103345943D01*
X154134577Y-103193216D01*
X154055520Y-103056284D01*
X153943716Y-102944480D01*
X153806784Y-102865423D01*
X153654057Y-102824500D01*
X153495943Y-102824500D01*
X153343216Y-102865423D01*
X153206284Y-102944480D01*
X153206283Y-102944480D01*
X153197827Y-102949363D01*
X153197018Y-102947962D01*
X153136033Y-102973225D01*
X153116583Y-102974500D01*
X148587417Y-102974500D01*
X148512917Y-102954538D01*
X148498817Y-102945116D01*
X148497716Y-102944480D01*
X148360784Y-102865423D01*
X148208057Y-102824500D01*
X148049943Y-102824500D01*
X147897216Y-102865423D01*
X147760284Y-102944480D01*
X147760283Y-102944480D01*
X147751827Y-102949363D01*
X147751018Y-102947962D01*
X147690033Y-102973225D01*
X147670583Y-102974500D01*
X141045696Y-102974500D01*
X140971196Y-102954538D01*
X140954992Y-102943711D01*
X140949047Y-102939149D01*
X140821350Y-102865424D01*
X140812115Y-102860092D01*
X140659388Y-102819169D01*
X140501274Y-102819169D01*
X140348547Y-102860092D01*
X140348545Y-102860092D01*
X140348545Y-102860093D01*
X140211614Y-102939149D01*
X140099811Y-103050952D01*
X140030110Y-103171679D01*
X140020754Y-103187885D01*
X140019326Y-103193216D01*
X139979831Y-103340610D01*
X133301500Y-103340610D01*
X133301500Y-97640941D01*
X136849500Y-97640941D01*
X136849500Y-97640943D01*
X136849500Y-97799057D01*
X136890423Y-97951784D01*
X136969480Y-98088716D01*
X137081284Y-98200520D01*
X137218216Y-98279577D01*
X137370943Y-98320500D01*
X137529057Y-98320500D01*
X137681784Y-98279577D01*
X137818716Y-98200520D01*
X137818717Y-98200518D01*
X137827173Y-98195637D01*
X137827981Y-98197037D01*
X137888967Y-98171775D01*
X137908417Y-98170500D01*
X157432875Y-98170500D01*
X157507375Y-98190462D01*
X157561913Y-98245000D01*
X157576797Y-98280934D01*
X157587399Y-98320499D01*
X157590423Y-98331784D01*
X157669480Y-98468716D01*
X157781284Y-98580520D01*
X157918216Y-98659577D01*
X158070943Y-98700500D01*
X158229057Y-98700500D01*
X158381784Y-98659577D01*
X158518716Y-98580520D01*
X158630520Y-98468716D01*
X158709577Y-98331784D01*
X158750500Y-98179057D01*
X158750500Y-98020943D01*
X158709577Y-97868216D01*
X158630520Y-97731284D01*
X158518716Y-97619480D01*
X158381784Y-97540423D01*
X158229057Y-97499500D01*
X158219623Y-97496972D01*
X158220041Y-97495411D01*
X158159049Y-97470144D01*
X158144402Y-97457298D01*
X158046616Y-97359513D01*
X158046614Y-97359511D01*
X158046611Y-97359509D01*
X158046607Y-97359506D01*
X157943890Y-97300202D01*
X157943887Y-97300201D01*
X157919673Y-97293713D01*
X157829309Y-97269500D01*
X137908417Y-97269500D01*
X137833917Y-97249538D01*
X137819817Y-97240116D01*
X137818716Y-97239480D01*
X137681784Y-97160423D01*
X137529057Y-97119500D01*
X137370943Y-97119500D01*
X137218216Y-97160423D01*
X137218214Y-97160423D01*
X137218214Y-97160424D01*
X137081283Y-97239480D01*
X136969480Y-97351283D01*
X136913405Y-97448409D01*
X136890423Y-97488216D01*
X136885792Y-97505500D01*
X136849500Y-97640941D01*
X133301500Y-97640941D01*
X133301500Y-95533389D01*
X135579500Y-95533389D01*
X135579500Y-95706611D01*
X135591137Y-95780086D01*
X135606597Y-95877700D01*
X135630500Y-95951263D01*
X135660127Y-96042445D01*
X135720649Y-96161226D01*
X135738771Y-96196793D01*
X135835499Y-96329927D01*
X135840586Y-96336928D01*
X135963072Y-96459414D01*
X135963075Y-96459416D01*
X136102461Y-96560687D01*
X136103212Y-96561232D01*
X136257555Y-96639873D01*
X136422299Y-96693402D01*
X136593389Y-96720500D01*
X136593393Y-96720500D01*
X136766607Y-96720500D01*
X136766611Y-96720500D01*
X136937701Y-96693402D01*
X137102445Y-96639873D01*
X137256788Y-96561232D01*
X137396928Y-96459414D01*
X137519414Y-96336928D01*
X137621232Y-96196788D01*
X137699873Y-96042445D01*
X137753402Y-95877701D01*
X137780500Y-95706611D01*
X137780500Y-95533389D01*
X138119500Y-95533389D01*
X138119500Y-95706611D01*
X138131137Y-95780086D01*
X138146597Y-95877700D01*
X138170500Y-95951263D01*
X138200127Y-96042445D01*
X138260649Y-96161226D01*
X138278771Y-96196793D01*
X138375499Y-96329927D01*
X138380586Y-96336928D01*
X138503072Y-96459414D01*
X138503075Y-96459416D01*
X138642461Y-96560687D01*
X138643212Y-96561232D01*
X138797555Y-96639873D01*
X138962299Y-96693402D01*
X139133389Y-96720500D01*
X139133393Y-96720500D01*
X139306607Y-96720500D01*
X139306611Y-96720500D01*
X139477701Y-96693402D01*
X139642445Y-96639873D01*
X139796788Y-96561232D01*
X139936928Y-96459414D01*
X140059414Y-96336928D01*
X140161232Y-96196788D01*
X140239873Y-96042445D01*
X140293402Y-95877701D01*
X140320500Y-95706611D01*
X140320500Y-95533389D01*
X140659500Y-95533389D01*
X140659500Y-95706611D01*
X140671137Y-95780086D01*
X140686597Y-95877700D01*
X140710500Y-95951263D01*
X140740127Y-96042445D01*
X140800649Y-96161226D01*
X140818771Y-96196793D01*
X140915499Y-96329927D01*
X140920586Y-96336928D01*
X141043072Y-96459414D01*
X141043075Y-96459416D01*
X141182461Y-96560687D01*
X141183212Y-96561232D01*
X141337555Y-96639873D01*
X141502299Y-96693402D01*
X141673389Y-96720500D01*
X141673393Y-96720500D01*
X141846607Y-96720500D01*
X141846611Y-96720500D01*
X142017701Y-96693402D01*
X142182445Y-96639873D01*
X142336788Y-96561232D01*
X142476928Y-96459414D01*
X142599414Y-96336928D01*
X142701232Y-96196788D01*
X142779873Y-96042445D01*
X142833402Y-95877701D01*
X142860500Y-95706611D01*
X142860500Y-95533389D01*
X143199500Y-95533389D01*
X143199500Y-95706611D01*
X143211137Y-95780086D01*
X143226597Y-95877700D01*
X143250500Y-95951263D01*
X143280127Y-96042445D01*
X143340649Y-96161226D01*
X143358771Y-96196793D01*
X143455499Y-96329927D01*
X143460586Y-96336928D01*
X143583072Y-96459414D01*
X143583075Y-96459416D01*
X143722461Y-96560687D01*
X143723212Y-96561232D01*
X143877555Y-96639873D01*
X144042299Y-96693402D01*
X144213389Y-96720500D01*
X144213393Y-96720500D01*
X144386607Y-96720500D01*
X144386611Y-96720500D01*
X144557701Y-96693402D01*
X144722445Y-96639873D01*
X144876788Y-96561232D01*
X145016928Y-96459414D01*
X145139414Y-96336928D01*
X145241232Y-96196788D01*
X145319873Y-96042445D01*
X145373402Y-95877701D01*
X145400500Y-95706611D01*
X145400500Y-95533389D01*
X145739500Y-95533389D01*
X145739500Y-95706611D01*
X145751137Y-95780086D01*
X145766597Y-95877700D01*
X145790500Y-95951263D01*
X145820127Y-96042445D01*
X145880649Y-96161226D01*
X145898771Y-96196793D01*
X145995499Y-96329927D01*
X146000586Y-96336928D01*
X146123072Y-96459414D01*
X146123075Y-96459416D01*
X146262461Y-96560687D01*
X146263212Y-96561232D01*
X146417555Y-96639873D01*
X146582299Y-96693402D01*
X146753389Y-96720500D01*
X146753393Y-96720500D01*
X146926607Y-96720500D01*
X146926611Y-96720500D01*
X147097701Y-96693402D01*
X147262445Y-96639873D01*
X147416788Y-96561232D01*
X147556928Y-96459414D01*
X147679414Y-96336928D01*
X147781232Y-96196788D01*
X147859873Y-96042445D01*
X147913402Y-95877701D01*
X147940500Y-95706611D01*
X147940500Y-95533389D01*
X148279500Y-95533389D01*
X148279500Y-95706611D01*
X148291137Y-95780086D01*
X148306597Y-95877700D01*
X148330500Y-95951263D01*
X148360127Y-96042445D01*
X148420649Y-96161226D01*
X148438771Y-96196793D01*
X148535499Y-96329927D01*
X148540586Y-96336928D01*
X148663072Y-96459414D01*
X148663075Y-96459416D01*
X148802461Y-96560687D01*
X148803212Y-96561232D01*
X148957555Y-96639873D01*
X149122299Y-96693402D01*
X149293389Y-96720500D01*
X149293393Y-96720500D01*
X149466607Y-96720500D01*
X149466611Y-96720500D01*
X149637701Y-96693402D01*
X149802445Y-96639873D01*
X149956788Y-96561232D01*
X150096928Y-96459414D01*
X150219414Y-96336928D01*
X150321232Y-96196788D01*
X150399873Y-96042445D01*
X150453402Y-95877701D01*
X150480500Y-95706611D01*
X150480500Y-95533389D01*
X150819500Y-95533389D01*
X150819500Y-95706611D01*
X150831137Y-95780086D01*
X150846597Y-95877700D01*
X150870500Y-95951263D01*
X150900127Y-96042445D01*
X150960649Y-96161226D01*
X150978771Y-96196793D01*
X151075499Y-96329927D01*
X151080586Y-96336928D01*
X151203072Y-96459414D01*
X151203075Y-96459416D01*
X151342461Y-96560687D01*
X151343212Y-96561232D01*
X151497555Y-96639873D01*
X151662299Y-96693402D01*
X151833389Y-96720500D01*
X151833393Y-96720500D01*
X152006607Y-96720500D01*
X152006611Y-96720500D01*
X152177701Y-96693402D01*
X152342445Y-96639873D01*
X152496788Y-96561232D01*
X152636928Y-96459414D01*
X152759414Y-96336928D01*
X152861232Y-96196788D01*
X152939873Y-96042445D01*
X152993402Y-95877701D01*
X153020500Y-95706611D01*
X153020500Y-95533389D01*
X153359500Y-95533389D01*
X153359500Y-95706611D01*
X153371137Y-95780086D01*
X153386597Y-95877700D01*
X153410500Y-95951263D01*
X153440127Y-96042445D01*
X153500649Y-96161226D01*
X153518771Y-96196793D01*
X153615499Y-96329927D01*
X153620586Y-96336928D01*
X153743072Y-96459414D01*
X153743075Y-96459416D01*
X153882461Y-96560687D01*
X153883212Y-96561232D01*
X154037555Y-96639873D01*
X154202299Y-96693402D01*
X154373389Y-96720500D01*
X154373393Y-96720500D01*
X154546607Y-96720500D01*
X154546611Y-96720500D01*
X154717701Y-96693402D01*
X154882445Y-96639873D01*
X155036788Y-96561232D01*
X155176928Y-96459414D01*
X155299414Y-96336928D01*
X155401232Y-96196788D01*
X155479873Y-96042445D01*
X155533402Y-95877701D01*
X155560500Y-95706611D01*
X155560500Y-95533389D01*
X155899500Y-95533389D01*
X155899500Y-95706611D01*
X155911137Y-95780086D01*
X155926597Y-95877700D01*
X155950500Y-95951263D01*
X155980127Y-96042445D01*
X156040649Y-96161226D01*
X156058771Y-96196793D01*
X156155499Y-96329927D01*
X156160586Y-96336928D01*
X156283072Y-96459414D01*
X156283075Y-96459416D01*
X156422461Y-96560687D01*
X156423212Y-96561232D01*
X156577555Y-96639873D01*
X156742299Y-96693402D01*
X156913389Y-96720500D01*
X156913393Y-96720500D01*
X157086607Y-96720500D01*
X157086611Y-96720500D01*
X157257701Y-96693402D01*
X157422445Y-96639873D01*
X157576788Y-96561232D01*
X157716928Y-96459414D01*
X157839414Y-96336928D01*
X157941232Y-96196788D01*
X158019873Y-96042445D01*
X158073402Y-95877701D01*
X158100500Y-95706611D01*
X158100500Y-95533389D01*
X158073402Y-95362299D01*
X158019873Y-95197555D01*
X157941232Y-95043212D01*
X157839414Y-94903072D01*
X157716928Y-94780586D01*
X157716924Y-94780583D01*
X157576793Y-94678771D01*
X157576790Y-94678769D01*
X157576788Y-94678768D01*
X157422445Y-94600127D01*
X157374821Y-94584653D01*
X157257700Y-94546597D01*
X157160086Y-94531137D01*
X157086611Y-94519500D01*
X156913389Y-94519500D01*
X156847037Y-94530009D01*
X156742299Y-94546597D01*
X156577561Y-94600125D01*
X156577555Y-94600127D01*
X156577549Y-94600129D01*
X156577549Y-94600130D01*
X156423206Y-94678771D01*
X156283075Y-94780583D01*
X156160583Y-94903075D01*
X156058771Y-95043206D01*
X155980130Y-95197549D01*
X155980125Y-95197561D01*
X155926597Y-95362299D01*
X155908228Y-95478282D01*
X155899500Y-95533389D01*
X155560500Y-95533389D01*
X155533402Y-95362299D01*
X155479873Y-95197555D01*
X155401232Y-95043212D01*
X155299414Y-94903072D01*
X155176928Y-94780586D01*
X155176924Y-94780583D01*
X155036793Y-94678771D01*
X155036790Y-94678769D01*
X155036788Y-94678768D01*
X154882445Y-94600127D01*
X154834821Y-94584653D01*
X154717700Y-94546597D01*
X154620086Y-94531137D01*
X154546611Y-94519500D01*
X154373389Y-94519500D01*
X154307037Y-94530009D01*
X154202299Y-94546597D01*
X154037561Y-94600125D01*
X154037555Y-94600127D01*
X154037549Y-94600129D01*
X154037549Y-94600130D01*
X153883206Y-94678771D01*
X153743075Y-94780583D01*
X153620583Y-94903075D01*
X153518771Y-95043206D01*
X153440130Y-95197549D01*
X153440125Y-95197561D01*
X153386597Y-95362299D01*
X153368228Y-95478282D01*
X153359500Y-95533389D01*
X153020500Y-95533389D01*
X152993402Y-95362299D01*
X152939873Y-95197555D01*
X152861232Y-95043212D01*
X152759414Y-94903072D01*
X152636928Y-94780586D01*
X152636924Y-94780583D01*
X152496793Y-94678771D01*
X152496790Y-94678769D01*
X152496788Y-94678768D01*
X152342445Y-94600127D01*
X152294821Y-94584653D01*
X152177700Y-94546597D01*
X152080086Y-94531137D01*
X152006611Y-94519500D01*
X151833389Y-94519500D01*
X151767037Y-94530009D01*
X151662299Y-94546597D01*
X151497561Y-94600125D01*
X151497555Y-94600127D01*
X151497549Y-94600129D01*
X151497549Y-94600130D01*
X151343206Y-94678771D01*
X151203075Y-94780583D01*
X151080583Y-94903075D01*
X150978771Y-95043206D01*
X150900130Y-95197549D01*
X150900125Y-95197561D01*
X150846597Y-95362299D01*
X150828228Y-95478282D01*
X150819500Y-95533389D01*
X150480500Y-95533389D01*
X150453402Y-95362299D01*
X150399873Y-95197555D01*
X150321232Y-95043212D01*
X150219414Y-94903072D01*
X150096928Y-94780586D01*
X150096924Y-94780583D01*
X149956793Y-94678771D01*
X149956790Y-94678769D01*
X149956788Y-94678768D01*
X149802445Y-94600127D01*
X149754821Y-94584653D01*
X149637700Y-94546597D01*
X149540086Y-94531137D01*
X149466611Y-94519500D01*
X149293389Y-94519500D01*
X149227037Y-94530009D01*
X149122299Y-94546597D01*
X148957561Y-94600125D01*
X148957555Y-94600127D01*
X148957549Y-94600129D01*
X148957549Y-94600130D01*
X148803206Y-94678771D01*
X148663075Y-94780583D01*
X148540583Y-94903075D01*
X148438771Y-95043206D01*
X148360130Y-95197549D01*
X148360125Y-95197561D01*
X148306597Y-95362299D01*
X148288228Y-95478282D01*
X148279500Y-95533389D01*
X147940500Y-95533389D01*
X147913402Y-95362299D01*
X147859873Y-95197555D01*
X147781232Y-95043212D01*
X147679414Y-94903072D01*
X147556928Y-94780586D01*
X147556924Y-94780583D01*
X147416793Y-94678771D01*
X147416790Y-94678769D01*
X147416788Y-94678768D01*
X147262445Y-94600127D01*
X147214821Y-94584653D01*
X147097700Y-94546597D01*
X147000086Y-94531137D01*
X146926611Y-94519500D01*
X146753389Y-94519500D01*
X146687037Y-94530009D01*
X146582299Y-94546597D01*
X146417561Y-94600125D01*
X146417555Y-94600127D01*
X146417549Y-94600129D01*
X146417549Y-94600130D01*
X146263206Y-94678771D01*
X146123075Y-94780583D01*
X146000583Y-94903075D01*
X145898771Y-95043206D01*
X145820130Y-95197549D01*
X145820125Y-95197561D01*
X145766597Y-95362299D01*
X145748228Y-95478282D01*
X145739500Y-95533389D01*
X145400500Y-95533389D01*
X145373402Y-95362299D01*
X145319873Y-95197555D01*
X145241232Y-95043212D01*
X145139414Y-94903072D01*
X145016928Y-94780586D01*
X145016924Y-94780583D01*
X144876793Y-94678771D01*
X144876790Y-94678769D01*
X144876788Y-94678768D01*
X144722445Y-94600127D01*
X144674821Y-94584653D01*
X144557700Y-94546597D01*
X144460086Y-94531137D01*
X144386611Y-94519500D01*
X144213389Y-94519500D01*
X144147037Y-94530009D01*
X144042299Y-94546597D01*
X143877561Y-94600125D01*
X143877555Y-94600127D01*
X143877549Y-94600129D01*
X143877549Y-94600130D01*
X143723206Y-94678771D01*
X143583075Y-94780583D01*
X143460583Y-94903075D01*
X143358771Y-95043206D01*
X143280130Y-95197549D01*
X143280125Y-95197561D01*
X143226597Y-95362299D01*
X143208228Y-95478282D01*
X143199500Y-95533389D01*
X142860500Y-95533389D01*
X142833402Y-95362299D01*
X142779873Y-95197555D01*
X142701232Y-95043212D01*
X142599414Y-94903072D01*
X142476928Y-94780586D01*
X142476924Y-94780583D01*
X142336793Y-94678771D01*
X142336790Y-94678769D01*
X142336788Y-94678768D01*
X142182445Y-94600127D01*
X142134821Y-94584653D01*
X142017700Y-94546597D01*
X141920086Y-94531137D01*
X141846611Y-94519500D01*
X141673389Y-94519500D01*
X141607037Y-94530009D01*
X141502299Y-94546597D01*
X141337561Y-94600125D01*
X141337555Y-94600127D01*
X141337549Y-94600129D01*
X141337549Y-94600130D01*
X141183206Y-94678771D01*
X141043075Y-94780583D01*
X140920583Y-94903075D01*
X140818771Y-95043206D01*
X140740130Y-95197549D01*
X140740125Y-95197561D01*
X140686597Y-95362299D01*
X140668228Y-95478282D01*
X140659500Y-95533389D01*
X140320500Y-95533389D01*
X140293402Y-95362299D01*
X140239873Y-95197555D01*
X140161232Y-95043212D01*
X140059414Y-94903072D01*
X139936928Y-94780586D01*
X139936924Y-94780583D01*
X139796793Y-94678771D01*
X139796790Y-94678769D01*
X139796788Y-94678768D01*
X139642445Y-94600127D01*
X139594821Y-94584653D01*
X139477700Y-94546597D01*
X139380086Y-94531137D01*
X139306611Y-94519500D01*
X139133389Y-94519500D01*
X139067037Y-94530009D01*
X138962299Y-94546597D01*
X138797561Y-94600125D01*
X138797555Y-94600127D01*
X138797549Y-94600129D01*
X138797549Y-94600130D01*
X138643206Y-94678771D01*
X138503075Y-94780583D01*
X138380583Y-94903075D01*
X138278771Y-95043206D01*
X138200130Y-95197549D01*
X138200125Y-95197561D01*
X138146597Y-95362299D01*
X138128228Y-95478282D01*
X138119500Y-95533389D01*
X137780500Y-95533389D01*
X137753402Y-95362299D01*
X137699873Y-95197555D01*
X137621232Y-95043212D01*
X137519414Y-94903072D01*
X137396928Y-94780586D01*
X137396924Y-94780583D01*
X137256793Y-94678771D01*
X137256790Y-94678769D01*
X137256788Y-94678768D01*
X137102445Y-94600127D01*
X137054821Y-94584653D01*
X136937700Y-94546597D01*
X136840086Y-94531137D01*
X136766611Y-94519500D01*
X136593389Y-94519500D01*
X136527037Y-94530009D01*
X136422299Y-94546597D01*
X136257561Y-94600125D01*
X136257555Y-94600127D01*
X136257549Y-94600129D01*
X136257549Y-94600130D01*
X136103206Y-94678771D01*
X135963075Y-94780583D01*
X135840583Y-94903075D01*
X135738771Y-95043206D01*
X135660130Y-95197549D01*
X135660125Y-95197561D01*
X135606597Y-95362299D01*
X135588228Y-95478282D01*
X135579500Y-95533389D01*
X133301500Y-95533389D01*
X133301500Y-93005959D01*
X133321462Y-92931459D01*
X133376000Y-92876921D01*
X133450500Y-92856959D01*
X133507517Y-92868300D01*
X133585256Y-92900501D01*
X133710931Y-92925499D01*
X133839069Y-92925499D01*
X133964744Y-92900501D01*
X134083127Y-92851465D01*
X134189669Y-92780277D01*
X136235492Y-90734454D01*
X141649500Y-90734454D01*
X141649500Y-91165546D01*
X141677829Y-91344409D01*
X141733789Y-91516639D01*
X141816004Y-91677994D01*
X141922447Y-91824501D01*
X142050499Y-91952553D01*
X142197006Y-92058996D01*
X142358361Y-92141211D01*
X142530591Y-92197171D01*
X142709454Y-92225500D01*
X142709458Y-92225500D01*
X142890542Y-92225500D01*
X142890546Y-92225500D01*
X143069409Y-92197171D01*
X143241639Y-92141211D01*
X143402994Y-92058996D01*
X143549501Y-91952553D01*
X143677553Y-91824501D01*
X143783996Y-91677994D01*
X143866211Y-91516639D01*
X143908292Y-91387125D01*
X143950299Y-91322439D01*
X144019020Y-91287423D01*
X144096042Y-91291459D01*
X144160728Y-91333466D01*
X144191708Y-91387125D01*
X144233788Y-91516638D01*
X144233789Y-91516639D01*
X144316004Y-91677994D01*
X144422447Y-91824501D01*
X144550499Y-91952553D01*
X144697006Y-92058996D01*
X144858361Y-92141211D01*
X145030591Y-92197171D01*
X145209454Y-92225500D01*
X145209458Y-92225500D01*
X145390542Y-92225500D01*
X145390546Y-92225500D01*
X145569409Y-92197171D01*
X145741639Y-92141211D01*
X145902994Y-92058996D01*
X146049501Y-91952553D01*
X146177553Y-91824501D01*
X146283996Y-91677994D01*
X146366211Y-91516639D01*
X146408292Y-91387125D01*
X146450299Y-91322439D01*
X146519020Y-91287423D01*
X146596042Y-91291459D01*
X146660728Y-91333466D01*
X146691708Y-91387125D01*
X146733788Y-91516638D01*
X146733789Y-91516639D01*
X146816004Y-91677994D01*
X146922447Y-91824501D01*
X147050499Y-91952553D01*
X147197006Y-92058996D01*
X147358361Y-92141211D01*
X147530591Y-92197171D01*
X147709454Y-92225500D01*
X147709458Y-92225500D01*
X147890542Y-92225500D01*
X147890546Y-92225500D01*
X148069409Y-92197171D01*
X148241639Y-92141211D01*
X148402994Y-92058996D01*
X148549501Y-91952553D01*
X148677553Y-91824501D01*
X148783996Y-91677994D01*
X148866211Y-91516639D01*
X148908292Y-91387125D01*
X148950299Y-91322439D01*
X149019020Y-91287423D01*
X149096042Y-91291459D01*
X149160728Y-91333466D01*
X149191708Y-91387125D01*
X149233788Y-91516638D01*
X149233789Y-91516639D01*
X149316004Y-91677994D01*
X149422447Y-91824501D01*
X149550499Y-91952553D01*
X149697006Y-92058996D01*
X149858361Y-92141211D01*
X150030591Y-92197171D01*
X150209454Y-92225500D01*
X150209458Y-92225500D01*
X150390542Y-92225500D01*
X150390546Y-92225500D01*
X150569409Y-92197171D01*
X150741639Y-92141211D01*
X150902994Y-92058996D01*
X151049501Y-91952553D01*
X151177553Y-91824501D01*
X151283996Y-91677994D01*
X151366211Y-91516639D01*
X151422171Y-91344409D01*
X151450500Y-91165546D01*
X151450500Y-90734454D01*
X151422171Y-90555591D01*
X151366211Y-90383361D01*
X151283996Y-90222006D01*
X151177553Y-90075499D01*
X151049501Y-89947447D01*
X150902994Y-89841004D01*
X150741639Y-89758789D01*
X150569409Y-89702829D01*
X150390546Y-89674500D01*
X150209454Y-89674500D01*
X150030591Y-89702829D01*
X149858360Y-89758789D01*
X149697004Y-89841005D01*
X149697003Y-89841005D01*
X149550500Y-89947446D01*
X149550497Y-89947448D01*
X149422448Y-90075497D01*
X149422446Y-90075500D01*
X149316005Y-90222003D01*
X149316005Y-90222004D01*
X149233789Y-90383360D01*
X149191708Y-90512875D01*
X149149701Y-90577560D01*
X149080980Y-90612576D01*
X149003957Y-90608540D01*
X148939272Y-90566533D01*
X148908292Y-90512875D01*
X148898850Y-90483815D01*
X148866211Y-90383361D01*
X148783996Y-90222006D01*
X148677553Y-90075499D01*
X148549501Y-89947447D01*
X148402994Y-89841004D01*
X148241639Y-89758789D01*
X148069409Y-89702829D01*
X147890546Y-89674500D01*
X147709454Y-89674500D01*
X147530591Y-89702829D01*
X147358360Y-89758789D01*
X147197004Y-89841005D01*
X147197003Y-89841005D01*
X147050500Y-89947446D01*
X147050497Y-89947448D01*
X146922448Y-90075497D01*
X146922446Y-90075500D01*
X146816005Y-90222003D01*
X146816005Y-90222004D01*
X146733789Y-90383360D01*
X146691708Y-90512875D01*
X146649701Y-90577560D01*
X146580980Y-90612576D01*
X146503957Y-90608540D01*
X146439272Y-90566533D01*
X146408292Y-90512875D01*
X146398850Y-90483815D01*
X146366211Y-90383361D01*
X146283996Y-90222006D01*
X146177553Y-90075499D01*
X146049501Y-89947447D01*
X145902994Y-89841004D01*
X145741639Y-89758789D01*
X145569409Y-89702829D01*
X145390546Y-89674500D01*
X145209454Y-89674500D01*
X145030591Y-89702829D01*
X144858360Y-89758789D01*
X144697004Y-89841005D01*
X144697003Y-89841005D01*
X144550500Y-89947446D01*
X144550497Y-89947448D01*
X144422448Y-90075497D01*
X144422446Y-90075500D01*
X144316005Y-90222003D01*
X144316005Y-90222004D01*
X144233789Y-90383360D01*
X144191708Y-90512875D01*
X144149701Y-90577560D01*
X144080980Y-90612576D01*
X144003957Y-90608540D01*
X143939272Y-90566533D01*
X143908292Y-90512875D01*
X143898850Y-90483815D01*
X143866211Y-90383361D01*
X143783996Y-90222006D01*
X143677553Y-90075499D01*
X143549501Y-89947447D01*
X143402994Y-89841004D01*
X143241639Y-89758789D01*
X143069409Y-89702829D01*
X142890546Y-89674500D01*
X142709454Y-89674500D01*
X142530591Y-89702829D01*
X142358360Y-89758789D01*
X142197004Y-89841005D01*
X142197003Y-89841005D01*
X142050500Y-89947446D01*
X142050497Y-89947448D01*
X141922448Y-90075497D01*
X141922446Y-90075500D01*
X141816005Y-90222003D01*
X141816005Y-90222004D01*
X141733789Y-90383360D01*
X141722755Y-90417321D01*
X141677829Y-90555591D01*
X141649500Y-90734454D01*
X136235492Y-90734454D01*
X138036529Y-88933417D01*
X139674004Y-87295941D01*
X149874500Y-87295941D01*
X149874500Y-87454058D01*
X149883199Y-87486524D01*
X149915423Y-87606784D01*
X149994480Y-87743716D01*
X150106284Y-87855520D01*
X150243216Y-87934577D01*
X150395943Y-87975500D01*
X150554057Y-87975500D01*
X150706784Y-87934577D01*
X150774534Y-87895461D01*
X150849033Y-87875500D01*
X151750967Y-87875500D01*
X151825465Y-87895461D01*
X151893216Y-87934577D01*
X152045943Y-87975500D01*
X152204057Y-87975500D01*
X152356784Y-87934577D01*
X152493716Y-87855520D01*
X152605520Y-87743716D01*
X152684577Y-87606784D01*
X152725500Y-87454057D01*
X152725500Y-87295943D01*
X152684577Y-87143216D01*
X152605520Y-87006284D01*
X152493716Y-86894480D01*
X152356784Y-86815423D01*
X152204057Y-86774500D01*
X152045943Y-86774500D01*
X151893216Y-86815423D01*
X151825465Y-86854538D01*
X151750967Y-86874500D01*
X150849033Y-86874500D01*
X150774534Y-86854538D01*
X150706784Y-86815423D01*
X150554057Y-86774500D01*
X150395943Y-86774500D01*
X150243216Y-86815423D01*
X150243214Y-86815423D01*
X150243214Y-86815424D01*
X150106283Y-86894480D01*
X149994480Y-87006283D01*
X149958435Y-87068716D01*
X149915423Y-87143216D01*
X149905348Y-87180818D01*
X149874500Y-87295941D01*
X139674004Y-87295941D01*
X139789127Y-87180818D01*
X140650804Y-86319141D01*
X140717599Y-86280577D01*
X140756163Y-86275500D01*
X143132815Y-86275500D01*
X143207315Y-86295462D01*
X143215593Y-86300610D01*
X143216865Y-86301460D01*
X143216867Y-86301461D01*
X143216873Y-86301465D01*
X143335256Y-86350501D01*
X143460931Y-86375499D01*
X143589069Y-86375499D01*
X143714743Y-86350501D01*
X143833126Y-86301465D01*
X143939669Y-86230276D01*
X144030276Y-86139669D01*
X144101465Y-86033126D01*
X144150501Y-85914743D01*
X144175499Y-85789069D01*
X144175499Y-85660931D01*
X144150501Y-85535256D01*
X144101465Y-85416873D01*
X144030276Y-85310330D01*
X143839669Y-85119723D01*
X143733127Y-85048535D01*
X143733123Y-85048533D01*
X143733121Y-85048532D01*
X143652668Y-85015207D01*
X143614744Y-84999499D01*
X143614742Y-84999498D01*
X143614743Y-84999498D01*
X143489072Y-84974500D01*
X143489069Y-84974500D01*
X140360931Y-84974500D01*
X140360927Y-84974500D01*
X140235256Y-84999498D01*
X140235254Y-84999499D01*
X140116880Y-85048531D01*
X140116873Y-85048535D01*
X140010333Y-85119723D01*
X140010327Y-85119727D01*
X134354859Y-90775195D01*
X134288064Y-90813759D01*
X134210936Y-90813759D01*
X134144141Y-90775195D01*
X134105577Y-90708400D01*
X134100500Y-90669836D01*
X134100500Y-88933417D01*
X134120462Y-88858917D01*
X134129883Y-88844817D01*
X134130516Y-88843719D01*
X134130520Y-88843716D01*
X134209577Y-88706784D01*
X134250500Y-88554057D01*
X134250500Y-88395943D01*
X134209577Y-88243216D01*
X134130520Y-88106284D01*
X134018716Y-87994480D01*
X133881784Y-87915423D01*
X133729057Y-87874500D01*
X133681734Y-87874500D01*
X133662789Y-87869423D01*
X133643178Y-87869425D01*
X133626186Y-87859616D01*
X133607234Y-87854538D01*
X133593365Y-87840669D01*
X133576381Y-87830865D01*
X133566569Y-87813873D01*
X133552696Y-87800000D01*
X133547620Y-87781056D01*
X133537813Y-87764072D01*
X133537811Y-87744451D01*
X133532734Y-87725500D01*
X133537810Y-87706555D01*
X133537809Y-87686944D01*
X133547617Y-87669952D01*
X133552696Y-87651000D01*
X133576369Y-87620147D01*
X133585362Y-87611153D01*
X133652153Y-87572587D01*
X133668800Y-87569275D01*
X133670020Y-87568948D01*
X133670022Y-87568948D01*
X133822749Y-87528025D01*
X133959681Y-87448968D01*
X134071485Y-87337164D01*
X134072767Y-87334942D01*
X134074584Y-87333125D01*
X134077429Y-87329418D01*
X134077916Y-87329792D01*
X134127299Y-87280403D01*
X134201798Y-87260436D01*
X134240366Y-87265512D01*
X134370943Y-87300500D01*
X134529057Y-87300500D01*
X134681784Y-87259577D01*
X134818716Y-87180520D01*
X134930520Y-87068716D01*
X135009577Y-86931784D01*
X135050500Y-86779057D01*
X135050500Y-86620943D01*
X135009577Y-86468216D01*
X135009575Y-86468212D01*
X134970462Y-86400465D01*
X134950500Y-86325966D01*
X134950500Y-84909108D01*
X134950499Y-84909106D01*
X134916392Y-84781814D01*
X134850500Y-84667686D01*
X134757314Y-84574500D01*
X134757311Y-84574498D01*
X134294171Y-84111358D01*
X133755887Y-83573073D01*
X133717324Y-83506280D01*
X133697077Y-83430716D01*
X133618020Y-83293784D01*
X133506216Y-83181980D01*
X133369284Y-83102923D01*
X133216557Y-83062000D01*
X133058443Y-83062000D01*
X132905716Y-83102923D01*
X132905714Y-83102923D01*
X132905714Y-83102924D01*
X132768783Y-83181980D01*
X132659859Y-83290905D01*
X132593064Y-83329469D01*
X132515936Y-83329469D01*
X132449141Y-83290905D01*
X132410577Y-83224110D01*
X132405500Y-83185546D01*
X132405500Y-80383441D01*
X144162000Y-80383441D01*
X144162000Y-80383443D01*
X144162000Y-80541557D01*
X144202923Y-80694284D01*
X144281980Y-80831216D01*
X144393784Y-80943020D01*
X144530716Y-81022077D01*
X144683443Y-81063000D01*
X144692877Y-81065528D01*
X144692458Y-81067090D01*
X144753438Y-81092346D01*
X144768098Y-81105201D01*
X145354386Y-81691489D01*
X145413696Y-81725731D01*
X145457114Y-81750799D01*
X145571691Y-81781500D01*
X151782679Y-81781500D01*
X151857179Y-81801462D01*
X151888038Y-81825141D01*
X154301396Y-84238499D01*
X154339960Y-84305294D01*
X154339960Y-84382422D01*
X154301396Y-84449217D01*
X154234601Y-84487781D01*
X154166969Y-84489995D01*
X154089075Y-84474501D01*
X154089073Y-84474500D01*
X154089069Y-84474500D01*
X150185931Y-84474500D01*
X150185927Y-84474500D01*
X150060256Y-84499498D01*
X150060254Y-84499499D01*
X149941880Y-84548531D01*
X149941873Y-84548535D01*
X149910801Y-84569297D01*
X149835327Y-84619727D01*
X149744727Y-84710327D01*
X149673535Y-84816873D01*
X149673531Y-84816880D01*
X149624499Y-84935254D01*
X149624498Y-84935256D01*
X149599500Y-85060927D01*
X149599500Y-85189072D01*
X149624498Y-85314743D01*
X149624499Y-85314745D01*
X149673531Y-85433119D01*
X149673533Y-85433123D01*
X149673535Y-85433127D01*
X149744724Y-85539669D01*
X149835331Y-85630276D01*
X149941873Y-85701465D01*
X150060256Y-85750501D01*
X150185931Y-85775500D01*
X150185935Y-85775500D01*
X154089065Y-85775500D01*
X154089069Y-85775500D01*
X154214744Y-85750501D01*
X154333127Y-85701465D01*
X154439669Y-85630276D01*
X154530276Y-85539669D01*
X154601465Y-85433127D01*
X154650501Y-85314744D01*
X154675500Y-85189069D01*
X154675500Y-85060931D01*
X154660004Y-84983030D01*
X154665048Y-84906069D01*
X154707898Y-84841939D01*
X154777071Y-84807825D01*
X154854034Y-84812869D01*
X154911500Y-84848603D01*
X160334859Y-90271962D01*
X160373423Y-90338757D01*
X160378500Y-90377321D01*
X160378500Y-94576483D01*
X160358538Y-94650983D01*
X160304000Y-94705521D01*
X160229500Y-94725483D01*
X160155000Y-94705521D01*
X160141921Y-94697027D01*
X160116795Y-94678772D01*
X160116789Y-94678769D01*
X160116788Y-94678768D01*
X159962445Y-94600127D01*
X159914821Y-94584653D01*
X159797700Y-94546597D01*
X159700086Y-94531137D01*
X159626611Y-94519500D01*
X159453389Y-94519500D01*
X159387037Y-94530009D01*
X159282299Y-94546597D01*
X159117561Y-94600125D01*
X159117555Y-94600127D01*
X159117549Y-94600129D01*
X159117549Y-94600130D01*
X158963206Y-94678771D01*
X158823075Y-94780583D01*
X158700583Y-94903075D01*
X158598771Y-95043206D01*
X158520130Y-95197549D01*
X158520125Y-95197561D01*
X158466597Y-95362299D01*
X158448228Y-95478282D01*
X158439500Y-95533389D01*
X158439500Y-95706611D01*
X158451137Y-95780086D01*
X158466597Y-95877700D01*
X158490500Y-95951263D01*
X158520127Y-96042445D01*
X158580649Y-96161226D01*
X158598771Y-96196793D01*
X158695499Y-96329927D01*
X158700586Y-96336928D01*
X158823072Y-96459414D01*
X158823075Y-96459416D01*
X158962461Y-96560687D01*
X158963212Y-96561232D01*
X159117555Y-96639873D01*
X159282299Y-96693402D01*
X159453389Y-96720500D01*
X159453393Y-96720500D01*
X159626607Y-96720500D01*
X159626611Y-96720500D01*
X159797701Y-96693402D01*
X159962445Y-96639873D01*
X160116788Y-96561232D01*
X160139350Y-96544839D01*
X160141918Y-96542974D01*
X160213923Y-96515332D01*
X160290102Y-96527397D01*
X160350042Y-96575934D01*
X160377684Y-96647939D01*
X160378500Y-96663516D01*
X160378500Y-101772679D01*
X160358538Y-101847179D01*
X160334859Y-101878038D01*
X155332038Y-106880859D01*
X155265243Y-106919423D01*
X155226679Y-106924500D01*
X155220943Y-106924500D01*
X155068216Y-106965423D01*
X155068214Y-106965423D01*
X155068214Y-106965424D01*
X154931283Y-107044480D01*
X154819480Y-107156283D01*
X154740424Y-107293214D01*
X154699500Y-107445941D01*
X154699500Y-107445943D01*
X154699500Y-107604057D01*
X154740423Y-107756784D01*
X154819480Y-107893716D01*
X154931284Y-108005520D01*
X155068216Y-108084577D01*
X155220943Y-108125500D01*
X155379057Y-108125500D01*
X155531784Y-108084577D01*
X155579588Y-108056977D01*
X155654086Y-108037015D01*
X155728586Y-108056977D01*
X155783124Y-108111514D01*
X155803087Y-108186014D01*
X155783125Y-108260514D01*
X155759446Y-108291374D01*
X154310109Y-109740711D01*
X154243314Y-109779275D01*
X154228061Y-109782517D01*
X154225307Y-109782953D01*
X154202299Y-109786597D01*
X154045292Y-109837613D01*
X154037555Y-109840127D01*
X154037549Y-109840129D01*
X154037549Y-109840130D01*
X153883206Y-109918771D01*
X153743075Y-110020583D01*
X153620583Y-110143075D01*
X153518771Y-110283206D01*
X153440130Y-110437549D01*
X153440125Y-110437561D01*
X153386597Y-110602299D01*
X153368228Y-110718282D01*
X153359500Y-110773389D01*
X153359500Y-110946611D01*
X153371137Y-111020086D01*
X153386597Y-111117700D01*
X153424653Y-111234821D01*
X153440127Y-111282445D01*
X153497222Y-111394500D01*
X153518771Y-111436793D01*
X153620583Y-111576924D01*
X153620586Y-111576928D01*
X153743072Y-111699414D01*
X153883212Y-111801232D01*
X154037555Y-111879873D01*
X154202299Y-111933402D01*
X154373389Y-111960500D01*
X154373393Y-111960500D01*
X154546607Y-111960500D01*
X154546611Y-111960500D01*
X154717701Y-111933402D01*
X154882445Y-111879873D01*
X155036788Y-111801232D01*
X155176928Y-111699414D01*
X155299414Y-111576928D01*
X155401232Y-111436788D01*
X155479873Y-111282445D01*
X155533402Y-111117701D01*
X155560500Y-110946611D01*
X155560500Y-110773389D01*
X155899500Y-110773389D01*
X155899500Y-110946611D01*
X155911137Y-111020086D01*
X155926597Y-111117700D01*
X155964653Y-111234821D01*
X155980127Y-111282445D01*
X156037222Y-111394500D01*
X156058771Y-111436793D01*
X156160583Y-111576924D01*
X156160586Y-111576928D01*
X156283072Y-111699414D01*
X156423212Y-111801232D01*
X156577555Y-111879873D01*
X156742299Y-111933402D01*
X156913389Y-111960500D01*
X156913393Y-111960500D01*
X157086607Y-111960500D01*
X157086611Y-111960500D01*
X157257701Y-111933402D01*
X157422445Y-111879873D01*
X157576788Y-111801232D01*
X157716928Y-111699414D01*
X157839414Y-111576928D01*
X157941232Y-111436788D01*
X158019873Y-111282445D01*
X158073402Y-111117701D01*
X158100500Y-110946611D01*
X158100500Y-110773389D01*
X158073402Y-110602299D01*
X158019873Y-110437555D01*
X157941232Y-110283212D01*
X157839414Y-110143072D01*
X157716928Y-110020586D01*
X157576788Y-109918768D01*
X157576787Y-109918767D01*
X157576784Y-109918765D01*
X157531854Y-109895872D01*
X157528874Y-109893189D01*
X157525000Y-109892151D01*
X157500393Y-109867544D01*
X157474537Y-109844263D01*
X157473297Y-109840448D01*
X157470462Y-109837613D01*
X157461456Y-109804002D01*
X157450704Y-109770909D01*
X157450500Y-109763113D01*
X157450500Y-109698320D01*
X157470462Y-109623820D01*
X157494137Y-109592965D01*
X159496272Y-107590829D01*
X159563065Y-107552267D01*
X159640193Y-107552267D01*
X159706988Y-107590831D01*
X159745552Y-107657625D01*
X159765424Y-107731787D01*
X159796355Y-107785361D01*
X159816317Y-107859861D01*
X159796354Y-107934361D01*
X159772676Y-107965219D01*
X159179509Y-108558388D01*
X159179508Y-108558389D01*
X159120201Y-108661111D01*
X159120202Y-108661111D01*
X159120201Y-108661115D01*
X159089500Y-108775689D01*
X159089500Y-109763113D01*
X159069538Y-109837613D01*
X159015000Y-109892151D01*
X159008146Y-109895872D01*
X158963215Y-109918765D01*
X158963210Y-109918769D01*
X158823081Y-110020579D01*
X158823070Y-110020588D01*
X158700583Y-110143075D01*
X158598771Y-110283206D01*
X158520130Y-110437549D01*
X158520125Y-110437561D01*
X158466597Y-110602299D01*
X158448228Y-110718282D01*
X158439500Y-110773389D01*
X158439500Y-110946611D01*
X158451137Y-111020086D01*
X158466597Y-111117700D01*
X158504653Y-111234821D01*
X158520127Y-111282445D01*
X158577222Y-111394500D01*
X158598771Y-111436793D01*
X158700583Y-111576924D01*
X158700586Y-111576928D01*
X158823072Y-111699414D01*
X158963212Y-111801232D01*
X159117555Y-111879873D01*
X159282299Y-111933402D01*
X159453389Y-111960500D01*
X159453393Y-111960500D01*
X159626607Y-111960500D01*
X159626611Y-111960500D01*
X159797701Y-111933402D01*
X159962445Y-111879873D01*
X160116788Y-111801232D01*
X160256928Y-111699414D01*
X160379414Y-111576928D01*
X160481232Y-111436788D01*
X160559873Y-111282445D01*
X160613402Y-111117701D01*
X160640500Y-110946611D01*
X160640500Y-110773389D01*
X160613402Y-110602299D01*
X160559873Y-110437555D01*
X160481232Y-110283212D01*
X160379414Y-110143072D01*
X160256928Y-110020586D01*
X160116788Y-109918768D01*
X160116787Y-109918767D01*
X160116784Y-109918765D01*
X160071854Y-109895872D01*
X160014537Y-109844263D01*
X159990704Y-109770909D01*
X159990500Y-109763113D01*
X159990500Y-109083321D01*
X160010462Y-109008821D01*
X160034141Y-108977962D01*
X160236414Y-108775689D01*
X160685490Y-108326614D01*
X160744799Y-108223886D01*
X160775500Y-108109309D01*
X160775500Y-107958417D01*
X160795462Y-107883917D01*
X160804883Y-107869817D01*
X160805516Y-107868719D01*
X160805520Y-107868716D01*
X160884577Y-107731784D01*
X160925500Y-107579057D01*
X160925500Y-107420943D01*
X160903293Y-107338064D01*
X160903293Y-107260936D01*
X160941857Y-107194141D01*
X161008652Y-107155577D01*
X161047216Y-107150500D01*
X164134306Y-107150500D01*
X164134309Y-107150500D01*
X164224673Y-107126286D01*
X164248887Y-107119799D01*
X164351614Y-107060489D01*
X170505143Y-100906959D01*
X170571936Y-100868397D01*
X170649064Y-100868397D01*
X170715859Y-100906961D01*
X170754423Y-100973756D01*
X170759500Y-101012320D01*
X170759500Y-101641678D01*
X170739538Y-101716178D01*
X170715859Y-101747037D01*
X162657824Y-109805071D01*
X162591029Y-109843635D01*
X162513901Y-109843635D01*
X162506421Y-109841419D01*
X162337700Y-109786597D01*
X162240086Y-109771137D01*
X162166611Y-109759500D01*
X161993389Y-109759500D01*
X161927037Y-109770009D01*
X161822299Y-109786597D01*
X161665292Y-109837613D01*
X161657555Y-109840127D01*
X161657549Y-109840129D01*
X161657549Y-109840130D01*
X161503206Y-109918771D01*
X161363075Y-110020583D01*
X161240583Y-110143075D01*
X161138771Y-110283206D01*
X161060130Y-110437549D01*
X161060125Y-110437561D01*
X161006597Y-110602299D01*
X160988228Y-110718282D01*
X160979500Y-110773389D01*
X160979500Y-110946611D01*
X160991137Y-111020086D01*
X161006597Y-111117700D01*
X161044653Y-111234821D01*
X161060127Y-111282445D01*
X161117222Y-111394500D01*
X161138771Y-111436793D01*
X161240583Y-111576924D01*
X161240586Y-111576928D01*
X161363072Y-111699414D01*
X161503212Y-111801232D01*
X161657555Y-111879873D01*
X161822299Y-111933402D01*
X161993389Y-111960500D01*
X161993393Y-111960500D01*
X162166607Y-111960500D01*
X162166611Y-111960500D01*
X162337701Y-111933402D01*
X162502445Y-111879873D01*
X162656788Y-111801232D01*
X162796928Y-111699414D01*
X162919414Y-111576928D01*
X163021232Y-111436788D01*
X163099873Y-111282445D01*
X163153402Y-111117701D01*
X163180500Y-110946611D01*
X163180500Y-110773389D01*
X163162735Y-110661225D01*
X163165978Y-110630375D01*
X163165978Y-110599355D01*
X163169964Y-110592449D01*
X163170798Y-110584522D01*
X163204540Y-110532562D01*
X163305947Y-110431155D01*
X163372740Y-110392593D01*
X163449868Y-110392593D01*
X163516663Y-110431157D01*
X163555227Y-110497952D01*
X163555227Y-110575080D01*
X163553013Y-110582553D01*
X163548519Y-110596383D01*
X163546597Y-110602302D01*
X163546597Y-110602303D01*
X163519500Y-110773389D01*
X163519500Y-110946611D01*
X163531137Y-111020086D01*
X163546597Y-111117700D01*
X163584653Y-111234821D01*
X163600127Y-111282445D01*
X163657222Y-111394500D01*
X163678771Y-111436793D01*
X163780583Y-111576924D01*
X163780586Y-111576928D01*
X163903072Y-111699414D01*
X164043212Y-111801232D01*
X164197555Y-111879873D01*
X164362299Y-111933402D01*
X164533389Y-111960500D01*
X164533393Y-111960500D01*
X164706607Y-111960500D01*
X164706611Y-111960500D01*
X164877701Y-111933402D01*
X165042445Y-111879873D01*
X165196788Y-111801232D01*
X165336928Y-111699414D01*
X165459414Y-111576928D01*
X165561232Y-111436788D01*
X165639873Y-111282445D01*
X165693402Y-111117701D01*
X165720500Y-110946611D01*
X165720500Y-110773389D01*
X166059500Y-110773389D01*
X166059500Y-110946611D01*
X166071137Y-111020086D01*
X166086597Y-111117700D01*
X166124653Y-111234821D01*
X166140127Y-111282445D01*
X166197222Y-111394500D01*
X166218771Y-111436793D01*
X166320583Y-111576924D01*
X166320586Y-111576928D01*
X166443072Y-111699414D01*
X166583212Y-111801232D01*
X166737555Y-111879873D01*
X166902299Y-111933402D01*
X167073389Y-111960500D01*
X167073393Y-111960500D01*
X167246607Y-111960500D01*
X167246611Y-111960500D01*
X167417701Y-111933402D01*
X167582445Y-111879873D01*
X167736788Y-111801232D01*
X167876928Y-111699414D01*
X167999414Y-111576928D01*
X168101232Y-111436788D01*
X168179873Y-111282445D01*
X168233402Y-111117701D01*
X168260500Y-110946611D01*
X168260500Y-110773389D01*
X168233402Y-110602299D01*
X168179873Y-110437555D01*
X168101232Y-110283212D01*
X167999414Y-110143072D01*
X167876928Y-110020586D01*
X167869427Y-110015136D01*
X167736793Y-109918771D01*
X167736790Y-109918769D01*
X167736788Y-109918768D01*
X167582445Y-109840127D01*
X167522628Y-109820691D01*
X167417700Y-109786597D01*
X167320086Y-109771137D01*
X167246611Y-109759500D01*
X167073389Y-109759500D01*
X167007037Y-109770009D01*
X166902299Y-109786597D01*
X166745292Y-109837613D01*
X166737555Y-109840127D01*
X166737549Y-109840129D01*
X166737549Y-109840130D01*
X166583206Y-109918771D01*
X166443075Y-110020583D01*
X166320583Y-110143075D01*
X166218771Y-110283206D01*
X166140130Y-110437549D01*
X166140125Y-110437561D01*
X166086597Y-110602299D01*
X166068228Y-110718282D01*
X166059500Y-110773389D01*
X165720500Y-110773389D01*
X165693402Y-110602299D01*
X165639873Y-110437555D01*
X165561232Y-110283212D01*
X165459414Y-110143072D01*
X165336928Y-110020586D01*
X165329427Y-110015136D01*
X165196793Y-109918771D01*
X165196790Y-109918769D01*
X165196788Y-109918768D01*
X165042445Y-109840127D01*
X164982628Y-109820691D01*
X164877700Y-109786597D01*
X164780086Y-109771137D01*
X164706611Y-109759500D01*
X164533389Y-109759500D01*
X164439820Y-109774319D01*
X164362302Y-109786597D01*
X164342556Y-109793013D01*
X164265533Y-109797047D01*
X164196813Y-109762030D01*
X164154807Y-109697344D01*
X164150773Y-109620321D01*
X164185790Y-109551601D01*
X164191136Y-109545966D01*
X171570490Y-102166614D01*
X171629799Y-102063887D01*
X171631784Y-102056477D01*
X171636285Y-102039679D01*
X171636286Y-102039675D01*
X171644734Y-102008144D01*
X171660500Y-101949309D01*
X171660500Y-87449454D01*
X171680462Y-87374954D01*
X171735000Y-87320416D01*
X171809500Y-87300454D01*
X171884000Y-87320416D01*
X171914859Y-87344095D01*
X171951284Y-87380520D01*
X172088216Y-87459577D01*
X172240943Y-87500500D01*
X172399057Y-87500500D01*
X172551784Y-87459577D01*
X172688716Y-87380520D01*
X172688717Y-87380518D01*
X172697173Y-87375637D01*
X172697981Y-87377037D01*
X172758967Y-87351775D01*
X172778417Y-87350500D01*
X173472665Y-87350500D01*
X173547164Y-87370461D01*
X173658216Y-87434577D01*
X173810943Y-87475500D01*
X173969057Y-87475500D01*
X174121784Y-87434577D01*
X174258716Y-87355520D01*
X174370520Y-87243716D01*
X174449577Y-87106784D01*
X174490500Y-86954057D01*
X174490500Y-86795943D01*
X174449577Y-86643216D01*
X174370520Y-86506284D01*
X174258716Y-86394480D01*
X174121784Y-86315423D01*
X173969057Y-86274500D01*
X173810943Y-86274500D01*
X173658216Y-86315423D01*
X173658214Y-86315423D01*
X173658214Y-86315424D01*
X173521283Y-86394480D01*
X173509905Y-86405859D01*
X173443110Y-86444423D01*
X173404546Y-86449500D01*
X172778417Y-86449500D01*
X172703917Y-86429538D01*
X172689817Y-86420116D01*
X172688716Y-86419480D01*
X172551784Y-86340423D01*
X172399057Y-86299500D01*
X172240943Y-86299500D01*
X172088216Y-86340423D01*
X172088214Y-86340423D01*
X172088214Y-86340424D01*
X171951283Y-86419480D01*
X171914859Y-86455905D01*
X171848064Y-86494469D01*
X171770936Y-86494469D01*
X171704141Y-86455905D01*
X171665577Y-86389110D01*
X171660500Y-86350546D01*
X171660500Y-81660691D01*
X171660499Y-81660689D01*
X171660448Y-81660500D01*
X171629799Y-81546114D01*
X171629799Y-81546113D01*
X171570489Y-81443386D01*
X169996614Y-79869511D01*
X169996611Y-79869509D01*
X169996607Y-79869506D01*
X169893888Y-79810201D01*
X169893889Y-79810201D01*
X169875713Y-79805331D01*
X169859969Y-79801113D01*
X169859968Y-79801112D01*
X169779309Y-79779500D01*
X167938417Y-79779500D01*
X167863917Y-79759538D01*
X167849817Y-79750116D01*
X167848716Y-79749480D01*
X167711784Y-79670423D01*
X167559057Y-79629500D01*
X167400943Y-79629500D01*
X167248216Y-79670423D01*
X167248214Y-79670423D01*
X167248214Y-79670424D01*
X167111283Y-79749480D01*
X166999480Y-79861283D01*
X166956984Y-79934890D01*
X166920423Y-79998216D01*
X166901431Y-80069095D01*
X166879500Y-80150941D01*
X166879500Y-80150943D01*
X166879500Y-80309057D01*
X166920423Y-80461784D01*
X166989008Y-80580577D01*
X167001818Y-80602765D01*
X167021780Y-80677265D01*
X167001818Y-80751765D01*
X166978140Y-80782623D01*
X166919481Y-80841282D01*
X166840424Y-80978214D01*
X166799500Y-81130941D01*
X166799500Y-81130943D01*
X166799500Y-81289057D01*
X166840423Y-81441784D01*
X166919480Y-81578716D01*
X167031284Y-81690520D01*
X167168216Y-81769577D01*
X167320943Y-81810500D01*
X167479057Y-81810500D01*
X167631784Y-81769577D01*
X167768716Y-81690520D01*
X167768717Y-81690518D01*
X167777173Y-81685637D01*
X167777981Y-81687037D01*
X167838967Y-81661775D01*
X167858417Y-81660500D01*
X169151679Y-81660500D01*
X169226179Y-81680462D01*
X169257038Y-81704141D01*
X169935859Y-82382962D01*
X169974423Y-82449757D01*
X169979500Y-82488321D01*
X169979500Y-100096679D01*
X169959538Y-100171179D01*
X169935859Y-100202038D01*
X163932038Y-106205859D01*
X163865243Y-106244423D01*
X163826679Y-106249500D01*
X159690691Y-106249500D01*
X159576110Y-106280202D01*
X159544618Y-106298385D01*
X159544617Y-106298386D01*
X159473385Y-106339511D01*
X156639509Y-109173388D01*
X156639508Y-109173389D01*
X156580201Y-109276111D01*
X156580202Y-109276111D01*
X156580201Y-109276115D01*
X156549500Y-109390689D01*
X156549500Y-109763113D01*
X156529538Y-109837613D01*
X156475000Y-109892151D01*
X156468146Y-109895872D01*
X156423215Y-109918765D01*
X156423210Y-109918769D01*
X156283081Y-110020579D01*
X156283070Y-110020588D01*
X156160583Y-110143075D01*
X156058771Y-110283206D01*
X155980130Y-110437549D01*
X155980125Y-110437561D01*
X155926597Y-110602299D01*
X155908228Y-110718282D01*
X155899500Y-110773389D01*
X155560500Y-110773389D01*
X155533402Y-110602299D01*
X155479873Y-110437555D01*
X155401232Y-110283212D01*
X155324786Y-110177993D01*
X155297146Y-110105991D01*
X155309211Y-110029812D01*
X155339968Y-109985059D01*
X161067547Y-104257479D01*
X161134340Y-104218917D01*
X161211468Y-104218917D01*
X161278263Y-104257481D01*
X161301941Y-104288338D01*
X161319480Y-104318716D01*
X161431284Y-104430520D01*
X161568216Y-104509577D01*
X161720943Y-104550500D01*
X161879057Y-104550500D01*
X162031784Y-104509577D01*
X162168716Y-104430520D01*
X162168717Y-104430518D01*
X162177173Y-104425637D01*
X162177981Y-104427037D01*
X162238967Y-104401775D01*
X162258417Y-104400500D01*
X163541583Y-104400500D01*
X163616083Y-104420462D01*
X163630182Y-104429883D01*
X163631282Y-104430518D01*
X163631284Y-104430520D01*
X163768216Y-104509577D01*
X163920943Y-104550500D01*
X164079057Y-104550500D01*
X164231784Y-104509577D01*
X164368716Y-104430520D01*
X164480520Y-104318716D01*
X164559577Y-104181784D01*
X164600500Y-104029057D01*
X164600500Y-103870943D01*
X164559577Y-103718216D01*
X164480520Y-103581284D01*
X164368716Y-103469480D01*
X164231784Y-103390423D01*
X164079057Y-103349500D01*
X163920943Y-103349500D01*
X163768216Y-103390423D01*
X163768214Y-103390423D01*
X163768214Y-103390424D01*
X163758809Y-103395854D01*
X163631284Y-103469480D01*
X163631283Y-103469480D01*
X163622827Y-103474363D01*
X163622018Y-103472962D01*
X163561033Y-103498225D01*
X163541583Y-103499500D01*
X162258417Y-103499500D01*
X162256869Y-103499085D01*
X162255312Y-103499468D01*
X162245695Y-103496091D01*
X162183917Y-103479538D01*
X162181244Y-103477957D01*
X162170975Y-103471739D01*
X162168716Y-103469480D01*
X162137029Y-103451185D01*
X162135667Y-103450361D01*
X162110016Y-103423618D01*
X162083801Y-103397402D01*
X162083386Y-103395854D01*
X162082278Y-103394699D01*
X162073432Y-103358704D01*
X162063840Y-103322902D01*
X162064254Y-103321355D01*
X162063872Y-103319799D01*
X162074208Y-103284207D01*
X162083803Y-103248402D01*
X162085097Y-103246715D01*
X162085383Y-103245731D01*
X162087161Y-103244024D01*
X162107477Y-103217549D01*
X163735489Y-101589539D01*
X163794799Y-101486812D01*
X163795483Y-101484255D01*
X163801285Y-101462604D01*
X163801286Y-101462600D01*
X163809734Y-101431069D01*
X163825500Y-101372234D01*
X163825500Y-96693447D01*
X163845462Y-96618947D01*
X163900000Y-96564409D01*
X163974500Y-96544447D01*
X164042145Y-96560687D01*
X164043205Y-96561227D01*
X164043212Y-96561232D01*
X164197555Y-96639873D01*
X164362299Y-96693402D01*
X164533389Y-96720500D01*
X164533393Y-96720500D01*
X164706607Y-96720500D01*
X164706611Y-96720500D01*
X164877701Y-96693402D01*
X165042445Y-96639873D01*
X165196788Y-96561232D01*
X165336928Y-96459414D01*
X165459414Y-96336928D01*
X165561232Y-96196788D01*
X165639873Y-96042445D01*
X165693402Y-95877701D01*
X165720500Y-95706611D01*
X165720500Y-95533389D01*
X166059500Y-95533389D01*
X166059500Y-95706611D01*
X166071137Y-95780086D01*
X166086597Y-95877700D01*
X166110500Y-95951263D01*
X166140127Y-96042445D01*
X166200649Y-96161226D01*
X166218771Y-96196793D01*
X166315499Y-96329927D01*
X166320586Y-96336928D01*
X166443072Y-96459414D01*
X166443075Y-96459416D01*
X166582461Y-96560687D01*
X166583212Y-96561232D01*
X166737555Y-96639873D01*
X166902299Y-96693402D01*
X167073389Y-96720500D01*
X167073393Y-96720500D01*
X167246607Y-96720500D01*
X167246611Y-96720500D01*
X167417701Y-96693402D01*
X167582445Y-96639873D01*
X167736788Y-96561232D01*
X167876928Y-96459414D01*
X167999414Y-96336928D01*
X168101232Y-96196788D01*
X168179873Y-96042445D01*
X168233402Y-95877701D01*
X168260500Y-95706611D01*
X168260500Y-95533389D01*
X168233402Y-95362299D01*
X168179873Y-95197555D01*
X168101232Y-95043212D01*
X167999414Y-94903072D01*
X167876928Y-94780586D01*
X167876924Y-94780583D01*
X167736793Y-94678771D01*
X167736790Y-94678769D01*
X167736788Y-94678768D01*
X167582445Y-94600127D01*
X167534821Y-94584653D01*
X167417700Y-94546597D01*
X167320086Y-94531137D01*
X167246611Y-94519500D01*
X167073389Y-94519500D01*
X167007037Y-94530009D01*
X166902299Y-94546597D01*
X166737561Y-94600125D01*
X166737555Y-94600127D01*
X166737549Y-94600129D01*
X166737549Y-94600130D01*
X166583206Y-94678771D01*
X166443075Y-94780583D01*
X166320583Y-94903075D01*
X166218771Y-95043206D01*
X166140130Y-95197549D01*
X166140125Y-95197561D01*
X166086597Y-95362299D01*
X166068228Y-95478282D01*
X166059500Y-95533389D01*
X165720500Y-95533389D01*
X165693402Y-95362299D01*
X165639873Y-95197555D01*
X165561232Y-95043212D01*
X165459414Y-94903072D01*
X165336928Y-94780586D01*
X165336924Y-94780583D01*
X165196793Y-94678771D01*
X165196790Y-94678769D01*
X165196788Y-94678768D01*
X165042445Y-94600127D01*
X164994821Y-94584653D01*
X164877700Y-94546597D01*
X164780086Y-94531137D01*
X164706611Y-94519500D01*
X164533389Y-94519500D01*
X164467037Y-94530009D01*
X164362299Y-94546597D01*
X164197561Y-94600125D01*
X164197555Y-94600127D01*
X164197552Y-94600128D01*
X164197543Y-94600132D01*
X164042144Y-94679312D01*
X163966702Y-94695348D01*
X163893348Y-94671514D01*
X163841740Y-94614196D01*
X163825500Y-94546552D01*
X163825500Y-91605691D01*
X163825499Y-91605689D01*
X163794799Y-91491115D01*
X163794798Y-91491111D01*
X163735491Y-91388389D01*
X163735490Y-91388388D01*
X163735489Y-91388386D01*
X151936614Y-79589511D01*
X151936611Y-79589509D01*
X151936607Y-79589506D01*
X151833890Y-79530202D01*
X151833887Y-79530201D01*
X151809673Y-79523713D01*
X151719309Y-79499500D01*
X146242335Y-79499500D01*
X146167835Y-79479538D01*
X146056784Y-79415423D01*
X145904057Y-79374500D01*
X145745943Y-79374500D01*
X145593216Y-79415423D01*
X145593214Y-79415423D01*
X145593214Y-79415424D01*
X145456283Y-79494480D01*
X145344480Y-79606283D01*
X145265422Y-79743217D01*
X145242293Y-79829533D01*
X145203728Y-79896327D01*
X145136933Y-79934890D01*
X145059805Y-79934889D01*
X145023872Y-79920005D01*
X144994287Y-79902924D01*
X144994284Y-79902923D01*
X144841557Y-79862000D01*
X144683443Y-79862000D01*
X144530716Y-79902923D01*
X144530714Y-79902923D01*
X144530714Y-79902924D01*
X144393783Y-79981980D01*
X144281980Y-80093783D01*
X144202924Y-80230714D01*
X144162000Y-80383441D01*
X132405500Y-80383441D01*
X132405500Y-78174351D01*
X132425462Y-78099851D01*
X132480000Y-78045313D01*
X132554500Y-78025351D01*
X132629000Y-78045313D01*
X132659859Y-78068992D01*
X132828151Y-78237284D01*
X133036193Y-78396921D01*
X133036197Y-78396924D01*
X133263303Y-78528043D01*
X133467809Y-78612752D01*
X133505583Y-78628399D01*
X133593332Y-78651910D01*
X133758884Y-78696270D01*
X133758890Y-78696270D01*
X133758891Y-78696271D01*
X133795834Y-78701134D01*
X134018877Y-78730499D01*
X134018878Y-78730500D01*
X134018880Y-78730500D01*
X134281122Y-78730500D01*
X134281122Y-78730499D01*
X134541108Y-78696271D01*
X134541110Y-78696271D01*
X134541111Y-78696270D01*
X134541116Y-78696270D01*
X134794415Y-78628399D01*
X134794416Y-78628399D01*
X134794417Y-78628398D01*
X134794419Y-78628398D01*
X135036697Y-78528043D01*
X135263803Y-78396924D01*
X135471848Y-78237284D01*
X135471849Y-78237284D01*
X135657284Y-78051849D01*
X135657284Y-78051848D01*
X135816921Y-77843807D01*
X135816921Y-77843806D01*
X135816924Y-77843803D01*
X135948043Y-77616697D01*
X136048398Y-77374419D01*
X136116270Y-77121116D01*
X136150500Y-76861120D01*
X136150500Y-76598880D01*
X136150499Y-76598876D01*
X143699500Y-76598876D01*
X143699500Y-76861123D01*
X143733728Y-77121107D01*
X143733728Y-77121110D01*
X143801600Y-77374415D01*
X143801600Y-77374416D01*
X143901959Y-77616701D01*
X144033078Y-77843806D01*
X144033078Y-77843807D01*
X144192715Y-78051848D01*
X144378151Y-78237284D01*
X144586193Y-78396921D01*
X144586197Y-78396924D01*
X144813303Y-78528043D01*
X145017809Y-78612752D01*
X145055583Y-78628399D01*
X145143332Y-78651910D01*
X145308884Y-78696270D01*
X145308890Y-78696270D01*
X145308891Y-78696271D01*
X145345834Y-78701134D01*
X145568877Y-78730499D01*
X145568878Y-78730500D01*
X145568880Y-78730500D01*
X145831122Y-78730500D01*
X145831122Y-78730499D01*
X146091108Y-78696271D01*
X146091110Y-78696271D01*
X146091111Y-78696270D01*
X146091116Y-78696270D01*
X146344415Y-78628399D01*
X146344416Y-78628399D01*
X146344417Y-78628398D01*
X146344419Y-78628398D01*
X146586697Y-78528043D01*
X146813803Y-78396924D01*
X147021848Y-78237284D01*
X147021849Y-78237284D01*
X147207284Y-78051849D01*
X147207284Y-78051848D01*
X147366921Y-77843807D01*
X147366921Y-77843806D01*
X147366924Y-77843803D01*
X147498043Y-77616697D01*
X147598398Y-77374419D01*
X147666270Y-77121116D01*
X147700500Y-76861120D01*
X147700500Y-76598880D01*
X147700499Y-76598876D01*
X155249500Y-76598876D01*
X155249500Y-76861123D01*
X155283728Y-77121107D01*
X155283728Y-77121110D01*
X155351600Y-77374415D01*
X155351600Y-77374416D01*
X155451959Y-77616701D01*
X155583078Y-77843806D01*
X155583078Y-77843807D01*
X155742715Y-78051848D01*
X155928151Y-78237284D01*
X156136193Y-78396921D01*
X156136197Y-78396924D01*
X156363303Y-78528043D01*
X156567809Y-78612752D01*
X156605583Y-78628399D01*
X156693332Y-78651910D01*
X156858884Y-78696270D01*
X156858890Y-78696270D01*
X156858891Y-78696271D01*
X156895834Y-78701134D01*
X157118877Y-78730499D01*
X157118878Y-78730500D01*
X157118880Y-78730500D01*
X157381122Y-78730500D01*
X157381122Y-78730499D01*
X157641108Y-78696271D01*
X157641110Y-78696271D01*
X157641111Y-78696270D01*
X157641116Y-78696270D01*
X157894415Y-78628399D01*
X157894416Y-78628399D01*
X157894417Y-78628398D01*
X157894419Y-78628398D01*
X158136697Y-78528043D01*
X158363803Y-78396924D01*
X158571848Y-78237284D01*
X158571849Y-78237284D01*
X158757284Y-78051849D01*
X158757284Y-78051848D01*
X158916921Y-77843807D01*
X158916921Y-77843806D01*
X158916924Y-77843803D01*
X159048043Y-77616697D01*
X159148398Y-77374419D01*
X159216270Y-77121116D01*
X159250500Y-76861120D01*
X159250500Y-76598880D01*
X159250499Y-76598876D01*
X166799500Y-76598876D01*
X166799500Y-76861123D01*
X166833728Y-77121107D01*
X166833728Y-77121110D01*
X166901600Y-77374415D01*
X166901600Y-77374416D01*
X167001959Y-77616701D01*
X167133078Y-77843806D01*
X167133078Y-77843807D01*
X167292715Y-78051848D01*
X167478151Y-78237284D01*
X167686193Y-78396921D01*
X167686197Y-78396924D01*
X167913303Y-78528043D01*
X168117809Y-78612752D01*
X168155583Y-78628399D01*
X168243332Y-78651910D01*
X168408884Y-78696270D01*
X168408890Y-78696270D01*
X168408891Y-78696271D01*
X168445834Y-78701134D01*
X168668877Y-78730499D01*
X168668878Y-78730500D01*
X168668880Y-78730500D01*
X168931122Y-78730500D01*
X168931122Y-78730499D01*
X169191108Y-78696271D01*
X169191110Y-78696271D01*
X169191111Y-78696270D01*
X169191116Y-78696270D01*
X169444415Y-78628399D01*
X169444416Y-78628399D01*
X169444417Y-78628398D01*
X169444419Y-78628398D01*
X169686697Y-78528043D01*
X169913803Y-78396924D01*
X170121848Y-78237284D01*
X170121849Y-78237284D01*
X170307284Y-78051849D01*
X170307284Y-78051848D01*
X170466921Y-77843807D01*
X170466921Y-77843806D01*
X170466924Y-77843803D01*
X170598043Y-77616697D01*
X170698398Y-77374419D01*
X170766270Y-77121116D01*
X170800500Y-76861120D01*
X170800500Y-76598880D01*
X170766270Y-76338884D01*
X170698398Y-76085581D01*
X170598043Y-75843303D01*
X170466924Y-75616197D01*
X170466921Y-75616193D01*
X170466921Y-75616192D01*
X170307284Y-75408151D01*
X170121848Y-75222715D01*
X169913806Y-75063078D01*
X169686701Y-74931959D01*
X169686699Y-74931958D01*
X169686697Y-74931957D01*
X169611154Y-74900666D01*
X169444416Y-74831600D01*
X169218255Y-74771002D01*
X169191116Y-74763730D01*
X169191114Y-74763729D01*
X169191108Y-74763728D01*
X168931123Y-74729500D01*
X168931120Y-74729500D01*
X168668880Y-74729500D01*
X168668876Y-74729500D01*
X168408892Y-74763728D01*
X168408889Y-74763728D01*
X168155584Y-74831600D01*
X168155583Y-74831600D01*
X167913298Y-74931959D01*
X167686193Y-75063078D01*
X167686192Y-75063078D01*
X167478151Y-75222715D01*
X167478151Y-75222716D01*
X167478149Y-75222718D01*
X167292718Y-75408149D01*
X167292716Y-75408151D01*
X167292715Y-75408151D01*
X167133078Y-75616192D01*
X167133078Y-75616193D01*
X167001959Y-75843298D01*
X166901600Y-76085583D01*
X166901600Y-76085584D01*
X166833728Y-76338889D01*
X166833728Y-76338892D01*
X166799500Y-76598876D01*
X159250499Y-76598876D01*
X159216270Y-76338884D01*
X159148398Y-76085581D01*
X159048043Y-75843303D01*
X158916924Y-75616197D01*
X158916921Y-75616193D01*
X158916921Y-75616192D01*
X158757284Y-75408151D01*
X158571848Y-75222715D01*
X158363806Y-75063078D01*
X158136701Y-74931959D01*
X158136699Y-74931958D01*
X158136697Y-74931957D01*
X158061154Y-74900666D01*
X157894416Y-74831600D01*
X157668255Y-74771002D01*
X157641116Y-74763730D01*
X157641114Y-74763729D01*
X157641108Y-74763728D01*
X157381123Y-74729500D01*
X157381120Y-74729500D01*
X157118880Y-74729500D01*
X157118876Y-74729500D01*
X156858892Y-74763728D01*
X156858889Y-74763728D01*
X156605584Y-74831600D01*
X156605583Y-74831600D01*
X156363298Y-74931959D01*
X156136193Y-75063078D01*
X156136192Y-75063078D01*
X155928151Y-75222715D01*
X155928151Y-75222716D01*
X155928149Y-75222718D01*
X155742718Y-75408149D01*
X155742716Y-75408151D01*
X155742715Y-75408151D01*
X155583078Y-75616192D01*
X155583078Y-75616193D01*
X155451959Y-75843298D01*
X155351600Y-76085583D01*
X155351600Y-76085584D01*
X155283728Y-76338889D01*
X155283728Y-76338892D01*
X155249500Y-76598876D01*
X147700499Y-76598876D01*
X147666270Y-76338884D01*
X147598398Y-76085581D01*
X147498043Y-75843303D01*
X147366924Y-75616197D01*
X147366921Y-75616193D01*
X147366921Y-75616192D01*
X147207284Y-75408151D01*
X147021848Y-75222715D01*
X146813806Y-75063078D01*
X146586701Y-74931959D01*
X146586699Y-74931958D01*
X146586697Y-74931957D01*
X146511154Y-74900666D01*
X146344416Y-74831600D01*
X146118255Y-74771002D01*
X146091116Y-74763730D01*
X146091114Y-74763729D01*
X146091108Y-74763728D01*
X145831123Y-74729500D01*
X145831120Y-74729500D01*
X145568880Y-74729500D01*
X145568876Y-74729500D01*
X145308892Y-74763728D01*
X145308889Y-74763728D01*
X145055584Y-74831600D01*
X145055583Y-74831600D01*
X144813298Y-74931959D01*
X144586193Y-75063078D01*
X144586192Y-75063078D01*
X144378151Y-75222715D01*
X144378151Y-75222716D01*
X144378149Y-75222718D01*
X144192718Y-75408149D01*
X144192716Y-75408151D01*
X144192715Y-75408151D01*
X144033078Y-75616192D01*
X144033078Y-75616193D01*
X143901959Y-75843298D01*
X143801600Y-76085583D01*
X143801600Y-76085584D01*
X143733728Y-76338889D01*
X143733728Y-76338892D01*
X143699500Y-76598876D01*
X136150499Y-76598876D01*
X136116270Y-76338884D01*
X136048398Y-76085581D01*
X135948043Y-75843303D01*
X135816924Y-75616197D01*
X135816921Y-75616193D01*
X135816921Y-75616192D01*
X135657284Y-75408151D01*
X135471848Y-75222715D01*
X135263806Y-75063078D01*
X135036701Y-74931959D01*
X135036699Y-74931958D01*
X135036697Y-74931957D01*
X134961154Y-74900666D01*
X134794416Y-74831600D01*
X134568255Y-74771002D01*
X134541116Y-74763730D01*
X134541114Y-74763729D01*
X134541108Y-74763728D01*
X134281123Y-74729500D01*
X134281120Y-74729500D01*
X134018880Y-74729500D01*
X134018876Y-74729500D01*
X133758892Y-74763728D01*
X133758889Y-74763728D01*
X133505584Y-74831600D01*
X133505583Y-74831600D01*
X133263298Y-74931959D01*
X133036193Y-75063078D01*
X133036192Y-75063078D01*
X132828151Y-75222715D01*
X132828151Y-75222716D01*
X132659859Y-75391008D01*
X132593064Y-75429572D01*
X132515936Y-75429572D01*
X132449141Y-75391008D01*
X132410577Y-75324213D01*
X132405500Y-75285649D01*
X132405500Y-69371151D01*
X132425462Y-69296651D01*
X132480000Y-69242113D01*
X132554497Y-69222151D01*
X162508147Y-69243407D01*
X162520722Y-69243157D01*
X162530923Y-69242744D01*
X162628255Y-69222623D01*
X162693466Y-69197536D01*
X162769352Y-69155083D01*
X169923279Y-63684433D01*
X169963235Y-63647829D01*
X169992791Y-63615482D01*
X170011066Y-63593497D01*
X170061103Y-63492993D01*
X170080219Y-63425789D01*
X170091864Y-63339617D01*
X170076196Y-61490959D01*
X170095526Y-61416296D01*
X170149600Y-61361298D01*
X170223928Y-61340705D01*
X170285375Y-61353396D01*
X170317509Y-61367585D01*
X170342635Y-61370500D01*
X172337364Y-61370499D01*
X172337366Y-61370499D01*
X172349927Y-61369042D01*
X172362491Y-61367585D01*
X172465265Y-61322206D01*
X172544706Y-61242765D01*
X172590085Y-61139991D01*
X172593000Y-61114865D01*
X172592999Y-59025136D01*
X172590085Y-59000009D01*
X172544706Y-58897235D01*
X172465265Y-58817794D01*
X172465264Y-58817793D01*
X172362494Y-58772416D01*
X172362491Y-58772415D01*
X172362482Y-58772414D01*
X172337365Y-58769500D01*
X172337359Y-58769500D01*
X170342633Y-58769500D01*
X170317510Y-58772414D01*
X170317507Y-58772415D01*
X170214735Y-58817793D01*
X170135293Y-58897235D01*
X170089916Y-59000005D01*
X170089915Y-59000008D01*
X170089915Y-59000009D01*
X170087000Y-59025135D01*
X170087000Y-59025136D01*
X170087000Y-59025140D01*
X170087000Y-59203596D01*
X170067038Y-59278096D01*
X170012500Y-59332634D01*
X169938000Y-59352596D01*
X169863500Y-59332634D01*
X169817457Y-59291177D01*
X169755738Y-59206229D01*
X169755737Y-59206228D01*
X169755735Y-59206225D01*
X169616275Y-59066765D01*
X169456715Y-58950838D01*
X169373690Y-58908534D01*
X169280990Y-58861301D01*
X169280986Y-58861299D01*
X169280985Y-58861299D01*
X169223724Y-58842693D01*
X169093417Y-58800354D01*
X169093417Y-58800353D01*
X168985190Y-58783212D01*
X168898613Y-58769500D01*
X168701387Y-58769500D01*
X168623467Y-58781841D01*
X168506582Y-58800353D01*
X168506582Y-58800354D01*
X168319021Y-58861297D01*
X168319009Y-58861301D01*
X168143283Y-58950839D01*
X167983728Y-59066762D01*
X167844262Y-59206228D01*
X167728339Y-59365783D01*
X167662760Y-59494489D01*
X167611151Y-59551806D01*
X167537798Y-59575640D01*
X167462355Y-59559604D01*
X167405038Y-59507995D01*
X167397240Y-59494489D01*
X167331662Y-59365785D01*
X167215735Y-59206225D01*
X167076275Y-59066765D01*
X166916715Y-58950838D01*
X166833690Y-58908534D01*
X166740990Y-58861301D01*
X166740986Y-58861299D01*
X166740985Y-58861299D01*
X166683724Y-58842693D01*
X166553417Y-58800354D01*
X166553417Y-58800353D01*
X166445190Y-58783212D01*
X166358613Y-58769500D01*
X166161387Y-58769500D01*
X166083467Y-58781841D01*
X165966582Y-58800353D01*
X165966582Y-58800354D01*
X165779021Y-58861297D01*
X165779009Y-58861301D01*
X165603283Y-58950839D01*
X165443728Y-59066762D01*
X165304262Y-59206228D01*
X165188339Y-59365783D01*
X165098801Y-59541509D01*
X165098797Y-59541521D01*
X165037854Y-59729082D01*
X165037853Y-59729082D01*
X165017284Y-59858954D01*
X165007000Y-59923887D01*
X165007000Y-60216113D01*
X165020712Y-60302690D01*
X165037853Y-60410917D01*
X165098797Y-60598478D01*
X165098801Y-60598490D01*
X165188339Y-60774216D01*
X165188339Y-60774217D01*
X165285480Y-60907920D01*
X165313120Y-60979925D01*
X165301054Y-61056104D01*
X165252516Y-61116044D01*
X165180511Y-61143684D01*
X165164936Y-61144500D01*
X161192000Y-61144500D01*
X161117500Y-61124538D01*
X161062962Y-61070000D01*
X161043000Y-60995500D01*
X161042999Y-59025133D01*
X161040085Y-59000010D01*
X161040084Y-59000008D01*
X160994706Y-58897235D01*
X160915265Y-58817794D01*
X160915264Y-58817793D01*
X160812494Y-58772416D01*
X160812491Y-58772415D01*
X160812482Y-58772414D01*
X160787365Y-58769500D01*
X160787359Y-58769500D01*
X158792633Y-58769500D01*
X158767510Y-58772414D01*
X158767507Y-58772415D01*
X158664735Y-58817793D01*
X158585293Y-58897235D01*
X158539916Y-59000005D01*
X158539915Y-59000008D01*
X158539915Y-59000009D01*
X158537000Y-59025135D01*
X158537000Y-59025136D01*
X158537000Y-59025140D01*
X158537000Y-59203596D01*
X158517038Y-59278096D01*
X158462500Y-59332634D01*
X158388000Y-59352596D01*
X158313500Y-59332634D01*
X158267457Y-59291177D01*
X158205738Y-59206229D01*
X158205737Y-59206228D01*
X158205735Y-59206225D01*
X158066275Y-59066765D01*
X157906715Y-58950838D01*
X157823690Y-58908534D01*
X157730990Y-58861301D01*
X157730986Y-58861299D01*
X157730985Y-58861299D01*
X157673724Y-58842693D01*
X157543417Y-58800354D01*
X157543417Y-58800353D01*
X157435190Y-58783212D01*
X157348613Y-58769500D01*
X157151387Y-58769500D01*
X157073467Y-58781841D01*
X156956582Y-58800353D01*
X156956582Y-58800354D01*
X156769021Y-58861297D01*
X156769009Y-58861301D01*
X156593283Y-58950839D01*
X156433728Y-59066762D01*
X156294262Y-59206228D01*
X156178339Y-59365783D01*
X156088801Y-59541509D01*
X156088797Y-59541521D01*
X156027854Y-59729082D01*
X156027853Y-59729082D01*
X156007284Y-59858954D01*
X155997000Y-59923887D01*
X155997000Y-60216113D01*
X156010712Y-60302690D01*
X156027853Y-60410917D01*
X156088797Y-60598478D01*
X156088801Y-60598490D01*
X156178339Y-60774216D01*
X156178339Y-60774217D01*
X156275480Y-60907920D01*
X156303120Y-60979925D01*
X156291054Y-61056104D01*
X156242516Y-61116044D01*
X156170511Y-61143684D01*
X156154936Y-61144500D01*
X149642000Y-61144500D01*
X149567500Y-61124538D01*
X149512962Y-61070000D01*
X149493000Y-60995500D01*
X149492999Y-59025133D01*
X149490085Y-59000010D01*
X149490084Y-59000008D01*
X149444706Y-58897235D01*
X149365265Y-58817794D01*
X149365264Y-58817793D01*
X149262494Y-58772416D01*
X149262491Y-58772415D01*
X149262482Y-58772414D01*
X149237365Y-58769500D01*
X149237359Y-58769500D01*
X147242633Y-58769500D01*
X147217510Y-58772414D01*
X147217507Y-58772415D01*
X147114735Y-58817793D01*
X147035293Y-58897235D01*
X146989916Y-59000005D01*
X146989915Y-59000008D01*
X146989915Y-59000009D01*
X146987000Y-59025135D01*
X146987000Y-59025136D01*
X146987000Y-59025140D01*
X146987000Y-59203596D01*
X146967038Y-59278096D01*
X146912500Y-59332634D01*
X146838000Y-59352596D01*
X146763500Y-59332634D01*
X146717457Y-59291177D01*
X146655738Y-59206229D01*
X146655737Y-59206228D01*
X146655735Y-59206225D01*
X146516275Y-59066765D01*
X146356715Y-58950838D01*
X146273690Y-58908534D01*
X146180990Y-58861301D01*
X146180986Y-58861299D01*
X146180985Y-58861299D01*
X146123724Y-58842693D01*
X145993417Y-58800354D01*
X145993417Y-58800353D01*
X145885190Y-58783212D01*
X145798613Y-58769500D01*
X145601387Y-58769500D01*
X145523467Y-58781841D01*
X145406582Y-58800353D01*
X145406582Y-58800354D01*
X145219021Y-58861297D01*
X145219009Y-58861301D01*
X145043283Y-58950839D01*
X144883728Y-59066762D01*
X144744262Y-59206228D01*
X144628339Y-59365783D01*
X144562760Y-59494489D01*
X144511151Y-59551806D01*
X144437798Y-59575640D01*
X144362355Y-59559604D01*
X144305038Y-59507995D01*
X144297240Y-59494489D01*
X144231662Y-59365785D01*
X144115735Y-59206225D01*
X143976275Y-59066765D01*
X143816715Y-58950838D01*
X143733690Y-58908534D01*
X143640990Y-58861301D01*
X143640986Y-58861299D01*
X143640985Y-58861299D01*
X143583724Y-58842693D01*
X143453417Y-58800354D01*
X143453417Y-58800353D01*
X143345190Y-58783212D01*
X143258613Y-58769500D01*
X143061387Y-58769500D01*
X142983467Y-58781841D01*
X142866582Y-58800353D01*
X142866582Y-58800354D01*
X142679021Y-58861297D01*
X142679009Y-58861301D01*
X142503283Y-58950839D01*
X142343728Y-59066762D01*
X142204262Y-59206228D01*
X142088339Y-59365783D01*
X141998801Y-59541509D01*
X141998797Y-59541521D01*
X141937854Y-59729082D01*
X141937853Y-59729082D01*
X141917284Y-59858954D01*
X141907000Y-59923887D01*
X141907000Y-60216113D01*
X141920712Y-60302690D01*
X141937853Y-60410917D01*
X141998797Y-60598478D01*
X141998801Y-60598490D01*
X142088339Y-60774216D01*
X142088339Y-60774217D01*
X142185480Y-60907920D01*
X142213120Y-60979925D01*
X142201054Y-61056104D01*
X142152516Y-61116044D01*
X142080511Y-61143684D01*
X142064936Y-61144500D01*
X138092000Y-61144500D01*
X138017500Y-61124538D01*
X137962962Y-61070000D01*
X137943000Y-60995500D01*
X137942999Y-59025133D01*
X137940085Y-59000010D01*
X137940084Y-59000008D01*
X137894706Y-58897235D01*
X137815265Y-58817794D01*
X137815264Y-58817793D01*
X137712494Y-58772416D01*
X137712491Y-58772415D01*
X137712482Y-58772414D01*
X137687365Y-58769500D01*
X137687359Y-58769500D01*
X135692633Y-58769500D01*
X135667510Y-58772414D01*
X135667507Y-58772415D01*
X135564735Y-58817793D01*
X135485293Y-58897235D01*
X135439916Y-59000005D01*
X135439915Y-59000008D01*
X135439915Y-59000009D01*
X135437000Y-59025135D01*
X135437000Y-59025136D01*
X135437000Y-59025140D01*
X135437000Y-59203596D01*
X135417038Y-59278096D01*
X135362500Y-59332634D01*
X135288000Y-59352596D01*
X135213500Y-59332634D01*
X135167457Y-59291177D01*
X135105738Y-59206229D01*
X135105737Y-59206228D01*
X135105735Y-59206225D01*
X134966275Y-59066765D01*
X134806715Y-58950838D01*
X134723690Y-58908534D01*
X134630990Y-58861301D01*
X134630986Y-58861299D01*
X134630985Y-58861299D01*
X134573724Y-58842693D01*
X134443417Y-58800354D01*
X134443417Y-58800353D01*
X134335190Y-58783212D01*
X134248613Y-58769500D01*
X134051387Y-58769500D01*
X133973467Y-58781841D01*
X133856582Y-58800353D01*
X133856582Y-58800354D01*
X133669021Y-58861297D01*
X133669009Y-58861301D01*
X133493283Y-58950839D01*
X133333728Y-59066762D01*
X133194262Y-59206228D01*
X133078339Y-59365783D01*
X132988801Y-59541509D01*
X132988797Y-59541521D01*
X132927854Y-59729082D01*
X132927853Y-59729082D01*
X132907284Y-59858954D01*
X132897000Y-59923887D01*
X132897000Y-60216113D01*
X132910712Y-60302690D01*
X132927853Y-60410917D01*
X132988797Y-60598478D01*
X132988801Y-60598490D01*
X133078339Y-60774216D01*
X133078339Y-60774217D01*
X133175480Y-60907920D01*
X133203120Y-60979925D01*
X133191054Y-61056104D01*
X133142516Y-61116044D01*
X133070511Y-61143684D01*
X133054936Y-61144500D01*
X126542000Y-61144500D01*
X126467500Y-61124538D01*
X126412962Y-61070000D01*
X126393000Y-60995500D01*
X126392999Y-59025133D01*
X126390085Y-59000010D01*
X126390084Y-59000008D01*
X126344706Y-58897235D01*
X126265265Y-58817794D01*
X126265264Y-58817793D01*
X126162494Y-58772416D01*
X126162491Y-58772415D01*
X126162482Y-58772414D01*
X126137365Y-58769500D01*
X126137359Y-58769500D01*
X124142633Y-58769500D01*
X124117510Y-58772414D01*
X124117507Y-58772415D01*
X124014735Y-58817793D01*
X123935293Y-58897235D01*
X123889916Y-59000005D01*
X123889915Y-59000008D01*
X123889915Y-59000009D01*
X123887000Y-59025135D01*
X123887000Y-59025136D01*
X123887000Y-59025140D01*
X123887000Y-59203596D01*
X123867038Y-59278096D01*
X123812500Y-59332634D01*
X123738000Y-59352596D01*
X123663500Y-59332634D01*
X123617457Y-59291177D01*
X123555738Y-59206229D01*
X123555737Y-59206228D01*
X123555735Y-59206225D01*
X123416275Y-59066765D01*
X123256715Y-58950838D01*
X123173690Y-58908534D01*
X123080990Y-58861301D01*
X123080986Y-58861299D01*
X123080985Y-58861299D01*
X123023724Y-58842693D01*
X122893417Y-58800354D01*
X122893417Y-58800353D01*
X122785190Y-58783212D01*
X122698613Y-58769500D01*
X122501387Y-58769500D01*
X122423467Y-58781841D01*
X122306582Y-58800353D01*
X122306582Y-58800354D01*
X122119021Y-58861297D01*
X122119009Y-58861301D01*
X121943283Y-58950839D01*
X121783728Y-59066762D01*
X121644262Y-59206228D01*
X121528339Y-59365783D01*
X121462760Y-59494489D01*
X121411151Y-59551806D01*
X121337798Y-59575640D01*
X121262355Y-59559604D01*
X121205038Y-59507995D01*
X121197240Y-59494489D01*
X121131662Y-59365785D01*
X121015735Y-59206225D01*
X120876275Y-59066765D01*
X120716715Y-58950838D01*
X120633690Y-58908534D01*
X120540990Y-58861301D01*
X120540986Y-58861299D01*
X120540985Y-58861299D01*
X120483724Y-58842693D01*
X120353417Y-58800354D01*
X120353417Y-58800353D01*
X120245190Y-58783212D01*
X120158613Y-58769500D01*
X119961387Y-58769500D01*
X119883467Y-58781841D01*
X119766582Y-58800353D01*
X119766582Y-58800354D01*
X119579021Y-58861297D01*
X119579009Y-58861301D01*
X119403283Y-58950839D01*
X119243728Y-59066762D01*
X119104262Y-59206228D01*
X118988339Y-59365783D01*
X118898801Y-59541509D01*
X118898797Y-59541521D01*
X118837854Y-59729082D01*
X118837853Y-59729082D01*
X118817284Y-59858954D01*
X118807000Y-59923887D01*
X118807000Y-60216113D01*
X118820712Y-60302690D01*
X118837853Y-60410917D01*
X118898797Y-60598478D01*
X118898801Y-60598490D01*
X118946034Y-60691190D01*
X118988338Y-60774215D01*
X119104265Y-60933775D01*
X119243725Y-61073235D01*
X119403285Y-61189162D01*
X119579015Y-61278701D01*
X119766582Y-61339645D01*
X119766582Y-61339646D01*
X119766587Y-61339646D01*
X119766588Y-61339647D01*
X119961387Y-61370500D01*
X119961391Y-61370500D01*
X120158609Y-61370500D01*
X120158613Y-61370500D01*
X120353412Y-61339647D01*
X120353413Y-61339646D01*
X120353417Y-61339646D01*
X120353417Y-61339645D01*
X120540985Y-61278701D01*
X120716715Y-61189162D01*
X120876275Y-61073235D01*
X121015735Y-60933775D01*
X121074956Y-60852263D01*
X121134896Y-60803726D01*
X121211075Y-60791660D01*
X121283080Y-60819300D01*
X121331618Y-60879240D01*
X121344500Y-60939844D01*
X121344500Y-64667168D01*
X121344524Y-64671014D01*
X121344563Y-64674100D01*
X121359158Y-64763636D01*
X121359159Y-64763637D01*
X121380509Y-64830151D01*
X121380511Y-64830155D01*
X121418599Y-64908325D01*
X122996862Y-67234187D01*
X124181072Y-68979339D01*
X124206385Y-69052195D01*
X124206773Y-69061751D01*
X124258347Y-75198249D01*
X124239011Y-75272914D01*
X124184934Y-75327908D01*
X124110604Y-75348496D01*
X124035939Y-75329160D01*
X124003993Y-75304860D01*
X123921848Y-75222715D01*
X123713806Y-75063078D01*
X123486701Y-74931959D01*
X123486699Y-74931958D01*
X123486697Y-74931957D01*
X123411154Y-74900666D01*
X123244416Y-74831600D01*
X123018255Y-74771002D01*
X122991116Y-74763730D01*
X122991114Y-74763729D01*
X122991108Y-74763728D01*
X122731123Y-74729500D01*
X122731120Y-74729500D01*
X122468880Y-74729500D01*
X122468876Y-74729500D01*
X122208892Y-74763728D01*
X122208889Y-74763728D01*
X121955584Y-74831600D01*
X121955583Y-74831600D01*
X121713298Y-74931959D01*
X121486193Y-75063078D01*
X121486192Y-75063078D01*
X121278151Y-75222715D01*
X121278151Y-75222716D01*
X121278149Y-75222718D01*
X121092718Y-75408149D01*
X121092716Y-75408151D01*
X121092715Y-75408151D01*
X120933078Y-75616192D01*
X120933078Y-75616193D01*
X120801959Y-75843298D01*
X120701600Y-76085583D01*
X120701600Y-76085584D01*
X120633728Y-76338889D01*
X120633728Y-76338892D01*
X120599500Y-76598876D01*
X120599500Y-76861123D01*
X120633728Y-77121107D01*
X120633728Y-77121110D01*
X120701600Y-77374415D01*
X120701600Y-77374416D01*
X120801959Y-77616701D01*
X120933078Y-77843806D01*
X120933078Y-77843807D01*
X121092715Y-78051848D01*
X121278151Y-78237284D01*
X121486193Y-78396921D01*
X121486197Y-78396924D01*
X121713303Y-78528043D01*
X121917809Y-78612752D01*
X121955583Y-78628399D01*
X122043332Y-78651910D01*
X122208884Y-78696270D01*
X122208890Y-78696270D01*
X122208891Y-78696271D01*
X122245834Y-78701134D01*
X122468877Y-78730499D01*
X122468878Y-78730500D01*
X122468880Y-78730500D01*
X122731122Y-78730500D01*
X122731122Y-78730499D01*
X122991108Y-78696271D01*
X122991110Y-78696271D01*
X122991111Y-78696270D01*
X122991116Y-78696270D01*
X123244415Y-78628399D01*
X123244416Y-78628399D01*
X123244417Y-78628398D01*
X123244419Y-78628398D01*
X123486697Y-78528043D01*
X123713803Y-78396924D01*
X123921851Y-78237282D01*
X124029504Y-78129629D01*
X124096298Y-78091064D01*
X124173426Y-78091064D01*
X124240221Y-78129628D01*
X124278786Y-78196422D01*
X124283858Y-78233735D01*
X124295341Y-79600052D01*
X124276005Y-79674717D01*
X124272201Y-79681063D01*
X114698053Y-94788623D01*
X114630955Y-94894500D01*
X114011784Y-95871521D01*
X114011780Y-95871529D01*
X113976353Y-95950188D01*
X113957094Y-96016789D01*
X113957094Y-96016792D01*
X113945070Y-96102225D01*
X104800500Y-96102225D01*
X104800500Y-76598876D01*
X109049500Y-76598876D01*
X109049500Y-76861123D01*
X109083728Y-77121107D01*
X109083728Y-77121110D01*
X109151600Y-77374415D01*
X109151600Y-77374416D01*
X109251959Y-77616701D01*
X109383078Y-77843806D01*
X109383078Y-77843807D01*
X109542715Y-78051848D01*
X109728151Y-78237284D01*
X109936193Y-78396921D01*
X109936197Y-78396924D01*
X110163303Y-78528043D01*
X110367809Y-78612752D01*
X110405583Y-78628399D01*
X110493332Y-78651910D01*
X110658884Y-78696270D01*
X110658890Y-78696270D01*
X110658891Y-78696271D01*
X110695834Y-78701134D01*
X110918877Y-78730499D01*
X110918878Y-78730500D01*
X110918880Y-78730500D01*
X111181122Y-78730500D01*
X111181122Y-78730499D01*
X111441108Y-78696271D01*
X111441110Y-78696271D01*
X111441111Y-78696270D01*
X111441116Y-78696270D01*
X111694415Y-78628399D01*
X111694416Y-78628399D01*
X111694417Y-78628398D01*
X111694419Y-78628398D01*
X111936697Y-78528043D01*
X112163803Y-78396924D01*
X112371848Y-78237284D01*
X112371849Y-78237284D01*
X112557284Y-78051849D01*
X112557284Y-78051848D01*
X112716921Y-77843807D01*
X112716921Y-77843806D01*
X112716924Y-77843803D01*
X112848043Y-77616697D01*
X112948398Y-77374419D01*
X113016270Y-77121116D01*
X113050500Y-76861120D01*
X113050500Y-76598880D01*
X113016270Y-76338884D01*
X112948398Y-76085581D01*
X112848043Y-75843303D01*
X112716924Y-75616197D01*
X112716921Y-75616193D01*
X112716921Y-75616192D01*
X112557284Y-75408151D01*
X112371848Y-75222715D01*
X112163806Y-75063078D01*
X111936701Y-74931959D01*
X111936699Y-74931958D01*
X111936697Y-74931957D01*
X111861154Y-74900666D01*
X111694416Y-74831600D01*
X111468255Y-74771002D01*
X111441116Y-74763730D01*
X111441114Y-74763729D01*
X111441108Y-74763728D01*
X111181123Y-74729500D01*
X111181120Y-74729500D01*
X110918880Y-74729500D01*
X110918876Y-74729500D01*
X110658892Y-74763728D01*
X110658889Y-74763728D01*
X110405584Y-74831600D01*
X110405583Y-74831600D01*
X110163298Y-74931959D01*
X109936193Y-75063078D01*
X109936192Y-75063078D01*
X109728151Y-75222715D01*
X109728151Y-75222716D01*
X109728149Y-75222718D01*
X109542718Y-75408149D01*
X109542716Y-75408151D01*
X109542715Y-75408151D01*
X109383078Y-75616192D01*
X109383078Y-75616193D01*
X109251959Y-75843298D01*
X109151600Y-76085583D01*
X109151600Y-76085584D01*
X109083728Y-76338889D01*
X109083728Y-76338892D01*
X109049500Y-76598876D01*
X104800500Y-76598876D01*
X104800500Y-59923887D01*
X109797000Y-59923887D01*
X109797000Y-60216113D01*
X109810712Y-60302690D01*
X109827853Y-60410917D01*
X109888797Y-60598478D01*
X109888801Y-60598490D01*
X109936034Y-60691190D01*
X109978338Y-60774215D01*
X110094265Y-60933775D01*
X110233725Y-61073235D01*
X110393285Y-61189162D01*
X110569015Y-61278701D01*
X110756582Y-61339645D01*
X110756582Y-61339646D01*
X110756587Y-61339646D01*
X110756588Y-61339647D01*
X110951387Y-61370500D01*
X110951391Y-61370500D01*
X111148609Y-61370500D01*
X111148613Y-61370500D01*
X111343412Y-61339647D01*
X111343413Y-61339646D01*
X111343417Y-61339646D01*
X111343417Y-61339645D01*
X111530985Y-61278701D01*
X111706715Y-61189162D01*
X111866275Y-61073235D01*
X112005735Y-60933775D01*
X112067459Y-60848818D01*
X112127395Y-60800283D01*
X112203573Y-60788217D01*
X112275579Y-60815856D01*
X112324118Y-60875796D01*
X112337000Y-60936400D01*
X112337000Y-61114866D01*
X112339914Y-61139989D01*
X112339915Y-61139992D01*
X112385293Y-61242764D01*
X112385294Y-61242765D01*
X112464735Y-61322206D01*
X112567509Y-61367585D01*
X112592635Y-61370500D01*
X114587364Y-61370499D01*
X114587366Y-61370499D01*
X114599927Y-61369042D01*
X114612491Y-61367585D01*
X114715265Y-61322206D01*
X114794706Y-61242765D01*
X114840085Y-61139991D01*
X114843000Y-61114865D01*
X114842999Y-59025136D01*
X114840085Y-59000009D01*
X114794706Y-58897235D01*
X114715265Y-58817794D01*
X114715264Y-58817793D01*
X114612494Y-58772416D01*
X114612491Y-58772415D01*
X114612482Y-58772414D01*
X114587365Y-58769500D01*
X114587359Y-58769500D01*
X112592633Y-58769500D01*
X112567510Y-58772414D01*
X112567507Y-58772415D01*
X112464735Y-58817793D01*
X112385293Y-58897235D01*
X112339916Y-59000005D01*
X112339915Y-59000008D01*
X112339915Y-59000009D01*
X112337000Y-59025135D01*
X112337000Y-59025136D01*
X112337000Y-59025140D01*
X112337000Y-59203596D01*
X112317038Y-59278096D01*
X112262500Y-59332634D01*
X112188000Y-59352596D01*
X112113500Y-59332634D01*
X112067457Y-59291177D01*
X112005738Y-59206229D01*
X112005737Y-59206228D01*
X112005735Y-59206225D01*
X111866275Y-59066765D01*
X111706715Y-58950838D01*
X111623690Y-58908534D01*
X111530990Y-58861301D01*
X111530986Y-58861299D01*
X111530985Y-58861299D01*
X111473724Y-58842693D01*
X111343417Y-58800354D01*
X111343417Y-58800353D01*
X111235190Y-58783212D01*
X111148613Y-58769500D01*
X110951387Y-58769500D01*
X110873467Y-58781841D01*
X110756582Y-58800353D01*
X110756582Y-58800354D01*
X110569021Y-58861297D01*
X110569009Y-58861301D01*
X110393283Y-58950839D01*
X110233728Y-59066762D01*
X110094262Y-59206228D01*
X109978339Y-59365783D01*
X109888801Y-59541509D01*
X109888797Y-59541521D01*
X109827854Y-59729082D01*
X109827853Y-59729082D01*
X109807284Y-59858954D01*
X109797000Y-59923887D01*
X104800500Y-59923887D01*
X104800500Y-47659913D01*
X104820462Y-47585413D01*
X104875000Y-47530875D01*
X104949500Y-47510913D01*
X105024000Y-47530875D01*
X105075662Y-47580641D01*
X105202881Y-47783110D01*
X105202885Y-47783116D01*
X105378389Y-48003191D01*
X105577425Y-48202227D01*
X105797499Y-48377731D01*
X105956388Y-48477567D01*
X106035834Y-48527486D01*
X106289439Y-48649616D01*
X106555125Y-48742583D01*
X106701714Y-48776040D01*
X106829542Y-48805217D01*
X106829545Y-48805217D01*
X106829548Y-48805218D01*
X107109259Y-48836734D01*
X107390741Y-48836734D01*
X107670452Y-48805218D01*
X107670455Y-48805217D01*
X107670457Y-48805217D01*
X107719315Y-48794065D01*
X107944875Y-48742583D01*
X108210561Y-48649616D01*
X108464166Y-48527486D01*
X108702503Y-48377729D01*
X108922574Y-48202228D01*
X109121611Y-48003191D01*
X109297112Y-47783120D01*
X109327615Y-47734575D01*
X129299500Y-47734575D01*
X129299500Y-48015424D01*
X129330945Y-48294513D01*
X129393438Y-48568312D01*
X129393439Y-48568314D01*
X129393440Y-48568318D01*
X129454418Y-48742581D01*
X129486198Y-48833404D01*
X129486198Y-48833405D01*
X129608051Y-49086438D01*
X129608055Y-49086445D01*
X129757474Y-49324245D01*
X129832522Y-49418352D01*
X129932584Y-49543825D01*
X130131175Y-49742416D01*
X130288015Y-49867492D01*
X130350754Y-49917525D01*
X130509287Y-50017137D01*
X130588555Y-50066945D01*
X130841592Y-50188801D01*
X131106682Y-50281560D01*
X131243586Y-50312807D01*
X131380486Y-50344054D01*
X131380487Y-50344054D01*
X131380491Y-50344055D01*
X131659575Y-50375500D01*
X131940425Y-50375500D01*
X132219509Y-50344055D01*
X132493318Y-50281560D01*
X132758408Y-50188801D01*
X133011445Y-50066945D01*
X133249248Y-49917523D01*
X133468825Y-49742416D01*
X133667416Y-49543825D01*
X133842523Y-49324248D01*
X133991945Y-49086445D01*
X134113801Y-48833408D01*
X134206560Y-48568318D01*
X134269055Y-48294509D01*
X134300500Y-48015425D01*
X134300500Y-47734575D01*
X137299500Y-47734575D01*
X137299500Y-48015424D01*
X137330945Y-48294513D01*
X137393438Y-48568312D01*
X137393439Y-48568314D01*
X137393440Y-48568318D01*
X137454418Y-48742581D01*
X137486198Y-48833404D01*
X137486198Y-48833405D01*
X137608051Y-49086438D01*
X137608055Y-49086445D01*
X137757474Y-49324245D01*
X137832522Y-49418352D01*
X137932584Y-49543825D01*
X138131175Y-49742416D01*
X138288015Y-49867492D01*
X138350754Y-49917525D01*
X138509287Y-50017137D01*
X138588555Y-50066945D01*
X138841592Y-50188801D01*
X139106682Y-50281560D01*
X139243586Y-50312807D01*
X139380486Y-50344054D01*
X139380487Y-50344054D01*
X139380491Y-50344055D01*
X139659575Y-50375500D01*
X139940425Y-50375500D01*
X140219509Y-50344055D01*
X140493318Y-50281560D01*
X140758408Y-50188801D01*
X141011445Y-50066945D01*
X141249248Y-49917523D01*
X141468825Y-49742416D01*
X141667416Y-49543825D01*
X141842523Y-49324248D01*
X141991945Y-49086445D01*
X142113801Y-48833408D01*
X142206560Y-48568318D01*
X142269055Y-48294509D01*
X142300500Y-48015425D01*
X142300500Y-47734575D01*
X145299500Y-47734575D01*
X145299500Y-48015424D01*
X145330945Y-48294513D01*
X145393438Y-48568312D01*
X145393439Y-48568314D01*
X145393440Y-48568318D01*
X145454418Y-48742581D01*
X145486198Y-48833404D01*
X145486198Y-48833405D01*
X145608051Y-49086438D01*
X145608055Y-49086445D01*
X145757474Y-49324245D01*
X145832522Y-49418352D01*
X145932584Y-49543825D01*
X146131175Y-49742416D01*
X146288015Y-49867492D01*
X146350754Y-49917525D01*
X146509287Y-50017137D01*
X146588555Y-50066945D01*
X146841592Y-50188801D01*
X147106682Y-50281560D01*
X147243586Y-50312807D01*
X147380486Y-50344054D01*
X147380487Y-50344054D01*
X147380491Y-50344055D01*
X147659575Y-50375500D01*
X147940425Y-50375500D01*
X148219509Y-50344055D01*
X148493318Y-50281560D01*
X148758408Y-50188801D01*
X149011445Y-50066945D01*
X149249248Y-49917523D01*
X149468825Y-49742416D01*
X149667416Y-49543825D01*
X149842523Y-49324248D01*
X149991945Y-49086445D01*
X150113801Y-48833408D01*
X150206560Y-48568318D01*
X150269055Y-48294509D01*
X150300500Y-48015425D01*
X150300500Y-47734575D01*
X150269055Y-47455491D01*
X150206560Y-47181682D01*
X150113801Y-46916592D01*
X149991945Y-46663555D01*
X149942137Y-46584287D01*
X149842525Y-46425754D01*
X149792492Y-46363015D01*
X149667416Y-46206175D01*
X149468825Y-46007584D01*
X149343352Y-45907522D01*
X149249245Y-45832474D01*
X149011445Y-45683055D01*
X149011438Y-45683051D01*
X148863209Y-45611668D01*
X148758408Y-45561199D01*
X148493318Y-45468440D01*
X148493314Y-45468439D01*
X148493312Y-45468438D01*
X148219513Y-45405945D01*
X147940425Y-45374500D01*
X147659575Y-45374500D01*
X147380486Y-45405945D01*
X147106687Y-45468438D01*
X147106685Y-45468439D01*
X146841595Y-45561198D01*
X146841594Y-45561198D01*
X146588561Y-45683051D01*
X146588554Y-45683055D01*
X146350754Y-45832474D01*
X146131170Y-46007588D01*
X145932588Y-46206170D01*
X145757474Y-46425754D01*
X145608055Y-46663554D01*
X145608051Y-46663561D01*
X145486198Y-46916594D01*
X145486198Y-46916595D01*
X145393439Y-47181685D01*
X145393438Y-47181687D01*
X145330945Y-47455486D01*
X145299500Y-47734575D01*
X142300500Y-47734575D01*
X142269055Y-47455491D01*
X142206560Y-47181682D01*
X142113801Y-46916592D01*
X141991945Y-46663555D01*
X141942137Y-46584287D01*
X141842525Y-46425754D01*
X141792492Y-46363015D01*
X141667416Y-46206175D01*
X141468825Y-46007584D01*
X141343352Y-45907522D01*
X141249245Y-45832474D01*
X141011445Y-45683055D01*
X141011438Y-45683051D01*
X140863209Y-45611668D01*
X140758408Y-45561199D01*
X140493318Y-45468440D01*
X140493314Y-45468439D01*
X140493312Y-45468438D01*
X140219513Y-45405945D01*
X139940425Y-45374500D01*
X139659575Y-45374500D01*
X139380486Y-45405945D01*
X139106687Y-45468438D01*
X139106685Y-45468439D01*
X138841595Y-45561198D01*
X138841594Y-45561198D01*
X138588561Y-45683051D01*
X138588554Y-45683055D01*
X138350754Y-45832474D01*
X138131170Y-46007588D01*
X137932588Y-46206170D01*
X137757474Y-46425754D01*
X137608055Y-46663554D01*
X137608051Y-46663561D01*
X137486198Y-46916594D01*
X137486198Y-46916595D01*
X137393439Y-47181685D01*
X137393438Y-47181687D01*
X137330945Y-47455486D01*
X137299500Y-47734575D01*
X134300500Y-47734575D01*
X134269055Y-47455491D01*
X134206560Y-47181682D01*
X134113801Y-46916592D01*
X133991945Y-46663555D01*
X133942137Y-46584287D01*
X133842525Y-46425754D01*
X133792492Y-46363015D01*
X133667416Y-46206175D01*
X133468825Y-46007584D01*
X133343352Y-45907522D01*
X133249245Y-45832474D01*
X133011445Y-45683055D01*
X133011438Y-45683051D01*
X132863209Y-45611668D01*
X132758408Y-45561199D01*
X132493318Y-45468440D01*
X132493314Y-45468439D01*
X132493312Y-45468438D01*
X132219513Y-45405945D01*
X131940425Y-45374500D01*
X131659575Y-45374500D01*
X131380486Y-45405945D01*
X131106687Y-45468438D01*
X131106685Y-45468439D01*
X130841595Y-45561198D01*
X130841594Y-45561198D01*
X130588561Y-45683051D01*
X130588554Y-45683055D01*
X130350754Y-45832474D01*
X130131170Y-46007588D01*
X129932588Y-46206170D01*
X129757474Y-46425754D01*
X129608055Y-46663554D01*
X129608051Y-46663561D01*
X129486198Y-46916594D01*
X129486198Y-46916595D01*
X129393439Y-47181685D01*
X129393438Y-47181687D01*
X129330945Y-47455486D01*
X129299500Y-47734575D01*
X109327615Y-47734575D01*
X109446869Y-47544783D01*
X109568999Y-47291178D01*
X109661966Y-47025492D01*
X109724601Y-46751069D01*
X109756117Y-46471358D01*
X109756117Y-46189876D01*
X109724601Y-45910165D01*
X109661966Y-45635742D01*
X109568999Y-45370056D01*
X109446869Y-45116451D01*
X109396950Y-45037005D01*
X109297114Y-44878116D01*
X109121610Y-44658042D01*
X108922574Y-44459006D01*
X108702499Y-44283502D01*
X108702493Y-44283498D01*
X108491085Y-44150662D01*
X108438624Y-44094123D01*
X108421461Y-44018929D01*
X108444195Y-43945228D01*
X108500734Y-43892767D01*
X108570357Y-43875500D01*
X171429643Y-43875500D01*
X171504143Y-43895462D01*
G37*
%TD.AperFunction*%
%TD*%
%TA.AperFunction,Conductor*%
%TO.N,+33V*%
G36*
X122050000Y-60142409D02*
G01*
X122087482Y-60282292D01*
X122159890Y-60407708D01*
X122262292Y-60510110D01*
X122387708Y-60582518D01*
X122527591Y-60620000D01*
X122672409Y-60620000D01*
X122812292Y-60582518D01*
X122937708Y-60510110D01*
X123040110Y-60407708D01*
X123112518Y-60282292D01*
X123150000Y-60142409D01*
X123150000Y-60070000D01*
X123428500Y-60070000D01*
X123495539Y-60089685D01*
X123541294Y-60142489D01*
X123552500Y-60194000D01*
X123552500Y-61230521D01*
X123577856Y-61250954D01*
X123599921Y-61317248D01*
X123600000Y-61321674D01*
X123600000Y-61450000D01*
X144747500Y-61450000D01*
X144750000Y-61450000D01*
X144750000Y-60185486D01*
X144767185Y-60126961D01*
X144819989Y-60081206D01*
X144871500Y-60070000D01*
X145150000Y-60070000D01*
X145150000Y-60142409D01*
X145187482Y-60282292D01*
X145259890Y-60407708D01*
X145362292Y-60510110D01*
X145487708Y-60582518D01*
X145627591Y-60620000D01*
X145772409Y-60620000D01*
X145912292Y-60582518D01*
X146037708Y-60510110D01*
X146140110Y-60407708D01*
X146212518Y-60282292D01*
X146250000Y-60142409D01*
X146250000Y-60070000D01*
X146528500Y-60070000D01*
X146595539Y-60089685D01*
X146641294Y-60142489D01*
X146652500Y-60194000D01*
X146652500Y-61230521D01*
X146677856Y-61250954D01*
X146699921Y-61317248D01*
X146700000Y-61321674D01*
X146700000Y-61450000D01*
X167847500Y-61450000D01*
X167851064Y-61450000D01*
X167847500Y-61282492D01*
X167847500Y-60194000D01*
X167867185Y-60126961D01*
X167919989Y-60081206D01*
X167971500Y-60070000D01*
X168250000Y-60070000D01*
X168250000Y-60142409D01*
X168287482Y-60282292D01*
X168359890Y-60407708D01*
X168462292Y-60510110D01*
X168587708Y-60582518D01*
X168727591Y-60620000D01*
X168872409Y-60620000D01*
X169012292Y-60582518D01*
X169137708Y-60510110D01*
X169240110Y-60407708D01*
X169312518Y-60282292D01*
X169350000Y-60142409D01*
X169350000Y-60070000D01*
X169628500Y-60070000D01*
X169695539Y-60089685D01*
X169741294Y-60142489D01*
X169752500Y-60194000D01*
X169752500Y-61254712D01*
X169769059Y-61304459D01*
X169769134Y-61307838D01*
X169786375Y-63342206D01*
X169767259Y-63409410D01*
X169737703Y-63441757D01*
X162583776Y-68912407D01*
X162518565Y-68937494D01*
X162508364Y-68937907D01*
X132700024Y-68916756D01*
X132100000Y-68916330D01*
X132100000Y-83958251D01*
X132080315Y-84025290D01*
X132080061Y-84025685D01*
X123296438Y-97580109D01*
X123323702Y-114900713D01*
X123304123Y-114967783D01*
X123251391Y-115013621D01*
X123199611Y-115024908D01*
X114409273Y-115018442D01*
X114342248Y-114998708D01*
X114296532Y-114945870D01*
X114285364Y-114894672D01*
X114283611Y-113947844D01*
X115562755Y-113947844D01*
X115569156Y-114007372D01*
X115569158Y-114007379D01*
X115619400Y-114142086D01*
X115619404Y-114142093D01*
X115705564Y-114257187D01*
X115705567Y-114257190D01*
X115820661Y-114343350D01*
X115820668Y-114343354D01*
X115955375Y-114393596D01*
X115955382Y-114393598D01*
X116014910Y-114399999D01*
X116014927Y-114400000D01*
X116262755Y-114400000D01*
X118262755Y-114400000D01*
X118510583Y-114400000D01*
X118510599Y-114399999D01*
X118570127Y-114393598D01*
X118570134Y-114393596D01*
X118704841Y-114343354D01*
X118704848Y-114343350D01*
X118819942Y-114257190D01*
X118819945Y-114257187D01*
X118906105Y-114142093D01*
X118906109Y-114142086D01*
X118956351Y-114007379D01*
X118956353Y-114007372D01*
X118962754Y-113947844D01*
X118962755Y-113947827D01*
X118962755Y-113700000D01*
X118262755Y-113700000D01*
X118262755Y-114400000D01*
X116262755Y-114400000D01*
X116262755Y-113700000D01*
X115562755Y-113700000D01*
X115562755Y-113947844D01*
X114283611Y-113947844D01*
X114283058Y-113648868D01*
X114281155Y-112621009D01*
X116662755Y-112621009D01*
X116662755Y-112778991D01*
X116703644Y-112931591D01*
X116782636Y-113068408D01*
X116894347Y-113180119D01*
X117031164Y-113259111D01*
X117183764Y-113300000D01*
X117341746Y-113300000D01*
X117494346Y-113259111D01*
X117631163Y-113180119D01*
X117742874Y-113068408D01*
X117821866Y-112931591D01*
X117862755Y-112778991D01*
X117862755Y-112621009D01*
X117821866Y-112468409D01*
X117742874Y-112331592D01*
X117631163Y-112219881D01*
X117494346Y-112140889D01*
X117341746Y-112100000D01*
X117183764Y-112100000D01*
X117031164Y-112140889D01*
X116894347Y-112219881D01*
X116782636Y-112331592D01*
X116703644Y-112468409D01*
X116662755Y-112621009D01*
X114281155Y-112621009D01*
X114278991Y-111452155D01*
X115562755Y-111452155D01*
X115562755Y-111700000D01*
X116262755Y-111700000D01*
X118262755Y-111700000D01*
X118962755Y-111700000D01*
X118962755Y-111452172D01*
X118962754Y-111452155D01*
X118956353Y-111392627D01*
X118956351Y-111392620D01*
X118906109Y-111257913D01*
X118906105Y-111257906D01*
X118819945Y-111142812D01*
X118819942Y-111142809D01*
X118704848Y-111056649D01*
X118704841Y-111056645D01*
X118570134Y-111006403D01*
X118570127Y-111006401D01*
X118510599Y-111000000D01*
X118262755Y-111000000D01*
X118262755Y-111700000D01*
X116262755Y-111700000D01*
X116262755Y-111000000D01*
X116014910Y-111000000D01*
X115955382Y-111006401D01*
X115955375Y-111006403D01*
X115820668Y-111056645D01*
X115820661Y-111056649D01*
X115705567Y-111142809D01*
X115705564Y-111142812D01*
X115619404Y-111257906D01*
X115619400Y-111257913D01*
X115569158Y-111392620D01*
X115569156Y-111392627D01*
X115562755Y-111452155D01*
X114278991Y-111452155D01*
X114278985Y-111449081D01*
X114253795Y-97843350D01*
X114253063Y-97447844D01*
X115512755Y-97447844D01*
X115519156Y-97507372D01*
X115519158Y-97507379D01*
X115569400Y-97642086D01*
X115569404Y-97642093D01*
X115655564Y-97757187D01*
X115655567Y-97757190D01*
X115770661Y-97843350D01*
X115770668Y-97843354D01*
X115905375Y-97893596D01*
X115905382Y-97893598D01*
X115964910Y-97899999D01*
X115964927Y-97900000D01*
X116212755Y-97900000D01*
X118212755Y-97900000D01*
X118460583Y-97900000D01*
X118460599Y-97899999D01*
X118520127Y-97893598D01*
X118520134Y-97893596D01*
X118654841Y-97843354D01*
X118654848Y-97843350D01*
X118769942Y-97757190D01*
X118769945Y-97757187D01*
X118856105Y-97642093D01*
X118856109Y-97642086D01*
X118906351Y-97507379D01*
X118906353Y-97507372D01*
X118912754Y-97447844D01*
X118912755Y-97447827D01*
X118912755Y-97200000D01*
X118212755Y-97200000D01*
X118212755Y-97900000D01*
X116212755Y-97900000D01*
X116212755Y-97200000D01*
X115512755Y-97200000D01*
X115512755Y-97447844D01*
X114253063Y-97447844D01*
X114250606Y-96121009D01*
X116612755Y-96121009D01*
X116612755Y-96278991D01*
X116653644Y-96431591D01*
X116732636Y-96568408D01*
X116844347Y-96680119D01*
X116981164Y-96759111D01*
X117133764Y-96800000D01*
X117291746Y-96800000D01*
X117444346Y-96759111D01*
X117581163Y-96680119D01*
X117692874Y-96568408D01*
X117771866Y-96431591D01*
X117812755Y-96278991D01*
X117812755Y-96121009D01*
X117771866Y-95968409D01*
X117692874Y-95831592D01*
X117581163Y-95719881D01*
X117444346Y-95640889D01*
X117291746Y-95600000D01*
X117133764Y-95600000D01*
X116981164Y-95640889D01*
X116844347Y-95719881D01*
X116732636Y-95831592D01*
X116653644Y-95968409D01*
X116612755Y-96121009D01*
X114250606Y-96121009D01*
X114250570Y-96101657D01*
X114269829Y-96035057D01*
X114956099Y-94952155D01*
X115512755Y-94952155D01*
X115512755Y-95200000D01*
X116212755Y-95200000D01*
X118212755Y-95200000D01*
X118912755Y-95200000D01*
X118912755Y-94952172D01*
X118912754Y-94952155D01*
X118906353Y-94892627D01*
X118906351Y-94892620D01*
X118856109Y-94757913D01*
X118856105Y-94757906D01*
X118769945Y-94642812D01*
X118769942Y-94642809D01*
X118654848Y-94556649D01*
X118654841Y-94556645D01*
X118520134Y-94506403D01*
X118520127Y-94506401D01*
X118460599Y-94500000D01*
X118212755Y-94500000D01*
X118212755Y-95200000D01*
X116212755Y-95200000D01*
X116212755Y-94500000D01*
X115964910Y-94500000D01*
X115905382Y-94506401D01*
X115905375Y-94506403D01*
X115770668Y-94556645D01*
X115770661Y-94556649D01*
X115655567Y-94642809D01*
X115655564Y-94642812D01*
X115569404Y-94757906D01*
X115569400Y-94757913D01*
X115519158Y-94892620D01*
X115519156Y-94892627D01*
X115512755Y-94952155D01*
X114956099Y-94952155D01*
X124601957Y-79731443D01*
X124579266Y-77031578D01*
X124580320Y-77014394D01*
X124600500Y-76861120D01*
X124600500Y-76598880D01*
X124574925Y-76404624D01*
X124573870Y-76389507D01*
X124511107Y-68921628D01*
X121671393Y-64736786D01*
X121650039Y-64670260D01*
X121650000Y-64667160D01*
X121650000Y-61669389D01*
X121650000Y-61400000D01*
X121650000Y-60185486D01*
X121667185Y-60126961D01*
X121719989Y-60081206D01*
X121771500Y-60070000D01*
X122050000Y-60070000D01*
X122050000Y-60142409D01*
G37*
%TD.AperFunction*%
%TD*%
%TA.AperFunction,Conductor*%
%TO.N,/Vin*%
G36*
X118518612Y-131376274D02*
G01*
X118740603Y-131405500D01*
X119009397Y-131405500D01*
X119231387Y-131376274D01*
X119250834Y-131375000D01*
X130901000Y-131375000D01*
X130975500Y-131394962D01*
X131030038Y-131449500D01*
X131050000Y-131524000D01*
X131050000Y-131915929D01*
X131030038Y-131990429D01*
X131027683Y-131994366D01*
X131015131Y-132014638D01*
X131015129Y-132014642D01*
X130994500Y-132124995D01*
X130994500Y-139125017D01*
X130995665Y-139150220D01*
X130995803Y-139153188D01*
X131026528Y-139261173D01*
X131026529Y-139261175D01*
X131032684Y-139273536D01*
X131029175Y-139275282D01*
X131048870Y-139323879D01*
X131050000Y-139342195D01*
X131050000Y-141226000D01*
X131030038Y-141300500D01*
X130975500Y-141355038D01*
X130901000Y-141375000D01*
X116449000Y-141375000D01*
X116374500Y-141355038D01*
X116319962Y-141300500D01*
X116300000Y-141226000D01*
X116300000Y-131524000D01*
X116319962Y-131449500D01*
X116374500Y-131394962D01*
X116449000Y-131375000D01*
X118499166Y-131375000D01*
X118518612Y-131376274D01*
G37*
%TD.AperFunction*%
%TD*%
M02*
