%TF.GenerationSoftware,KiCad,Pcbnew,9.0.0*%
%TF.CreationDate,2025-04-13T22:32:42+03:00*%
%TF.ProjectId,Inverter,496e7665-7274-4657-922e-6b696361645f,rev?*%
%TF.SameCoordinates,Original*%
%TF.FileFunction,Paste,Top*%
%TF.FilePolarity,Positive*%
%FSLAX46Y46*%
G04 Gerber Fmt 4.6, Leading zero omitted, Abs format (unit mm)*
G04 Created by KiCad (PCBNEW 9.0.0) date 2025-04-13 22:32:42*
%MOMM*%
%LPD*%
G01*
G04 APERTURE LIST*
G04 Aperture macros list*
%AMRoundRect*
0 Rectangle with rounded corners*
0 $1 Rounding radius*
0 $2 $3 $4 $5 $6 $7 $8 $9 X,Y pos of 4 corners*
0 Add a 4 corners polygon primitive as box body*
4,1,4,$2,$3,$4,$5,$6,$7,$8,$9,$2,$3,0*
0 Add four circle primitives for the rounded corners*
1,1,$1+$1,$2,$3*
1,1,$1+$1,$4,$5*
1,1,$1+$1,$6,$7*
1,1,$1+$1,$8,$9*
0 Add four rect primitives between the rounded corners*
20,1,$1+$1,$2,$3,$4,$5,0*
20,1,$1+$1,$4,$5,$6,$7,0*
20,1,$1+$1,$6,$7,$8,$9,0*
20,1,$1+$1,$8,$9,$2,$3,0*%
G04 Aperture macros list end*
%ADD10RoundRect,0.154000X-0.616000X1.416000X-0.616000X-1.416000X0.616000X-1.416000X0.616000X1.416000X0*%
%ADD11R,1.200000X1.200000*%
%ADD12RoundRect,0.250000X0.337500X0.475000X-0.337500X0.475000X-0.337500X-0.475000X0.337500X-0.475000X0*%
%ADD13RoundRect,0.250000X0.450000X-0.350000X0.450000X0.350000X-0.450000X0.350000X-0.450000X-0.350000X0*%
%ADD14RoundRect,0.150000X0.825000X0.150000X-0.825000X0.150000X-0.825000X-0.150000X0.825000X-0.150000X0*%
%ADD15RoundRect,0.250000X-0.450000X0.350000X-0.450000X-0.350000X0.450000X-0.350000X0.450000X0.350000X0*%
%ADD16R,3.600000X2.700000*%
%ADD17RoundRect,0.250000X1.950000X1.000000X-1.950000X1.000000X-1.950000X-1.000000X1.950000X-1.000000X0*%
%ADD18RoundRect,0.250000X-0.337500X-0.475000X0.337500X-0.475000X0.337500X0.475000X-0.337500X0.475000X0*%
%ADD19RoundRect,0.250000X-0.475000X0.337500X-0.475000X-0.337500X0.475000X-0.337500X0.475000X0.337500X0*%
%ADD20RoundRect,0.250000X-0.350000X-0.450000X0.350000X-0.450000X0.350000X0.450000X-0.350000X0.450000X0*%
%ADD21RoundRect,0.200000X-0.900000X-0.200000X0.900000X-0.200000X0.900000X0.200000X-0.900000X0.200000X0*%
%ADD22RoundRect,0.250000X-1.275000X-1.125000X1.275000X-1.125000X1.275000X1.125000X-1.275000X1.125000X0*%
%ADD23RoundRect,0.150000X-0.825000X-0.150000X0.825000X-0.150000X0.825000X0.150000X-0.825000X0.150000X0*%
%ADD24RoundRect,0.250000X1.500000X0.650000X-1.500000X0.650000X-1.500000X-0.650000X1.500000X-0.650000X0*%
%ADD25RoundRect,0.250000X-1.950000X-1.000000X1.950000X-1.000000X1.950000X1.000000X-1.950000X1.000000X0*%
%ADD26RoundRect,0.250000X0.350000X0.450000X-0.350000X0.450000X-0.350000X-0.450000X0.350000X-0.450000X0*%
%ADD27RoundRect,0.250000X0.375000X0.625000X-0.375000X0.625000X-0.375000X-0.625000X0.375000X-0.625000X0*%
G04 APERTURE END LIST*
D10*
%TO.C,D5*%
X113700000Y-130925000D03*
X107050000Y-130925000D03*
%TD*%
%TO.C,D4*%
X113700000Y-124350000D03*
X107050000Y-124350000D03*
%TD*%
D11*
%TO.C,D7*%
X138600000Y-85300000D03*
X141400000Y-85300000D03*
%TD*%
D12*
%TO.C,C15*%
X147187500Y-82800000D03*
X145112500Y-82800000D03*
%TD*%
D10*
%TO.C,D17*%
X148225000Y-64900000D03*
X141575000Y-64900000D03*
%TD*%
D13*
%TO.C,R1*%
X137375000Y-101725000D03*
X137375000Y-99725000D03*
%TD*%
D14*
%TO.C,U6*%
X142425000Y-83005000D03*
X142425000Y-81735000D03*
X142425000Y-80465000D03*
X142425000Y-79195000D03*
X137475000Y-79195000D03*
X137475000Y-80465000D03*
X137475000Y-81735000D03*
X137475000Y-83005000D03*
%TD*%
D13*
%TO.C,R9*%
X145775000Y-101725000D03*
X145775000Y-99725000D03*
%TD*%
D15*
%TO.C,R12*%
X156450000Y-99725000D03*
X156450000Y-101725000D03*
%TD*%
D16*
%TO.C,L1*%
X149995000Y-134505000D03*
X149995000Y-126205000D03*
%TD*%
D17*
%TO.C,C2*%
X130200000Y-89400000D03*
X122800000Y-89400000D03*
%TD*%
D10*
%TO.C,D18*%
X138225000Y-64900000D03*
X131575000Y-64900000D03*
%TD*%
D15*
%TO.C,R17*%
X118400000Y-69525000D03*
X118400000Y-71525000D03*
%TD*%
D11*
%TO.C,D13*%
X121550000Y-71925000D03*
X121550000Y-69125000D03*
%TD*%
D10*
%TO.C,D15*%
X171325000Y-64900000D03*
X164675000Y-64900000D03*
%TD*%
D15*
%TO.C,R7*%
X140350000Y-99725000D03*
X140350000Y-101725000D03*
%TD*%
D11*
%TO.C,D8*%
X115400000Y-85350000D03*
X118200000Y-85350000D03*
%TD*%
D13*
%TO.C,R2*%
X159400000Y-101725000D03*
X159400000Y-99725000D03*
%TD*%
D11*
%TO.C,D2*%
X131650000Y-99325000D03*
X131650000Y-102125000D03*
%TD*%
D18*
%TO.C,C10*%
X168562500Y-51800000D03*
X170637500Y-51800000D03*
%TD*%
D11*
%TO.C,D11*%
X144550000Y-71950000D03*
X144550000Y-69150000D03*
%TD*%
D19*
%TO.C,C18*%
X111700000Y-80812500D03*
X111700000Y-82887500D03*
%TD*%
D14*
%TO.C,U7*%
X119275000Y-83055000D03*
X119275000Y-81785000D03*
X119275000Y-80515000D03*
X119275000Y-79245000D03*
X114325000Y-79245000D03*
X114325000Y-80515000D03*
X114325000Y-81785000D03*
X114325000Y-83055000D03*
%TD*%
D10*
%TO.C,D20*%
X115125000Y-64900000D03*
X108475000Y-64900000D03*
%TD*%
D20*
%TO.C,R4*%
X151560000Y-140055000D03*
X153560000Y-140055000D03*
%TD*%
D13*
%TO.C,R11*%
X159460000Y-117210000D03*
X159460000Y-115210000D03*
%TD*%
D19*
%TO.C,C7*%
X168700000Y-54612500D03*
X168700000Y-56687500D03*
%TD*%
D12*
%TO.C,C14*%
X124037500Y-82750000D03*
X121962500Y-82750000D03*
%TD*%
D19*
%TO.C,C17*%
X134900000Y-80812500D03*
X134900000Y-82887500D03*
%TD*%
D21*
%TO.C,U1*%
X157770000Y-131300000D03*
X157770000Y-132440000D03*
X157770000Y-133580000D03*
D22*
X162395000Y-132055000D03*
X162395000Y-135105000D03*
X165745000Y-132055000D03*
X165745000Y-135105000D03*
D21*
X157770000Y-134720000D03*
X157770000Y-135860000D03*
%TD*%
D23*
%TO.C,U2*%
X160625000Y-51595000D03*
X160625000Y-52865000D03*
X160625000Y-54135000D03*
X160625000Y-55405000D03*
X165575000Y-55405000D03*
X165575000Y-54135000D03*
X165575000Y-52865000D03*
X165575000Y-51595000D03*
%TD*%
D19*
%TO.C,C9*%
X122500000Y-54612500D03*
X122500000Y-56687500D03*
%TD*%
D18*
%TO.C,C12*%
X122312500Y-51800000D03*
X124387500Y-51800000D03*
%TD*%
D10*
%TO.C,D16*%
X161325000Y-64900000D03*
X154675000Y-64900000D03*
%TD*%
D18*
%TO.C,C11*%
X145362500Y-51800000D03*
X147437500Y-51800000D03*
%TD*%
D11*
%TO.C,D1*%
X130560000Y-114320000D03*
X133360000Y-114320000D03*
%TD*%
D19*
%TO.C,C16*%
X157950000Y-80812500D03*
X157950000Y-82887500D03*
%TD*%
D13*
%TO.C,R10*%
X150625000Y-101725000D03*
X150625000Y-99725000D03*
%TD*%
%TO.C,R8*%
X142850000Y-101725000D03*
X142850000Y-99725000D03*
%TD*%
D11*
%TO.C,D6*%
X161650000Y-85300000D03*
X164450000Y-85300000D03*
%TD*%
D12*
%TO.C,C13*%
X170287500Y-82750000D03*
X168212500Y-82750000D03*
%TD*%
D15*
%TO.C,R15*%
X141500000Y-69550000D03*
X141500000Y-71550000D03*
%TD*%
D14*
%TO.C,U5*%
X165525000Y-83005000D03*
X165525000Y-81735000D03*
X165525000Y-80465000D03*
X165525000Y-79195000D03*
X160575000Y-79195000D03*
X160575000Y-80465000D03*
X160575000Y-81735000D03*
X160575000Y-83005000D03*
%TD*%
D15*
%TO.C,R13*%
X164600000Y-69550000D03*
X164600000Y-71550000D03*
%TD*%
D23*
%TO.C,U4*%
X114375000Y-51595000D03*
X114375000Y-52865000D03*
X114375000Y-54135000D03*
X114375000Y-55405000D03*
X119325000Y-55405000D03*
X119325000Y-54135000D03*
X119325000Y-52865000D03*
X119325000Y-51595000D03*
%TD*%
D15*
%TO.C,R16*%
X136125000Y-69525000D03*
X136125000Y-71525000D03*
%TD*%
D11*
%TO.C,D14*%
X109800000Y-71950000D03*
X109800000Y-69150000D03*
%TD*%
D10*
%TO.C,D19*%
X125125000Y-64900000D03*
X118475000Y-64900000D03*
%TD*%
D24*
%TO.C,D3*%
X152287500Y-122110000D03*
X147287500Y-122110000D03*
%TD*%
D15*
%TO.C,R14*%
X159275000Y-69550000D03*
X159275000Y-71550000D03*
%TD*%
D25*
%TO.C,C1*%
X158050000Y-123820000D03*
X165450000Y-123820000D03*
%TD*%
D15*
%TO.C,R6*%
X148200000Y-99725000D03*
X148200000Y-101725000D03*
%TD*%
D12*
%TO.C,C3*%
X153622500Y-137830000D03*
X151547500Y-137830000D03*
%TD*%
D19*
%TO.C,C8*%
X145500000Y-54612500D03*
X145500000Y-56687500D03*
%TD*%
D15*
%TO.C,R5*%
X153600000Y-99725000D03*
X153600000Y-101725000D03*
%TD*%
D23*
%TO.C,U3*%
X137425000Y-51595000D03*
X137425000Y-52865000D03*
X137425000Y-54135000D03*
X137425000Y-55405000D03*
X142375000Y-55405000D03*
X142375000Y-54135000D03*
X142375000Y-52865000D03*
X142375000Y-51595000D03*
%TD*%
D11*
%TO.C,D9*%
X167750000Y-71950000D03*
X167750000Y-69150000D03*
%TD*%
%TO.C,D10*%
X156125000Y-71950000D03*
X156125000Y-69150000D03*
%TD*%
%TO.C,D12*%
X133025000Y-71925000D03*
X133025000Y-69125000D03*
%TD*%
D17*
%TO.C,C4*%
X142025000Y-122125000D03*
X134625000Y-122125000D03*
%TD*%
D26*
%TO.C,R3*%
X158135000Y-139030000D03*
X156135000Y-139030000D03*
%TD*%
D15*
%TO.C,R18*%
X112950000Y-69550000D03*
X112950000Y-71550000D03*
%TD*%
D27*
%TO.C,F1*%
X138600000Y-89675000D03*
X135800000Y-89675000D03*
%TD*%
M02*
