M48
; DRILL file {KiCad 9.0.0} date 2025-04-14T04:31:51+0300
; FORMAT={-:-/ absolute / metric / decimal}
; #@! TF.CreationDate,2025-04-14T04:31:51+03:00
; #@! TF.GenerationSoftware,Kicad,Pcbnew,9.0.0
; #@! TF.FileFunction,Plated,1,2,PTH
FMAT,2
METRIC
; #@! TA.AperFunction,Plated,PTH,ViaDrill
T1C0.300
; #@! TA.AperFunction,Plated,PTH,ComponentDrill
T2C0.950
; #@! TA.AperFunction,Plated,PTH,ComponentDrill
T3C1.000
; #@! TA.AperFunction,Plated,PTH,ComponentDrill
T4C1.100
; #@! TA.AperFunction,Plated,PTH,ComponentDrill
T5C1.200
; #@! TA.AperFunction,Plated,PTH,ComponentDrill
T6C1.400
; #@! TA.AperFunction,Plated,PTH,ComponentDrill
T7C2.590
%
G90
G05
T1
X106.175Y-102.475
X106.175Y-103.675
X106.175Y-104.975
X106.2Y-101.35
X106.2Y-106.275
X106.225Y-107.375
X107.45Y-85.025
X107.45Y-90.0
X107.45Y-102.5
X107.45Y-103.675
X107.45Y-104.975
X107.45Y-106.275
X107.475Y-47.525
X107.475Y-50.0
X107.475Y-52.5
X107.475Y-55.0
X107.475Y-57.5
X107.475Y-62.5
X107.475Y-75.0
X107.475Y-80.025
X107.475Y-87.5
X107.475Y-120.0
X107.475Y-135.05
X107.5Y-44.975
X107.5Y-70.075
X107.5Y-72.45
X107.5Y-77.475
X107.5Y-82.5
X108.9Y-104.4
X109.975Y-132.525
X110.0Y-84.975
X110.0Y-122.5
X110.0Y-129.425
X110.025Y-80.0
X110.025Y-82.525
X110.025Y-87.5
X110.05Y-135.05
X112.35Y-137.625
X112.4Y-139.975
X112.5Y-87.5
X112.55Y-135.05
X114.9Y-87.5
X114.975Y-137.6
X115.0Y-139.975
X115.025Y-135.0
X115.25Y-109.175
X115.6Y-109.825
X115.95Y-109.175
X116.3Y-109.825
X116.65Y-109.175
X117.0Y-109.825
X117.35Y-109.175
X117.475Y-82.5
X117.7Y-109.825
X118.05Y-109.175
X118.4Y-109.825
X118.75Y-109.175
X119.1Y-109.825
X119.45Y-109.175
X119.8Y-109.825
X120.0Y-72.5
X120.0Y-75.025
X120.0Y-77.5
X120.125Y-109.175
X120.475Y-109.825
X120.825Y-109.175
X120.95Y-56.25
X121.175Y-109.825
X123.65Y-72.5
X123.725Y-79.3
X124.925Y-102.475
X124.925Y-105.025
X124.95Y-97.525
X124.95Y-107.5
X124.95Y-109.925
X124.95Y-125.025
X124.975Y-100.1
X124.975Y-112.375
X124.975Y-117.45
X124.975Y-120.025
X124.975Y-122.45
X125.0Y-57.5
X125.625Y-130.0
X126.875Y-95.0
X127.075Y-60.0
X127.5Y-52.5
X127.5Y-122.5
X127.525Y-55.0
X127.525Y-117.5
X127.525Y-120.05
X127.525Y-125.05
X127.525Y-130.025
X127.9Y-92.05
X129.8Y-120.05
X129.825Y-122.55
X129.975Y-54.975
X130.0Y-52.5
X130.0Y-57.5
X130.0Y-125.05
X130.0Y-130.0
X130.025Y-60.025
X130.325Y-107.55
X130.575Y-93.6
X131.35Y-87.175
X131.6Y-86.25
X132.1Y-52.475
X132.1Y-54.975
X132.1Y-57.5
X132.325Y-105.05
X132.35Y-120.05
X132.4Y-125.05
X133.05Y-79.325
X133.137Y-83.662
X133.25Y-73.675
X133.591Y-86.968
X133.65Y-88.475
X133.775Y-92.275
X134.3Y-52.475
X134.45Y-86.7
X134.5Y-106.375
X134.525Y-108.375
X134.95Y-125.0
X134.975Y-97.5
X135.0Y-102.5
X135.0Y-130.0
X135.0Y-139.95
X135.025Y-100.075
X135.15Y-79.325
X135.225Y-93.5
X135.625Y-74.55
X136.02Y-114.85
X137.45Y-97.72
X137.45Y-105.025
X137.45Y-139.975
X137.475Y-125.0
X137.525Y-114.95
X137.525Y-120.0
X137.525Y-129.975
X137.55Y-108.375
X139.975Y-108.35
X139.975Y-114.95
X139.975Y-137.425
X140.0Y-105.025
X140.0Y-129.925
X140.0Y-132.55
X140.0Y-134.95
X140.0Y-139.975
X140.05Y-125.025
X140.58Y-103.42
X141.575Y-100.8
X142.4Y-74.95
X142.475Y-127.525
X142.475Y-130.0
X142.475Y-132.525
X142.5Y-77.5
X142.5Y-137.45
X142.5Y-140.0
X142.525Y-114.95
X142.575Y-108.375
X142.6Y-135.025
X143.525Y-85.725
X143.95Y-56.25
X144.762Y-80.462
X144.925Y-117.975
X144.925Y-120.0
X144.925Y-122.5
X144.95Y-139.95
X145.025Y-114.95
X145.45Y-127.5
X145.825Y-79.975
X147.4Y-114.95
X147.425Y-117.95
X147.45Y-139.975
X147.475Y-129.95
X147.5Y-57.55
X147.5Y-69.975
X147.5Y-72.475
X147.5Y-74.95
X147.5Y-79.125
X147.5Y-132.525
X147.5Y-135.0
X147.525Y-137.275
X148.129Y-103.425
X148.925Y-83.95
X149.975Y-69.975
X149.975Y-72.5
X150.0Y-52.5
X150.0Y-54.925
X150.0Y-82.475
X150.0Y-112.425
X150.0Y-114.95
X150.05Y-117.95
X150.075Y-59.975
X150.1Y-75.0
X150.1Y-77.575
X150.1Y-79.15
X150.25Y-85.125
X150.475Y-87.375
X152.125Y-87.375
X152.15Y-98.625
X152.45Y-135.0
X152.475Y-54.925
X152.475Y-57.525
X152.5Y-52.525
X152.5Y-112.45
X152.5Y-117.925
X152.5Y-120.0
X152.5Y-127.5
X152.5Y-129.95
X152.55Y-114.95
X152.8Y-92.95
X153.05Y-106.725
X153.125Y-83.95
X153.175Y-109.375
X153.375Y-73.225
X153.4Y-71.0
X153.4Y-75.95
X153.425Y-79.0
X153.575Y-103.425
X153.6Y-133.775
X154.025Y-85.125
X154.75Y-80.9
X154.825Y-128.875
X154.95Y-52.5
X154.95Y-57.525
X154.975Y-54.925
X154.975Y-114.95
X154.975Y-134.975
X155.0Y-75.025
X155.0Y-77.5
X155.0Y-112.45
X155.0Y-120.05
X155.0Y-122.5
X155.3Y-107.525
X156.36Y-137.555
X156.45Y-103.2
X157.16Y-140.805
X157.425Y-90.0
X157.475Y-112.45
X157.475Y-114.95
X157.475Y-117.525
X157.5Y-79.25
X157.65Y-72.525
X157.85Y-102.975
X158.15Y-84.35
X158.15Y-98.1
X158.45Y-74.0
X159.975Y-92.5
X159.975Y-112.475
X160.0Y-119.975
X160.0Y-127.5
X160.0Y-137.475
X160.325Y-107.5
X160.95Y-109.45
X161.8Y-103.95
X162.375Y-100.075
X162.395Y-132.055
X162.395Y-135.105
X162.475Y-117.525
X162.475Y-122.45
X162.475Y-125.025
X162.475Y-127.475
X162.5Y-112.475
X162.5Y-120.0
X162.525Y-137.475
X162.55Y-140.8
X164.0Y-103.95
X164.07Y-133.58
X164.925Y-87.5
X164.975Y-92.525
X165.0Y-74.975
X165.0Y-77.9
X165.0Y-100.05
X165.0Y-115.0
X165.0Y-119.975
X165.0Y-137.475
X165.025Y-97.425
X165.025Y-127.45
X165.05Y-112.5
X165.745Y-132.055
X165.745Y-135.105
X166.3Y-140.775
X166.95Y-105.025
X167.1Y-56.3
X167.35Y-73.825
X167.4Y-81.21
X167.45Y-92.55
X167.48Y-80.23
X167.5Y-87.475
X167.5Y-137.5
X167.525Y-127.45
X167.6Y-85.025
X168.45Y-86.175
X168.75Y-97.425
X168.75Y-99.975
X168.85Y-95.0
X169.3Y-140.775
X169.375Y-102.6
X169.6Y-92.55
X169.925Y-73.825
X169.95Y-105.05
X169.975Y-70.0
X169.975Y-79.275
X169.975Y-107.725
X170.0Y-132.475
X170.025Y-135.0
X170.1Y-57.55
X171.55Y-56.775
X172.025Y-72.425
X172.05Y-70.0
X172.05Y-74.95
X172.05Y-78.525
X172.05Y-80.3
X172.075Y-77.1
X172.2Y-82.5
X172.225Y-84.95
X172.32Y-86.9
X172.45Y-89.975
X172.45Y-92.5
X172.45Y-100.0
X172.5Y-49.975
X172.5Y-52.5
X172.5Y-95.0
X172.5Y-97.5
X172.525Y-105.025
X172.525Y-110.05
X172.55Y-135.0
X172.575Y-132.5
X172.65Y-107.725
X173.475Y-114.45
X173.475Y-119.975
X173.475Y-126.8
X174.32Y-86.9
X174.5Y-51.325
X174.5Y-55.0
T2
X142.8Y-90.95
X145.3Y-90.95
X147.8Y-90.95
X150.3Y-90.95
X152.8Y-90.95
X171.2Y-117.825
X171.2Y-120.325
X171.2Y-122.825
X171.2Y-125.325
X171.2Y-127.825
T3
X131.6Y-95.62
X131.6Y-110.86
X134.14Y-95.62
X134.14Y-110.86
X136.68Y-95.62
X136.68Y-110.86
X139.22Y-95.62
X139.22Y-110.86
X141.76Y-95.62
X141.76Y-110.86
X144.3Y-95.62
X144.3Y-110.86
X146.84Y-95.62
X146.84Y-110.86
X149.38Y-95.62
X149.38Y-110.86
X151.92Y-95.62
X151.92Y-110.86
X154.46Y-95.62
X154.46Y-110.86
X157.0Y-95.62
X157.0Y-110.86
X159.54Y-95.62
X159.54Y-110.86
X162.08Y-95.62
X162.08Y-110.86
X164.62Y-95.62
X164.62Y-110.86
X167.16Y-95.62
X167.16Y-110.86
T4
X108.51Y-60.07
X111.05Y-60.07
X113.59Y-60.07
X120.06Y-60.07
X122.6Y-60.07
X125.14Y-60.07
X131.61Y-60.07
X134.15Y-60.07
X136.69Y-60.07
X143.16Y-60.07
X145.7Y-60.07
X148.24Y-60.07
X154.71Y-60.07
X157.25Y-60.07
X159.79Y-60.07
X166.26Y-60.07
X168.8Y-60.07
X171.34Y-60.07
T5
X109.713Y-96.2
X109.763Y-112.7
X117.213Y-96.2
X117.263Y-112.7
T6
X128.775Y-134.425
X132.305Y-43.6
X136.395Y-134.425
X139.925Y-43.6
X147.545Y-43.6
T7
X118.875Y-124.275
X118.875Y-129.355
X118.875Y-133.415
X118.875Y-138.495
M30
