%TF.GenerationSoftware,KiCad,Pcbnew,9.0.0*%
%TF.CreationDate,2025-04-14T04:31:53+03:00*%
%TF.ProjectId,Inverter,496e7665-7274-4657-922e-6b696361645f,rev?*%
%TF.SameCoordinates,Original*%
%TF.FileFunction,Paste,Bot*%
%TF.FilePolarity,Positive*%
%FSLAX46Y46*%
G04 Gerber Fmt 4.6, Leading zero omitted, Abs format (unit mm)*
G04 Created by KiCad (PCBNEW 9.0.0) date 2025-04-14 04:31:53*
%MOMM*%
%LPD*%
G01*
G04 APERTURE LIST*
G04 APERTURE END LIST*
G36*
X169475500Y-59544962D02*
G01*
X169530038Y-59599500D01*
X169550000Y-59674000D01*
X169550000Y-63201293D01*
X169530038Y-63275793D01*
X169491415Y-63319725D01*
X162614985Y-68569472D01*
X162543656Y-68598813D01*
X162524691Y-68600040D01*
X131850000Y-68624999D01*
X131850000Y-83881119D01*
X131830038Y-83955619D01*
X131826218Y-83961875D01*
X122950000Y-97724999D01*
X122973794Y-114475788D01*
X122953937Y-114550317D01*
X122899477Y-114604932D01*
X122825006Y-114625000D01*
X114974000Y-114625000D01*
X114899500Y-114605038D01*
X114844962Y-114550500D01*
X114825000Y-114476000D01*
X114825000Y-95768695D01*
X114844962Y-95694195D01*
X114848600Y-95688223D01*
X124900000Y-80025000D01*
X124900000Y-68925000D01*
X121901464Y-64563493D01*
X121875707Y-64490792D01*
X121875248Y-64478287D01*
X121899212Y-59973207D01*
X121919570Y-59898815D01*
X121974397Y-59844568D01*
X122048210Y-59825000D01*
X123251000Y-59825000D01*
X123325500Y-59844962D01*
X123380038Y-59899500D01*
X123400000Y-59974000D01*
X123400000Y-61598627D01*
X145099999Y-61625000D01*
X145100000Y-61624999D01*
X145076839Y-59725817D01*
X145095891Y-59651079D01*
X145149760Y-59595880D01*
X145224011Y-59575011D01*
X145225828Y-59575000D01*
X146201000Y-59575000D01*
X146275500Y-59594962D01*
X146330038Y-59649500D01*
X146350000Y-59724000D01*
X146350000Y-61625000D01*
X168000000Y-61625000D01*
X168000000Y-59674000D01*
X168019962Y-59599500D01*
X168074500Y-59544962D01*
X168149000Y-59525000D01*
X169401000Y-59525000D01*
X169475500Y-59544962D01*
G37*
G36*
X130342952Y-132144732D02*
G01*
X130388751Y-132197498D01*
X130400000Y-132249104D01*
X130400000Y-140101000D01*
X130380315Y-140168039D01*
X130327511Y-140213794D01*
X130276000Y-140225000D01*
X118924000Y-140225000D01*
X118856961Y-140205315D01*
X118811206Y-140152511D01*
X118800000Y-140101000D01*
X118800000Y-132258638D01*
X118819685Y-132191599D01*
X118872489Y-132145844D01*
X118923896Y-132134638D01*
X130275896Y-132125104D01*
X130342952Y-132144732D01*
G37*
M02*
